<svg xmlns="http://www.w3.org/2000/svg" viewBox="0 0 152.38 272.07"><defs><style>.cls-1{fill:#fbb040;}.cls-2{fill:#58595b;}</style></defs><g id="Layer_2" data-name="Layer 2"><g id="Layer_1-2" data-name="Layer 1"><path class="cls-1" d="M29.39,65.72c5.07,0,9.77-2.82,12.87-5.91.18,1.69.46,3.38.75,5.16A2.39,2.39,0,0,0,45.26,67a2.45,2.45,0,0,0,2.35-2.82c-.94-4.6-1.51-11.46-2.16-19.62a2.36,2.36,0,0,0-2.35-2.07,2.28,2.28,0,0,0-2.35,2.54l.75,8.16C38.41,58,34,60.93,29.67,60.93c-9.1,0-12.86-15.39-12.86-24.31,0-15.31,7.89-31.93,17.75-31.93,4,0,6.19,4.23,6.19,8.64a17.2,17.2,0,0,1-.37,3.19,2.46,2.46,0,0,0,2.25,2.91A2.6,2.6,0,0,0,45,17.56a20.1,20.1,0,0,0,.47-4.13C45.45,6.29,41.41,0,34.74,0c-13,0-22.62,17.56-22.62,36.52C12.12,48.16,17.56,65.72,29.39,65.72Z"></path><path class="cls-1" d="M136.43,2.44a2.51,2.51,0,0,0-2.35,2A198.62,198.62,0,0,0,131.36,31a13.54,13.54,0,0,0-4.6-.75,13.77,13.77,0,0,0-10.32,4.84l-.2.14a24,24,0,0,1-7.69,3.28,19.91,19.91,0,0,1-.1-2.44c0-8.45-5.91-17-13.52-17-6.1,0-11.55,3.85-11.55,9.76a12.49,12.49,0,0,0,1.76,6.06,2.52,2.52,0,0,0-.54.33,24,24,0,0,1-7.7,3.28,22.11,22.11,0,0,1-.09-2.44c0-8.45-5.92-17-13.52-17-6.1,0-11.55,3.85-11.55,9.76a13,13,0,0,0,2.35,7c-3,2.63-4.6,7-4.6,11.27,0,7.23,4.13,12.21,11.17,12.21,4.88,0,10.42-2.63,13.61-9a18.6,18.6,0,0,0,2.35-7A31.4,31.4,0,0,0,82,41.8a17,17,0,0,0-.87,5.33c0,7.23,4.13,12.21,11.17,12.21,4.88,0,10.42-2.63,13.62-9a18.77,18.77,0,0,0,2.34-7,32,32,0,0,0,4.32-1.11,18.65,18.65,0,0,0-.75,5.15c0,6.85,4,10.14,8.83,10.14s8.54-3.29,11.45-6.29c.28,3.66.75,7.51,1.41,13.14a2.39,2.39,0,0,0,2.35,2,2.22,2.22,0,0,0,2.25-2.62A217.09,217.09,0,0,1,136,35a175.24,175.24,0,0,1,2.73-29.86A2.3,2.3,0,0,0,136.43,2.44ZM70.05,48.26c-2.07,4.22-5.35,6.29-9.67,6.29s-6.2-3-6.2-7.42a10.89,10.89,0,0,1,3-7.79c3.56,3,7.51,4.88,12.11,4.88a20.6,20.6,0,0,0,2.35-.09A18.29,18.29,0,0,1,70.05,48.26Zm-1.41-8.73c-5.73-.28-12.2-5.45-12.2-10.52,0-3.29,3.47-5.26,6.66-5.26,4.88,0,8.26,5.26,9,12.68.09.94.09,1.88.09,2.82A18.94,18.94,0,0,1,68.64,39.53Zm33.05,8.73c-2.06,4.22-5.35,6.29-9.67,6.29s-6.2-3-6.2-7.42a10.89,10.89,0,0,1,3-7.79c3.57,3,7.51,4.88,12.11,4.88a20.52,20.52,0,0,0,2.35-.09A18.29,18.29,0,0,1,101.69,48.26Zm-1.41-8.73c-5.72-.28-12.2-5.45-12.2-10.52,0-3.29,3.47-5.26,6.66-5.26,4.89,0,8.27,5.26,9,12.68.09.94.09,1.88.09,2.82A18.94,18.94,0,0,1,100.28,39.53Zm20.38,13.23c-2.63,0-4.23-1.78-4.23-5.25,0-5.64,4.14-12.58,10.24-12.58a11.73,11.73,0,0,1,4.69,1.12c0,2.63.19,5.26.19,8.08C130,47.23,124.7,52.76,120.66,52.76Z"></path><polygon class="cls-2" points="68.37 79.49 68.37 81.96 77.3 81.96 77.3 79.49 74.26 79.49 74.26 75.22 77.2 75.22 77.2 77.25 79.53 77.25 79.53 70.96 77.2 70.96 77.2 72.99 74.26 72.99 74.26 68.28 81.39 68.28 81.39 71.57 84.15 71.57 84.15 65.8 68.37 65.8 68.37 68.28 71.2 68.28 71.2 79.49 68.37 79.49"></polygon><path class="cls-2" d="M90.32,82.29c3.34,0,6.26-2.29,6.26-5.84a6.28,6.28,0,0,0-12.53,0C84.05,80,87,82.29,90.32,82.29Zm0-9.37a3.55,3.55,0,1,1-3.2,3.53A3.22,3.22,0,0,1,90.34,72.92Z"></path><path class="cls-2" d="M110.69,76.45a6,6,0,0,0-6.27-5.87,5.87,5.87,0,1,0,0,11.71C107.77,82.29,110.69,80,110.69,76.45Zm-9.45,0A3.21,3.21,0,1,1,104.45,80,3.23,3.23,0,0,1,101.24,76.45Z"></path><path class="cls-2" d="M118.1,70.58a5.72,5.72,0,0,0-5.84,5.94,5.59,5.59,0,0,0,5.47,5.77,6.18,6.18,0,0,0,4.21-1.81,2.68,2.68,0,0,0,2.62,1.69,4.51,4.51,0,0,0,2-.47l-.59-2.12a1.61,1.61,0,0,1-.68.14c-.38,0-.66-.23-.66-.89v-13h-5.23v2.34h2.34V72A5.47,5.47,0,0,0,118.1,70.58Zm3.61,7.82a5.52,5.52,0,0,1-3.18,1.42,3.07,3.07,0,0,1-3.21-3.3,3.31,3.31,0,0,1,3.51-3.46,4.88,4.88,0,0,1,2.88,1.1Z"></path><path class="cls-2" d="M45.45,227.71a2.36,2.36,0,0,0-2.35-2.06,2.27,2.27,0,0,0-2.35,2.53l.75,8.17c-3.09,4.79-7.51,7.7-11.83,7.7-9.1,0-12.86-15.4-12.86-24.32,0-15.3,7.89-31.92,17.75-31.92,4,0,6.19,4.23,6.19,8.64a17.2,17.2,0,0,1-.37,3.19,2.46,2.46,0,0,0,2.25,2.91A2.6,2.6,0,0,0,45,200.67a19.94,19.94,0,0,0,.47-4.13c0-7.13-4-13.42-10.71-13.42-13,0-22.62,17.55-22.62,36.52,0,11.64,5.44,29.2,17.27,29.2,5.07,0,9.77-2.82,12.87-5.92.18,1.69.46,3.38.75,5.17a2.38,2.38,0,0,0,2.25,2.06,2.45,2.45,0,0,0,2.35-2.81C46.67,242.74,46.1,235.88,45.45,227.71Z"></path><path class="cls-2" d="M136.43,185.56a2.5,2.5,0,0,0-2.35,2,198.45,198.45,0,0,0-2.72,26.57,13.54,13.54,0,0,0-4.6-.75,13.77,13.77,0,0,0-10.32,4.84l-.2.13a23.78,23.78,0,0,1-7.69,3.29,19.91,19.91,0,0,1-.1-2.44c0-8.45-5.91-17-13.52-17-6.1,0-11.55,3.85-11.55,9.76A12.49,12.49,0,0,0,85.14,218a3,3,0,0,0-.54.32,23.75,23.75,0,0,1-7.7,3.29,22.11,22.11,0,0,1-.09-2.44c0-8.45-5.92-17-13.52-17-6.1,0-11.55,3.85-11.55,9.76a13,13,0,0,0,2.35,7c-3,2.63-4.6,7-4.6,11.27,0,7.23,4.13,12.2,11.17,12.2,4.88,0,10.42-2.63,13.61-9a18.66,18.66,0,0,0,2.35-7A32.34,32.34,0,0,0,82,224.92a17,17,0,0,0-.87,5.33c0,7.23,4.13,12.2,11.17,12.2,4.88,0,10.42-2.63,13.62-9a18.83,18.83,0,0,0,2.34-7,33.52,33.52,0,0,0,4.32-1.11,18.59,18.59,0,0,0-.75,5.15c0,6.85,4,10.14,8.83,10.14s8.54-3.29,11.45-6.29c.28,3.66.75,7.51,1.41,13.14a2.39,2.39,0,0,0,2.35,2,2.22,2.22,0,0,0,2.25-2.63A216.83,216.83,0,0,1,136,218.14a175.15,175.15,0,0,1,2.73-29.86A2.3,2.3,0,0,0,136.43,185.56ZM70.05,231.37c-2.07,4.23-5.35,6.3-9.67,6.3s-6.2-3-6.2-7.42c0-3.1,1.22-6.2,3-7.79,3.56,3,7.51,4.88,12.11,4.88a18.56,18.56,0,0,0,2.35-.1A17.93,17.93,0,0,1,70.05,231.37Zm-1.41-8.73c-5.73-.28-12.2-5.44-12.2-10.51,0-3.29,3.47-5.26,6.66-5.26,4.88,0,8.26,5.26,9,12.67.09.94.09,1.88.09,2.82A18.14,18.14,0,0,1,68.64,222.64Zm33.05,8.73c-2.06,4.23-5.35,6.3-9.67,6.3s-6.2-3-6.2-7.42c0-3.1,1.22-6.2,3-7.79,3.57,3,7.51,4.88,12.11,4.88a18.48,18.48,0,0,0,2.35-.1A17.93,17.93,0,0,1,101.69,231.37Zm-1.41-8.73c-5.72-.28-12.2-5.44-12.2-10.51,0-3.29,3.47-5.26,6.66-5.26,4.89,0,8.27,5.26,9,12.67.09.94.09,1.88.09,2.82A18.14,18.14,0,0,1,100.28,222.64Zm20.38,13.24c-2.63,0-4.23-1.78-4.23-5.26,0-5.63,4.14-12.58,10.24-12.58a11.76,11.76,0,0,1,4.69,1.13c0,2.63.19,5.26.19,8.07C130,230.34,124.7,235.88,120.66,235.88Z"></path><path class="cls-1" d="M72.89,261l-6-12H60.62v2.47h2.83V262.6H60.62v2.47H69V262.6H66.35v-5.7a28.81,28.81,0,0,0-.33-3.69l5.93,12h1.67l6-12.11a24.7,24.7,0,0,0-.41,3.84v5.7H76.57v2.47h8.52V262.6H82.27V251.39h2.82v-2.47H78.81Z"></path><path class="cls-1" d="M98.84,259.56a6,6,0,0,0-6.26-5.86c-3.28,0-6.27,2.28-6.27,5.86s3,5.84,6.27,5.84S98.84,263.12,98.84,259.56Zm-9.44,0a3.21,3.21,0,1,1,3.2,3.54A3.22,3.22,0,0,1,89.4,259.56Z"></path><path class="cls-1" d="M106.68,253.7a6,6,0,0,0-6.26,5.86c0,3.56,3,5.84,6.26,5.84s6.27-2.28,6.27-5.84A6,6,0,0,0,106.68,253.7Zm0,9.4a3.55,3.55,0,1,1,3.18-3.54A3.24,3.24,0,0,1,106.71,263.1Z"></path><path class="cls-1" d="M127.52,262.84c-.37,0-.66-.24-.66-.9v-13h-5.23v2.33H124v3.82a5.42,5.42,0,0,0-3.61-1.37,5.72,5.72,0,0,0-5.84,5.93A5.59,5.59,0,0,0,120,265.4a6.18,6.18,0,0,0,4.21-1.81,2.67,2.67,0,0,0,2.62,1.7,4.51,4.51,0,0,0,2-.47l-.58-2.12A1.7,1.7,0,0,1,127.52,262.84ZM124,261.52a5.45,5.45,0,0,1-3.18,1.41,3.07,3.07,0,0,1-3.21-3.3,3.32,3.32,0,0,1,3.51-3.46,4.89,4.89,0,0,1,2.88,1.11Z"></path><path class="cls-1" d="M106.15,267.43a10.48,10.48,0,0,1-13.56,0,1.06,1.06,0,0,0-1.51.12,1.08,1.08,0,0,0,.12,1.52,12.61,12.61,0,0,0,16.33,0,1.07,1.07,0,1,0-1.38-1.64Z"></path><path class="cls-1" d="M27.39,143.7A52.46,52.46,0,1,0,79.85,91.25,52.46,52.46,0,0,0,27.39,143.7Zm29-29.77a36.83,36.83,0,0,1,14.09-6.68l1.8-.42,1.84-.25,1.81-.23c.59-.06,1.15,0,1.71-.06l1.67,0h.42c.26,0,.31,0,.48,0l.85,0c1.12,0,2.21.2,3.28.32a40.41,40.41,0,0,1,6,1.41,36.73,36.73,0,0,1,5.09,2.15,34.24,34.24,0,0,1,7.36,5,35.37,35.37,0,0,1,3.94,4.1l1.22,1.58-1.39-1.44a42.54,42.54,0,0,0-4.28-3.62,36.64,36.64,0,0,0-12.49-5.89,39.86,39.86,0,0,0-5.72-1c-1,0-2-.15-3.08-.12h-.79a2.65,2.65,0,0,0-.33,0l-.42,0-1.66.13c-.56.06-1.14.08-1.68.15l-1.61.29-1.62.29-1.64.46a35.65,35.65,0,0,0-12.62,6.55A12.59,12.59,0,0,0,57.16,118l-1.37,1.28c-.87.91-1.7,1.87-2.52,2.83a37.93,37.93,0,0,0-4.07,6.52,34.61,34.61,0,0,0-3.49,15.12l.1,2a18.68,18.68,0,0,0,.14,2l.28,1.88.14.94.23,1a27.88,27.88,0,0,0,1.1,3.75l.67,1.84.83,1.75a38.87,38.87,0,0,0,4.07,6.51c.82,1,1.65,1.92,2.52,2.83l1.37,1.28a12.59,12.59,0,0,0,1.41,1.22,35.65,35.65,0,0,0,12.62,6.55l1.64.46,1.66.29,1.63.29c.55.07,1.09.09,1.63.14l1.61.14.39,0c.06,0,.26,0,.37,0h.82c1.11,0,2.07-.07,3.08-.12a41.3,41.3,0,0,0,5.72-1,35,35,0,0,0,5-1.67,36.51,36.51,0,0,0,7.51-4.22,41.25,41.25,0,0,0,4.28-3.62l1.39-1.44-1.22,1.59a37.07,37.07,0,0,1-3.94,4.1,34.61,34.61,0,0,1-7.36,5,38,38,0,0,1-5.09,2.15,40.41,40.41,0,0,1-6,1.41,37.39,37.39,0,0,1-13.87-.62,37.28,37.28,0,0,1-24.75-19.59l-1-1.95-.76-2a31,31,0,0,1-1.26-4.18l-.27-1.06-.18-1.11L41.92,148a19.84,19.84,0,0,1-.16-2.11l-.12-2.19a38.73,38.73,0,0,1,4-16.87A36.7,36.7,0,0,1,56.35,113.93ZM89,150.85a10.63,10.63,0,0,1,2.7,6.4A7,7,0,0,1,84.5,164a7.23,7.23,0,0,1-7.42-7.43A11.19,11.19,0,0,1,81.23,148l-.73-.88c-.45-.5-.84-1-1.2-1.44-2.43,3.75-6.83,7.63-11.32,7.63s-6.26-4.44-6.26-9.61a66.29,66.29,0,0,1,1.75-12.15,2,2,0,0,1,1.82-1.46A1.88,1.88,0,0,1,67,132.36a62.75,62.75,0,0,0-1.68,11.5c0,2.91.51,5.75,2.7,5.75,4.29,0,7.92-5.14,9.2-8a9.33,9.33,0,0,1-.18-1.81c0-4.8,4.51-9.75,9.46-9.75a5.72,5.72,0,0,1,6,5.9,10.07,10.07,0,0,1-.88,3.93,1.8,1.8,0,0,1-3.49-.66,24.35,24.35,0,0,0,.73-3.2,2.25,2.25,0,0,0-2.48-2.33c-2.91,0-5.67,3.71-5.67,6.11a5.29,5.29,0,0,0,.18,1.34l0,.17a9.16,9.16,0,0,0,2.24,3.44L84.43,146c2.69-1.38,6.91-1.89,9.9-1.89a27.23,27.23,0,0,1,7.86,1,1.84,1.84,0,0,1,1.23,2.26c-.29.94-.87,1.38-1.53,1.38a2,2,0,0,1-.65-.15,18.71,18.71,0,0,0-6.91-.87,23.9,23.9,0,0,0-7.14,1.09A14.84,14.84,0,0,1,89,150.85ZM65.22,123.12c.29-1.6,1.45-2.69,2.54-2.48s1.46,1.68,1.17,3.28-1.46,2.69-2.48,2.47S64.93,124.72,65.22,123.12Z"></path><path class="cls-1" d="M80.72,156.38a3.81,3.81,0,0,0,3.78,4,3.43,3.43,0,0,0,3.57-3.27c0-2.26-2.55-4.81-4.22-6.55A7.5,7.5,0,0,0,80.72,156.38Z"></path><path class="cls-2" d="M152.38,130.41c0-15.59-.25-58.23-2.79-56.8-11.68,6.61-9.65,58-9.65,62.18,0,4,2.56,7.28,5.8,7.54l-2.38,31.73a4.52,4.52,0,1,0,9,.34v-45Z"></path><path class="cls-2" d="M18.17,174.6l-2-60a15.49,15.49,0,0,0,1.6-.49A13,13,0,0,0,26,100.26L23.31,79.84a1.45,1.45,0,0,0-1.43-1.26h-.31A1.45,1.45,0,0,0,20.12,80v21.5a1,1,0,0,1-2,0L17.34,80a1.45,1.45,0,0,0-1.45-1.39h0A1.45,1.45,0,0,0,14.45,80v21.5a1,1,0,0,1-1,1h-.82a1,1,0,0,1-1-1V80A1.45,1.45,0,0,0,8.73,80L8,101.57a1,1,0,0,1-2,0V80A1.44,1.44,0,0,0,4.5,78.58H4.19a1.45,1.45,0,0,0-1.43,1.26L.11,100.26a13,13,0,0,0,8.21,13.83,14.77,14.77,0,0,0,1.6.49l-2,60a5.14,5.14,0,1,0,10.28,0Z"></path><path class="cls-2" d="M45.51,97.82c.58-.85-4-6.13-5.25-7a2.84,2.84,0,1,0-3.2,4.69C38.36,96.39,44.94,98.67,45.51,97.82Z"></path><path class="cls-2" d="M44.08,82.38a2.83,2.83,0,0,0-.94,3.9c.82,1.34,5.87,6.13,6.74,5.6S48.81,84.66,48,83.32A2.84,2.84,0,0,0,44.08,82.38Z"></path><path class="cls-2" d="M57.14,90.31c1-.25,1.14-7.21.76-8.74a2.84,2.84,0,0,0-5.51,1.37C52.76,84.46,56.14,90.55,57.14,90.31Z"></path><path class="cls-2" d="M119,189.37c-.87.53,1.08,7.22,1.9,8.56a2.84,2.84,0,0,0,4.85-3C124.93,193.63,119.88,188.83,119,189.37Z"></path><path class="cls-2" d="M111.75,190.94c-1,.25-1.14,7.21-.77,8.73a2.84,2.84,0,1,0,5.52-1.36C116.12,196.78,112.74,190.7,111.75,190.94Z"></path></g></g></svg>