<svg xmlns="http://www.w3.org/2000/svg" viewBox="0 0 155.15 200.56"><defs><style>.cls-1{fill:#58595b;}.cls-2{fill:#fbb040;}</style></defs><g id="Layer_2" data-name="Layer 2"><g id="Layer_1-2" data-name="Layer 1"><path class="cls-1" d="M30.49,140.38a3.74,3.74,0,0,1,3.56,2.37l1.37-.13v-3.7h-1.9v1.15a4.38,4.38,0,0,0-3.35-1.38,5.48,5.48,0,0,0-5.4,5.76,5.65,5.65,0,0,0,5.85,5.67,5.82,5.82,0,0,0,5-2.69l-1.38-1.13a4.14,4.14,0,0,1-3.65,2.09,3.75,3.75,0,0,1-3.64-4C27,141.88,28.68,140.38,30.49,140.38Z"></path><path class="cls-1" d="M52.05,144.41a5.85,5.85,0,1,0-5.83,5.71A5.65,5.65,0,0,0,52.05,144.41Zm-9.49,0a3.68,3.68,0,0,1,3.66-4c2.18,0,3.6,1.73,3.6,4a3.67,3.67,0,0,1-3.6,4C44,148.39,42.56,146.67,42.56,144.41Z"></path><path class="cls-1" d="M68.7,144.41a5.85,5.85,0,1,0-5.84,5.71A5.65,5.65,0,0,0,68.7,144.41Zm-9.49,0a3.67,3.67,0,0,1,3.65-4c2.18,0,3.61,1.73,3.61,4a3.67,3.67,0,0,1-3.61,4C60.6,148.39,59.21,146.67,59.21,144.41Z"></path><polygon class="cls-1" points="73.45 148.23 73.45 149.91 79.32 149.91 79.32 148.23 77.5 148.23 77.5 146.77 79.73 144.94 82.63 148.23 81.21 148.23 81.21 149.91 86.58 149.91 86.58 148.23 85.33 148.23 81.21 143.72 84.99 140.6 86.3 140.6 86.3 138.92 80.97 138.92 80.97 140.6 82.63 140.6 77.5 144.85 77.5 140.6 79.32 140.6 79.32 138.92 73.45 138.92 73.45 140.6 75.37 140.6 75.37 148.23 73.45 148.23"></polygon><polygon class="cls-1" points="90.78 148.23 90.78 149.91 96.78 149.91 96.78 148.23 94.84 148.23 94.84 140.6 96.78 140.6 96.78 138.92 90.78 138.92 90.78 140.6 92.71 140.6 92.71 148.23 90.78 148.23"></polygon><polygon class="cls-1" points="101.41 148.23 101.41 149.91 107.22 149.91 107.22 148.23 105.33 148.23 105.33 141.82 112.66 150.02 113.76 150.01 113.76 140.6 115.62 140.6 115.62 138.92 109.88 138.92 109.88 140.6 111.81 140.6 111.81 146.35 105.33 138.92 101.41 138.92 101.41 140.6 103.33 140.6 103.33 148.23 101.41 148.23"></polygon><path class="cls-1" d="M126,140.38a4.12,4.12,0,0,1,3.65,2.17l1.36-.09v-3.54h-1.86v1.15a5.21,5.21,0,0,0-3.67-1.38,5.53,5.53,0,0,0-5.44,5.72c0,3.29,2.34,5.72,6,5.72a7.54,7.54,0,0,0,5-1.71v-4.29h-5.14v1.58h3.24v1.8a5,5,0,0,1-3.06.89,4,4,0,0,1,0-8Z"></path><path class="cls-1" d="M147.42,29.33c-7.56-9.8-20.29-14.76-33.22-12.95a33.36,33.36,0,0,0-4,.81C103.33,6.7,90.7,0,77.57,0S51.82,6.7,45,17.19a33.74,33.74,0,0,0-4-.81C28,14.56,15.29,19.53,7.73,29.33A36.37,36.37,0,0,0,1.79,62.94c3.5,10.58,11.86,18.71,23.12,22.6V98.83a3.43,3.43,0,0,0,.06.56c-.25,2.57,2.89,5.12,5.3,2.53a6.63,6.63,0,0,1,4.66-2.29c3.18,0,5.46,1.78,7.71,4L37.5,118.26a13.38,13.38,0,0,0-6.63-2.1C26.2,116,20.79,118.35,19.48,124a10,10,0,0,0-.23,2.24c0,5.37,4.85,8.69,10.5,8.69a13.16,13.16,0,0,0,10.88-5.42,13.85,13.85,0,0,0,18.52,1.15,9.53,9.53,0,0,0,7.47,3.24c3.64,0,7-1.4,8.92-4.76a10.83,10.83,0,0,0,2.8.37,11.09,11.09,0,0,0,4.48-.94,6,6,0,0,0,6.16,5.1c3.31,0,4.85-1.54,7.93-5.09l1.73-2.1a7.44,7.44,0,0,0,5.83,2.42,9.12,9.12,0,0,0,3.26-.58c1.76,3.4,6,5.44,11.16,5.44a17.37,17.37,0,0,0,17-12.18c1.26-3.74-4.67-4.35-5.65-1.08a11.72,11.72,0,0,1-10.92,7.7c-3.41,0-5.56-1.72-5.56-3.87A3.35,3.35,0,0,1,114,123l.37-.88a9.27,9.27,0,0,0,4.9,1.4,9.53,9.53,0,0,0,9.24-6.87,10,10,0,0,0,.38-2.56c0-4.44-3.5-7.85-8.78-7.85a10.32,10.32,0,0,0-9.85,7.1l-2.75,8,0,.09a3.35,3.35,0,0,1-2.91,1.83,2.13,2.13,0,0,1-2.33-2.25,4.32,4.32,0,0,1,.23-1.26c1.07-2,1.68-3,2.75-4.9,2.62-4.62,1.59-9-3.31-8.4s-8.73,9.52-6.67,14.47l-2.57,3.88c-.89,1.3-3.18,4-3.18,2.52a5,5,0,0,1,.19-1.36L93.18,111c1.35-5.93-5.93-6-6.82-1.64l-2.31,10.28c-1.1,2.56-3.12,4.29-5.66,4.29a2.94,2.94,0,0,1-.66,0,8.88,8.88,0,0,0-.19-1.59,3.79,3.79,0,0,0,.94-1A25.85,25.85,0,0,0,81,113.59c.33-4.76-3.92-7.94-9-7.94a10.44,10.44,0,0,0-10,6.59l-3.78,10.41c-.06.2-.11.4-.17.6A7.68,7.68,0,0,1,51.18,127c-3.22,0-5.09-2.2-7.38-4.48l4.76-14a8.41,8.41,0,0,0,5.51,2.1c4.58,0,8.78-4.34,8.87-9.48.14-5.36-3.73-8.63-7.79-8.63a11.38,11.38,0,0,0-9.67,4.85,13.8,13.8,0,0,0-9.89-4.15,14.66,14.66,0,0,0-4.08.52V83.12a3.3,3.3,0,0,0-2.4-3.18c-10.49-3-18-9.73-21-19.08A29.71,29.71,0,0,1,13,33.36C19,25.55,29.6,21.45,40,22.91c.63.09,1.26.2,1.87.32-3.14,8.19-2.46,17,2.07,25.31s11.46,9.63,16.37,7.32c5.78-2.71,9.56-10.67,5.6-20.62A29.78,29.78,0,0,0,51.37,19.57c5.76-7.85,16-13,26.2-13s20.45,5.12,26.21,13A29.78,29.78,0,0,0,89.21,35.24c-4,9.95-.18,17.91,5.6,20.62,4.91,2.31,11.87.94,16.37-7.32s5.21-17.12,2.07-25.31c.61-.12,1.23-.23,1.87-.32,10.42-1.46,21,2.64,27.07,10.45a29.71,29.71,0,0,1,4.9,27.5C144,70.21,136.52,77,126,79.94a3.3,3.3,0,0,0-2.4,3.18V98.83a3.3,3.3,0,0,0,6.6,0V85.54c11.26-3.89,19.61-12,23.11-22.6A36.34,36.34,0,0,0,147.42,29.33ZM29.57,129a2.78,2.78,0,0,1-2.95-2.85,3.27,3.27,0,0,1,.1-1A4.38,4.38,0,0,1,31,122a6.47,6.47,0,0,1,4.44,2C34,127.41,31.71,129,29.57,129ZM117.17,114a3.22,3.22,0,0,1,2.75-2.24,2.2,2.2,0,0,1,2.15,2.38,3.14,3.14,0,0,1-.19,1.12c-.75,2.47-3.92,2.47-5.69,1.54Zm-45.27-2.8a2.2,2.2,0,0,1,2.38,2.05,14.6,14.6,0,0,1-.89,3.41,6.51,6.51,0,0,0-.33,1.17,4.49,4.49,0,0,0-4.85,4.62,4,4,0,0,0,1.73,3.17.15.15,0,0,0,0,.1,3.72,3.72,0,0,1-3.36,2.56c-3.08,0-2.19-3.36-1.82-4.43.65-2.1,1.87-5.42,3.92-10.22A3.41,3.41,0,0,1,71.9,111.21ZM54.49,99.4a1.78,1.78,0,0,1,2,1.63,2.32,2.32,0,0,1-2.66,2.76,3.86,3.86,0,0,1-2.57-1.68C52.06,100.24,53.28,99.4,54.49,99.4Zm5.32-61.72c2.42,6.1.64,10.84-2.27,12.21-2.62,1.23-5.6-.5-7.78-4.5-3.6-6.61-4.12-13.61-1.58-20.07A23,23,0,0,1,59.81,37.68Zm45.58,7.71c-2.18,4-5.16,5.73-7.78,4.5-2.91-1.37-4.7-6.11-2.27-12.21A23,23,0,0,1,107,25.32C109.51,31.78,109,38.78,105.39,45.39Z"></path><path class="cls-2" d="M77.57,73.33a6.45,6.45,0,1,0-9.12,9.11l9.12,9.12,9.12-9.12a6.45,6.45,0,1,0-9.12-9.11Z"></path><path class="cls-1" d="M130.12,154.19,113,155.84a3.17,3.17,0,0,0-2.88,3.16v4H64.49V161.7L28.07,160a6.13,6.13,0,1,0,0,12.24l36.42-1.68v-1.34h45.62v4.05a3.19,3.19,0,0,0,2.88,3.16l17.13,1.64a3.17,3.17,0,0,0,3.48-3.16V157.35A3.17,3.17,0,0,0,130.12,154.19Zm0,18.06a1.2,1.2,0,0,1-1.29,1.2l-11.24-.8a1.21,1.21,0,0,1,.13-2.41l11.25.47a1.21,1.21,0,0,1,1.15,1.21Zm0-5.94a1.2,1.2,0,0,1-1.22,1.21l-11.24-.16a1.21,1.21,0,0,1-1.19-1.21h0a1.2,1.2,0,0,1,1.19-1.2l11.24-.17a1.21,1.21,0,0,1,1.22,1.21Zm0-5.94a1.21,1.21,0,0,1-1.15,1.21l-11.25.47a1.21,1.21,0,0,1-.13-2.41l11.24-.8a1.2,1.2,0,0,1,1.29,1.21Z"></path><path class="cls-1" d="M127.19,182.49l-36.42,1.67v1.91c-2.1-1.44-6.88-3.34-17.74-5.6-11.34-2.36-23.78-3.82-32.47-3.82-9.53,0-14.71,1.12-17.3,3.73-2.12,2.14-2.1,4.81-2.07,7.39v0a5,5,0,0,0,0,.55v.54a5,5,0,0,0,0,.55h0c0,2.58-.05,5.25,2.07,7.39,2.59,2.62,7.77,3.73,17.3,3.73,8.69,0,21.13-1.46,32.47-3.82,10.86-2.26,15.64-4.15,17.74-5.6v1.92l36.42,1.67a6.13,6.13,0,0,0,6.41-6.12h0A6.13,6.13,0,0,0,127.19,182.49Zm-102.7,6.89v-1.55h0c.57-.51,3.46-1.32,16.07-1.32,12.91,0,30.16,1.07,40.51,2.11-10.35,1-27.6,2.1-40.51,2.1-12.61,0-15.5-.81-16.07-1.32ZM40.56,180c11.72,0,27.35,2.5,37.74,5.08-1.63-.14-3.44-.29-5.48-.44-11.28-.86-23.64-1.39-32.26-1.39-8.79,0-13.31.35-15.81,1a3.41,3.41,0,0,1,.85-1.5C27.44,180.85,32.33,180,40.56,180Zm0,17.31c-8.23,0-13.12-.9-15-2.75a3.36,3.36,0,0,1-.85-1.5c2.5.66,7,1,15.81,1,8.62,0,21-.53,32.26-1.38l5.48-.44C67.91,194.76,52.27,197.26,40.56,197.26Z"></path></g></g></svg>