<svg xmlns="http://www.w3.org/2000/svg" viewBox="0 0 288.11 278.31"><defs><style>.cls-1{fill:#272525;}</style></defs><g id="Layer_2" data-name="Layer 2"><g id="Object"><path class="cls-1" d="M117,150.06c2.48,8.05,8.84,13.29,16.36,15.71a25.12,25.12,0,0,0,19.65.14c7.79-2.37,14.38-7.76,16.8-16.17a2.53,2.53,0,0,0,.06-1.18,3.38,3.38,0,0,0-5.29-2.55,2.3,2.3,0,0,0-1.29,1.56A21.1,21.1,0,0,1,151,161.33a28.41,28.41,0,0,1-4.22.85,3.49,3.49,0,0,0,.09-.82V140.49h9c4,0,4-6.29,0-6.29h-9v-7.48a10.49,10.49,0,0,0,7.11-8.94,3,3,0,0,0,.07-.81,3.06,3.06,0,0,0-.07-.82,10.2,10.2,0,1,0-13.39,10.49v7.56h-8.2c-4,0-4,6.29,0,6.29h8.2v20.87a3.71,3.71,0,0,0,.12.91,27.37,27.37,0,0,1-4.78-.87A21,21,0,0,1,123.56,148a2.59,2.59,0,0,0-.34-.73,3.39,3.39,0,0,0-6.4,1.55,3.21,3.21,0,0,0,.06.63A3,3,0,0,0,117,150.06ZM139.91,117c0-5.1,7.67-5.07,7.88,0C147.58,122,139.91,122.06,139.91,117Z"></path><path class="cls-1" d="M147.59,256.13V231.5A93.67,93.67,0,0,0,207,206.7l17.76,17.76,5.19-5.19-17.75-17.75a93.58,93.58,0,0,0,25-60.23h23.85V134H237.26a93.58,93.58,0,0,0-24.67-59.81L227.69,59l-5.19-5.19L207.42,68.93a93.55,93.55,0,0,0-59.83-25.18V22.19h-7.34V43.71A93.62,93.62,0,0,0,79.47,68.78L64.54,53.85,59.35,59,74.29,74a93.69,93.69,0,0,0-24.82,60H27v7.34H49.47a93.58,93.58,0,0,0,25.21,60.38l-17.6,17.6,5.19,5.19,17.62-17.61a93.62,93.62,0,0,0,60.36,24.69v24.59Zm0-43V191.8A54.19,54.19,0,0,0,179,178.65L194,193.72A75.31,75.31,0,0,1,147.59,213.12Zm51.64-24.58-15.07-15.07a54.06,54.06,0,0,0,13.42-32.18H218.9A75.31,75.31,0,0,1,199.23,188.54ZM218.9,134H197.58a54.1,54.1,0,0,0-13-31.75l15.07-15.07A75.4,75.4,0,0,1,218.9,134ZM147.59,62.12a75.36,75.36,0,0,1,46.85,19.79L179.38,97a54.15,54.15,0,0,0-31.79-13.52Zm-4.22,28.51a47,47,0,1,1-47,47A47,47,0,0,1,143.37,90.63Zm-3.12-28.56V83.38a54.11,54.11,0,0,0-32.73,13.45L92.45,81.76A75.35,75.35,0,0,1,140.25,62.07ZM87.27,87,102.34,102A54.13,54.13,0,0,0,89.16,134H67.84A75.35,75.35,0,0,1,87.27,87ZM67.84,141.29H89.16a54.08,54.08,0,0,0,13.56,32.34L87.66,188.69A75.34,75.34,0,0,1,67.84,141.29Zm25,52.57,15.07-15.07a54.13,54.13,0,0,0,32.31,13.08v21.3A75.34,75.34,0,0,1,92.87,193.86Z"></path><path d="M.27,134.82l.06-3.65,13.85,4.11-.06,3.89-8.86,2.29L14,144,14,147.9,0,151.62.06,148l10-2.26-10-2.64.06-3.84L10.09,137Z"></path><path d="M2.15,118.92l.5-3.35,13.76,2.07-.5,3.35-5.71-.86-.8,5.31,5.71.86-.51,3.35L.85,127.59l.5-3.36,5.51.83.79-5.31Z"></path><path d="M5.76,102.86l2.49.65L7,108.38l2.89.75L11,104.84l2.49.64-1.11,4.3,3.12.81,1.27-4.87,2.49.65-2.11,8.15L3.64,111Z"></path><path d="M16.25,98.29l5.08,1.87-1.17,3.18L7.1,98.54,9,93.39a5.39,5.39,0,0,1,2.47-3.11,4,4,0,0,1,3.3-.22,4.4,4.4,0,0,1,2,1.5,4,4,0,0,1,.7,2.81l6.49-1.25-1.36,3.72-6.16,1.08Zm-5.56-2,3.14,1.15.73-2a1.62,1.62,0,0,0,0-1.3,1.65,1.65,0,0,0-1-.83,1.67,1.67,0,0,0-1.3,0,1.59,1.59,0,0,0-.87,1Z"></path><path d="M16.1,77.1l2.32,1.12-2.19,4.53,2.7,1.3,1.93-4,2.32,1.12-1.93,4,2.91,1.4L26.35,82l2.32,1.12L25,90.75,12.44,84.68Z"></path><path d="M15.45,72.72l1.27-2.26a7.7,7.7,0,0,1,2.34.87A3.06,3.06,0,0,1,20.52,73a2.57,2.57,0,0,1-.31,2.21l-1.12-.64c.34-.59.13-1.11-.63-1.54l-.28-.15-.61,1.08Z"></path><path d="M25.74,65.77a1.57,1.57,0,0,0-.29,1,1.2,1.2,0,0,0,.59.88A1.44,1.44,0,0,0,27.1,68a2.49,2.49,0,0,0,1-.49c.34-.26.7-.56,1.08-.91a14.43,14.43,0,0,1,1.19-1,6.54,6.54,0,0,1,1.29-.75,3,3,0,0,1,1.48-.2,3.75,3.75,0,0,1,1.65.64,3.9,3.9,0,0,1,1.73,2.87,5.51,5.51,0,0,1-1,3.85,6,6,0,0,1-3,2.54A3.84,3.84,0,0,1,29,73.94l2-3a1.57,1.57,0,0,0,2.33-.5,1.63,1.63,0,0,0,.31-1.17,1.29,1.29,0,0,0-.59-.89,1.31,1.31,0,0,0-1-.22,2.55,2.55,0,0,0-1,.49,13.53,13.53,0,0,0-1.08.9,12.84,12.84,0,0,1-1.21,1,6.54,6.54,0,0,1-1.29.75,2.76,2.76,0,0,1-1.47.21,3.73,3.73,0,0,1-1.63-.63,3.82,3.82,0,0,1-1.8-2.93,5.7,5.7,0,0,1,1.06-3.72,6,6,0,0,1,2.86-2.47,3.86,3.86,0,0,1,3.49.57l-2,3.07a1.84,1.84,0,0,0-1.23-.23A1.41,1.41,0,0,0,25.74,65.77Z"></path><path d="M43.38,58a7.32,7.32,0,0,1-7.51-6.92,7,7,0,0,1,2-5.1,6.94,6.94,0,0,1,10-.4,6.82,6.82,0,0,1,2.36,5A7.34,7.34,0,0,1,43.38,58ZM47,50.85a4.73,4.73,0,0,0-4.29-4,3.83,3.83,0,0,0-3.62,3.93,4.74,4.74,0,0,0,4.28,4A3.43,3.43,0,0,0,46,53.56,3.5,3.5,0,0,0,47,50.85Z"></path><path d="M51.08,44.54l-5.4-6.31L48.25,36l5.4,6.3a2.73,2.73,0,0,0,1.72,1.06,2.28,2.28,0,0,0,1.81-.66,2.39,2.39,0,0,0,1-1.7,2.7,2.7,0,0,0-.77-1.87L52,32.86l2.58-2.21L59.93,37a5.77,5.77,0,0,1,1.42,3,5.22,5.22,0,0,1-.39,2.9,6.63,6.63,0,0,1-1.77,2.33,5.89,5.89,0,0,1-4.08,1.52A5.46,5.46,0,0,1,51.08,44.54Z"></path><path d="M65.82,33l3.05,4.47-2.79,1.91L58.22,27.86l4.54-3.1a5.37,5.37,0,0,1,3.81-1.09,4,4,0,0,1,2.81,1.73,4.28,4.28,0,0,1,.73,2.36A4,4,0,0,1,69,30.45l6,2.76-3.27,2.23-5.64-2.69Zm-3.34-4.89,1.89,2.76,1.73-1.18a1.61,1.61,0,0,0,.75-1.07,1.65,1.65,0,0,0-.31-1.24,1.68,1.68,0,0,0-1.06-.75,1.62,1.62,0,0,0-1.27.29Z"></path><path d="M85.07,12.27l3.07-1.43,5.92,12.63L91,24.91l-8.86-5.55,3.72,8-3.07,1.44L76.87,16.11l3.07-1.43,8.85,5.55Z"></path><path d="M100.49,6.44l.84,2.43-4.76,1.64,1,2.83,4.2-1.44.84,2.43-4.2,1.45,1.05,3,4.76-1.63.84,2.43-8,2.74L92.52,9.18Z"></path><path d="M116.7,2.39,114,10.18l5.84,5.76-3.75.87-3.4-3.36-1.38,4.48-3.75.87L110.24,11,104.4,5.24l3.75-.87,3.41,3.38L113,3.26Z"></path><path d="M120.17,4.43l-.32-2.56L130.75.52l.32,2.56-3.78.47,1.39,11.25-3.36.41L123.93,4Z"></path><path d="M146.37.15a7.82,7.82,0,0,1,5.41,2.09,6.43,6.43,0,0,1,2,5.07,6.44,6.44,0,0,1-2.29,5A7.75,7.75,0,0,1,146,14.05l-4.89-.14L141.48,0Zm-1.84,11.28,1.51.05a4,4,0,0,0,3.08-1.1,4.51,4.51,0,0,0,1.21-3.16,4.47,4.47,0,0,0-1-3.22,4,4,0,0,0-3-1.28l-1.51,0Z"></path><path d="M166.1,1.87l-.34,2.55-5-.66-.39,3,4.4.58-.34,2.55L160,9.28l-.42,3.2,5,.66-.34,2.56-8.35-1.11L157.75.76Z"></path><path d="M174.58,6.15a1.59,1.59,0,0,0-1.09.1,1.19,1.19,0,0,0-.62.85A1.41,1.41,0,0,0,173,8.18a2.33,2.33,0,0,0,.82.8c.36.23.77.46,1.22.69s.9.5,1.34.78a6.32,6.32,0,0,1,1.15,1,2.88,2.88,0,0,1,.71,1.31,3.8,3.8,0,0,1,0,1.77,3.86,3.86,0,0,1-2.08,2.62,5.5,5.5,0,0,1-4,.38,6,6,0,0,1-3.43-2,3.83,3.83,0,0,1-.68-3.45l3.51.81a1.57,1.57,0,0,0,1.29,2,1.63,1.63,0,0,0,1.21-.12,1.27,1.27,0,0,0,.62-.86,1.3,1.3,0,0,0-.15-1,2.51,2.51,0,0,0-.82-.8,13.23,13.23,0,0,0-1.22-.7,12.92,12.92,0,0,1-1.33-.79A7.31,7.31,0,0,1,170,9.65a3,3,0,0,1-.7-1.31,3.58,3.58,0,0,1,0-1.75,3.79,3.79,0,0,1,2.11-2.71,5.71,5.71,0,0,1,3.87-.3,6,6,0,0,1,3.31,1.81,3.88,3.88,0,0,1,.68,3.47L175.71,8a1.9,1.9,0,0,0-.21-1.24A1.44,1.44,0,0,0,174.58,6.15Z"></path><path d="M182.83,8.31l.82-2.44,10.4,3.52-.82,2.44-3.61-1.22L186,21.35l-3.21-1.09,3.63-10.74Z"></path><path d="M191.73,23.54l5.43-12.81,3.12,1.32-5.43,12.81Z"></path><path d="M212.42,18l3,1.59-6.54,12.32-3-1.59L205,19.92l-4.12,7.75-3-1.59,6.54-12.32,3,1.59.89,10.41Z"></path><path d="M218.83,38.62l.7-2.37-4.11-2.83-2,1.48-3-2,11.91-8.73,3.39,2.34-4,14.22Zm-1.25-6.84,2.71,1.87,1.46-5Z"></path><path d="M229.89,32.69l1.67-1.95,8.35,7.13-1.67,2-2.89-2.48L228,46l-2.57-2.2,7.36-8.62Z"></path><path d="M232.51,50.14l9.79-9.88,2.41,2.38-9.79,9.89Z"></path><path d="M239.53,54.52a7.33,7.33,0,0,1,7.79-6.61,7,7,0,0,1,4.82,2.57,7.13,7.13,0,1,1-12.61,4ZM246.21,59a4.73,4.73,0,0,0,4.44-3.77,3.82,3.82,0,0,0-3.46-4.08,4.12,4.12,0,0,0-2.87,1.12,4.18,4.18,0,0,0-1.58,2.65A3.84,3.84,0,0,0,246.21,59Z"></path><path d="M264,66.84l1.87,2.83-11.66,7.68-1.86-2.83L256.55,65l-7.34,4.83L247.35,67,259,59.28l1.87,2.83-4.22,9.56Z"></path><path d="M257.42,83.46A1.85,1.85,0,0,1,257.3,82a1.84,1.84,0,0,1,.93-1.08,1.85,1.85,0,0,1,1.42-.12,1.87,1.87,0,1,1-2.23,2.62Zm11.34-8.3a4.61,4.61,0,0,1,2.62,2.47,5.16,5.16,0,0,1,.56,3.63,4,4,0,0,1-2.23,2.63,3.51,3.51,0,0,1-3.13.31,5.34,5.34,0,0,1-2.34-2.51l-1.68.85-1.45-2.84,3.64-1.85.61,1.18a5.32,5.32,0,0,0,1.35,1.87,1.36,1.36,0,0,0,1.55,0,1.5,1.5,0,0,0,.79-.84,1.37,1.37,0,0,0-.11-1.14,1.44,1.44,0,0,0-.85-.77,1.55,1.55,0,0,0-1.15.16l-1.45-2.85A4,4,0,0,1,268.76,75.16Z"></path><path d="M277,93.33l1.1,3.21-10.71,3.69,1.37,4-2.44.84-2.47-7.19Z"></path><path d="M282.56,111.89l-2.49.63-1.24-4.88-2.9.74,1.09,4.3-2.5.63-1.09-4.3-3.13.79,1.24,4.88-2.5.64L267,107.15l13.53-3.43Z"></path><path d="M280.74,115.74l2.55-.4L285,126.19l-2.55.4-.58-3.76-11.2,1.75-.53-3.35,11.21-1.75Z"></path><path d="M287.89,128.56l.22,2.59a7.91,7.91,0,0,1-2.41.61,3.08,3.08,0,0,1-2.13-.52,2.6,2.6,0,0,1-1-2l1.28-.12c.06.69.52,1,1.39.92l.32,0-.11-1.25Z"></path><path d="M283.34,140.13a1.51,1.51,0,0,0-.35-1,1.18,1.18,0,0,0-1-.39,1.42,1.42,0,0,0-1,.39,2.4,2.4,0,0,0-.58,1c-.13.4-.26.85-.37,1.35s-.26,1-.43,1.48a6,6,0,0,1-.64,1.35,2.91,2.91,0,0,1-1.1,1,3.84,3.84,0,0,1-1.73.4,3.9,3.9,0,0,1-3-1.38,5.5,5.5,0,0,1-1.32-3.76,5.91,5.91,0,0,1,1.06-3.8,3.79,3.79,0,0,1,3.18-1.5l.07,3.61a1.57,1.57,0,0,0-1.64,1.73,1.63,1.63,0,0,0,.41,1.14,1.24,1.24,0,0,0,1,.4,1.33,1.33,0,0,0,1-.39,2.68,2.68,0,0,0,.58-1c.14-.41.26-.86.38-1.36a13.18,13.18,0,0,1,.44-1.48,6.48,6.48,0,0,1,.64-1.35,2.81,2.81,0,0,1,1.09-1,3.66,3.66,0,0,1,1.71-.4,3.76,3.76,0,0,1,3.13,1.39,5.68,5.68,0,0,1,1.24,3.67,6,6,0,0,1-.95,3.66,3.91,3.91,0,0,1-3.2,1.5l-.06-3.69a1.89,1.89,0,0,0,1.15-.5A1.43,1.43,0,0,0,283.34,140.13Z"></path><path d="M272.41,155.27a6.77,6.77,0,0,1,5.4-1.08,6.85,6.85,0,0,1,4.62,3,7,7,0,0,1,1,5.35,7.12,7.12,0,0,1-2,3.82,6.45,6.45,0,0,1-3.82,1.84l.76-4a2.66,2.66,0,0,0,2-2.2,3.56,3.56,0,0,0-.55-2.9,4.74,4.74,0,0,0-5.73-1.09,3.44,3.44,0,0,0-1.57,2.43,3.09,3.09,0,0,0,.22,2.05,2.91,2.91,0,0,0,1.4,1.3l.73-3.85,2.53.48L276,167.87l-2.53-.48a6.78,6.78,0,0,1-3.09-2.71,6.13,6.13,0,0,1-.89-2.22,6.69,6.69,0,0,1,0-2.6A7,7,0,0,1,272.41,155.27Z"></path><path d="M269.15,170.46a7.34,7.34,0,0,1,9.73,3.12,7,7,0,0,1,.36,5.45,7,7,0,0,1-3.46,4.2,7.38,7.38,0,0,1-9.72-3.13,7.35,7.35,0,0,1,3.09-9.64Zm-.27,8a4.16,4.16,0,0,0,2.47,1.84,4.11,4.11,0,0,0,3.08-.07,3.8,3.8,0,0,0,1.63-5.09,4.09,4.09,0,0,0-2.47-1.84,4.17,4.17,0,0,0-3.08.06,3.84,3.84,0,0,0-1.63,5.1Z"></path><path d="M263.14,187.13a1.84,1.84,0,0,1-1-2.43,1.77,1.77,0,0,1,1-1,1.88,1.88,0,0,1,2.43,1,1.76,1.76,0,0,1,0,1.42,1.82,1.82,0,0,1-2.42,1Z"></path><path d="M265.33,204.21a1.6,1.6,0,0,0,.22-1.08,1.21,1.21,0,0,0-.64-.83,1.41,1.41,0,0,0-1.08-.17,2.52,2.52,0,0,0-1,.56c-.32.28-.65.61-1,1s-.72.72-1.12,1.06a6.88,6.88,0,0,1-1.24.83,2.9,2.9,0,0,1-1.46.3,3.62,3.62,0,0,1-1.69-.52,3.89,3.89,0,0,1-1.92-2.74,5.55,5.55,0,0,1,.77-3.92A5.92,5.92,0,0,1,258,196a3.8,3.8,0,0,1,3.5.33l-1.78,3.14a1.57,1.57,0,0,0-2.29.66,1.62,1.62,0,0,0-.23,1.19,1.32,1.32,0,0,0,.65.85,1.36,1.36,0,0,0,1,.15,2.65,2.65,0,0,0,1-.56,13.05,13.05,0,0,0,1-1,12.53,12.53,0,0,1,1.13-1,6.78,6.78,0,0,1,1.24-.84,3,3,0,0,1,1.45-.31,4.08,4.08,0,0,1,3.67,3.31,5.72,5.72,0,0,1-.8,3.8,6.06,6.06,0,0,1-2.68,2.66,3.88,3.88,0,0,1-3.52-.33l1.82-3.21a1.88,1.88,0,0,0,1.25.15A1.41,1.41,0,0,0,265.33,204.21Z"></path><path d="M246,212.94l2.36.73,2.9-4.06-1.45-2,2.1-2.93,8.53,12.05-2.4,3.35-14.15-4.2Zm6.86-1.14L251,214.48l5,1.55Z"></path><path d="M238,222.53l2.26-2.53,3.34,3,10.24,2.7-2.56,2.87-6.47-2.2,2.91,6.17-2.56,2.87-3.82-9.88Z"></path><path d="M223.22,236.28l2.63-2.15,2.83,3.47,9.7,4.26-3,2.43-6-3.17,1.91,6.55-3,2.43-2.24-10.35Z"></path><path d="M218.5,256.73l-1.43-2.15,4.19-2.79-1.65-2.49-3.7,2.46-1.43-2.14,3.7-2.46-1.79-2.69-4.19,2.78-1.43-2.14,7-4.67,7.72,11.62Z"></path><path d="M209.31,259.07a1.61,1.61,0,0,0,.76-.79,1.2,1.2,0,0,0-.1-1,1.4,1.4,0,0,0-.82-.72,2.39,2.39,0,0,0-1.14-.06c-.42.07-.88.16-1.38.29a14.91,14.91,0,0,1-1.51.29,6.93,6.93,0,0,1-1.5.05,3,3,0,0,1-1.39-.53,3.78,3.78,0,0,1-1.15-1.35,3.86,3.86,0,0,1-.16-3.34,5.54,5.54,0,0,1,2.75-2.9,6,6,0,0,1,3.87-.79,3.87,3.87,0,0,1,2.78,2.16l-3.18,1.7a1.57,1.57,0,0,0-2.29-.67,1.62,1.62,0,0,0-.83.89,1.28,1.28,0,0,0,.09,1.06,1.35,1.35,0,0,0,.79.68,2.71,2.71,0,0,0,1.15.06c.42-.06.88-.16,1.38-.28a12.37,12.37,0,0,1,1.52-.28,6.86,6.86,0,0,1,1.49-.05,2.83,2.83,0,0,1,1.39.52,3.59,3.59,0,0,1,1.14,1.33,3.79,3.79,0,0,1,.19,3.43,5.69,5.69,0,0,1-2.7,2.77,6,6,0,0,1-3.69.82,3.91,3.91,0,0,1-2.8-2.16l3.25-1.74a1.86,1.86,0,0,0,1,.79A1.41,1.41,0,0,0,209.31,259.07Z"></path><path d="M195.33,265.62l.87,2.42-10.35,3.69-.86-2.42,3.58-1.28-3.81-10.68,3.19-1.14,3.81,10.68Z"></path><path d="M178.25,261.43a7.36,7.36,0,0,1,2.36,9.95,7,7,0,0,1-4.47,3.12,6.92,6.92,0,0,1-5.39-.79,7.38,7.38,0,0,1-2.35-9.94,7.37,7.37,0,0,1,9.85-2.34Zm-7,3.93a4.75,4.75,0,0,0,1.34,5.67,3.83,3.83,0,0,0,5.21-1.24,4.74,4.74,0,0,0-1.35-5.67,3.82,3.82,0,0,0-5.2,1.24Z"></path><path d="M149.15,278.1l-3.38.21-.86-13.92,3.38-.21,6.2,8.41-.54-8.76,3.38-.21.86,13.92-3.38.21-6.2-8.41Z"></path><path d="M132.71,277.9l.11-2.57,5,.21.12-3-4.44-.19.11-2.57,4.44.18.13-3.22-5-.21.11-2.58,8.42.35-.59,13.94Z"></path><path d="M112.66,275.09l-3.6-.61,6.14-13.07,3.83.64.94,9.1,3.85-8.29,3.83.64,1.58,14.38-3.57-.6L124.93,267l-4.1,9.45-3.79-.63-.71-10.11Z"></path><path d="M95.34,255.2l-.09,2.46,4.69,1.73,1.53-1.93,3.39,1.25-9.37,11.42-3.87-1.43.31-14.76Zm2.91,6.31-3.09-1.14L95,265.59Z"></path><path d="M79.61,263.37a7.85,7.85,0,0,1-4-4.19,6.43,6.43,0,0,1,.34-5.44,6.5,6.5,0,0,1,4.18-3.53,7.86,7.86,0,0,1,5.76.73l4.37,2.21L84,265.57Zm6.45-9.45-1.34-.68a4,4,0,0,0-3.26-.31,5.15,5.15,0,0,0-2.88,5.7,4,4,0,0,0,2.19,2.43l1.35.68Z"></path><path d="M74.08,244.33l-3.51,14.33-3-2,2.94-10.75-8.7,7-3-2L70.54,242Z"></path><path d="M49.65,243.58l1.63-2,3.9,3.18,1.89-2.33-3.44-2.8,1.62-2,3.45,2.8,2-2.5-3.9-3.18,1.62-2L65,238.07l-8.8,10.82Z"></path><path d="M39.77,234.15l-2.39-2.4,9.89-9.84,2.39,2.4-2.22,10.21,6.22-6.2,2.39,2.4-9.88,9.85-2.4-2.4L46,228Z"></path><path d="M37,227.3l-2,1.61-6.87-8.56,2-1.61,2.38,3,8.84-7.09,2.12,2.65-8.84,7.09Z"></path><path d="M32.92,212.9l-7,4.5-1.83-2.85,7-4.5a2.79,2.79,0,0,0,1.29-1.55,2.33,2.33,0,0,0-.41-1.88,2.38,2.38,0,0,0-1.55-1.17,2.66,2.66,0,0,0-2,.5l-7,4.5-1.83-2.85,7-4.5a5.8,5.8,0,0,1,3.14-1,5.24,5.24,0,0,1,2.83.77A6.71,6.71,0,0,1,34.64,205a5.85,5.85,0,0,1,.94,4.25A5.39,5.39,0,0,1,32.92,212.9Z"></path><path d="M23.47,196.73l4.84-2.42,1.52,3-12.46,6.2-2.44-4.91a5.36,5.36,0,0,1-.57-3.93,4,4,0,0,1,2.1-2.55,4.29,4.29,0,0,1,2.44-.39,4,4,0,0,1,2.52,1.42L25,187.61l1.77,3.55-3.44,5.21Zm-5.3,2.64,3-1.49L20.23,196a1.64,1.64,0,0,0-.95-.89,1.6,1.6,0,0,0-1.27.14,1.65,1.65,0,0,0-.89.95,1.6,1.6,0,0,0,.11,1.29Z"></path><path d="M8,182.29l2.41-.92,1.8,4.7L15,185l-1.58-4.15,2.41-.92,1.58,4.15,3-1.15-1.8-4.71,2.41-.91,3,7.86-13,5Z"></path><path d="M7.27,171.85a1.67,1.67,0,0,0,.6.91,1.21,1.21,0,0,0,1,.14,1.42,1.42,0,0,0,.88-.64,2.53,2.53,0,0,0,.32-1.1c0-.43,0-.9,0-1.41s0-1,0-1.54a6.84,6.84,0,0,1,.28-1.47,3,3,0,0,1,.82-1.24,3.76,3.76,0,0,1,1.58-.82,3.88,3.88,0,0,1,3.29.58,5.58,5.58,0,0,1,2.22,3.32,6,6,0,0,1-.09,3.95,3.83,3.83,0,0,1-2.71,2.23l-1-3.47a1.76,1.76,0,0,0,.48-3.09,1.31,1.31,0,0,0-1.06-.15,1.39,1.39,0,0,0-.84.62,2.67,2.67,0,0,0-.31,1.11c0,.43,0,.89,0,1.41a13.3,13.3,0,0,1-.06,1.54,7.51,7.51,0,0,1-.29,1.47,2.79,2.79,0,0,1-.81,1.24,3.7,3.7,0,0,1-1.55.82,3.81,3.81,0,0,1-3.38-.57,5.72,5.72,0,0,1-2.11-3.26,6,6,0,0,1,0-3.78,3.85,3.85,0,0,1,2.72-2.24l1,3.55a1.82,1.82,0,0,0-1,.78A1.41,1.41,0,0,0,7.27,171.85Z"></path><path d="M13.93,158.12a1.81,1.81,0,0,1,1.4.27,1.77,1.77,0,0,1,.78,1.19,1.83,1.83,0,0,1-1.46,2.17,1.74,1.74,0,0,1-1.39-.27,1.87,1.87,0,0,1-.52-2.58A1.79,1.79,0,0,1,13.93,158.12Z"></path></g></g></svg>