<svg xmlns="http://www.w3.org/2000/svg" viewBox="0 0 311.29 299.87"><defs><style>.cls-1{fill:#272525;}</style></defs><g id="Layer_2" data-name="Layer 2"><g id="Object"><path class="cls-1" d="M44.56,130.23q4.41-6.33,1.6-14.13a12,12,0,0,0-4.68-6.23,17,17,0,0,0-6.81-2.63,89,89,0,0,0-9.4-.8q-4.75-.15-7.5-.51a13.41,13.41,0,0,1-4.94-1.58,6.68,6.68,0,0,1-3.1-3.74,7.1,7.1,0,0,1,.9-6.93q2.25-3.17,7.94-5.22a15,15,0,0,1,7.27-1,4.86,4.86,0,0,1,4.24,3.25c.12.35.36,1.21.7,2.59a13.46,13.46,0,0,0,.64,2.38,3.5,3.5,0,0,0,2.06,2.1,4.42,4.42,0,0,0,3.26,0,4.31,4.31,0,0,0,2.94-3.45q.49-2.56-1-6.74a11.49,11.49,0,0,0-5-6.27,15.29,15.29,0,0,0-8-2,28.58,28.58,0,0,0-9.37,1.77A30.39,30.39,0,0,0,5.77,87.24,17.59,17.59,0,0,0,.5,95.64,15.43,15.43,0,0,0,1,105a13.22,13.22,0,0,0,5,6.82,18.31,18.31,0,0,0,7.24,2.88,73,73,0,0,0,9.65.78q4.55.16,7.12.46a13,13,0,0,1,4.61,1.41,5.93,5.93,0,0,1,2.85,3.34,6.77,6.77,0,0,1-1.14,6.8q-2.44,3.15-8.07,5.18c-3.61,1.3-6.6,1.83-8.95,1.58a5,5,0,0,1-4.61-3.34,11.86,11.86,0,0,1-.4-1.43,8.61,8.61,0,0,0-.23-1,12.74,12.74,0,0,0-.64-2.38,3.12,3.12,0,0,0-2-2,4.67,4.67,0,0,0-3.24.12,4.41,4.41,0,0,0-3,3.25,10.79,10.79,0,0,0,.74,6q2.47,6.88,9,8.31t15.29-1.73Q40.16,136.57,44.56,130.23Z"></path><path class="cls-1" d="M44.78,103.46a1.47,1.47,0,0,0,1.32.21,1.89,1.89,0,0,0,1.08-1.36A19.31,19.31,0,0,1,49.53,97a6,6,0,0,1,2.68-2.4,1.47,1.47,0,0,1,1.34.12,2.7,2.7,0,0,1,1,1.46,18.22,18.22,0,0,1,.93,3.62c.16,1.16.26,1.87.28,2.13l1.84,13.82a25.61,25.61,0,0,0,1.15,5,8.35,8.35,0,0,0,3.94,4.88q2.67,1.39,6.44,0a11.53,11.53,0,0,0,6.67-6.31q2.19-4.68,2-12.08a60.49,60.49,0,0,0,1.68,6.89,7,7,0,0,0,3.75,4.25,8.42,8.42,0,0,0,6.38-.15,10.07,10.07,0,0,0,4.33-3,18,18,0,0,0,3.13-5.79,4.47,4.47,0,0,0-.14-3.08,3,3,0,0,0-.87-1.36,1.11,1.11,0,0,0-1.12-.21,1.67,1.67,0,0,0-1,1.07,20.5,20.5,0,0,1-2.16,4.47,5.28,5.28,0,0,1-2.54,2,3,3,0,0,1-2.56-.16,4.44,4.44,0,0,1-1.84-2.51,30.3,30.3,0,0,1-1-4q-1.35-6-2.61-13.29-.7-3.77-1.12-5.83a24.12,24.12,0,0,0-.85-3.29,5.22,5.22,0,0,0-1.86-2.78,3,3,0,0,0-2.67-.1c-1.17.42-1.85,1-2,1.75A8.46,8.46,0,0,0,73,85.73a81.94,81.94,0,0,1,2.24,17.66q-.06,7.23-1.78,11.1T69,119.32a3.2,3.2,0,0,1-2.6,0,3.41,3.41,0,0,1-1.63-2,15.55,15.55,0,0,1-.52-1.87c-.13-.64-.24-1.34-.34-2.08s-.17-1.26-.2-1.55l-1.12-8.86c-.29-2.4-.56-4.27-.81-5.63A28.21,28.21,0,0,0,60.58,93a7.33,7.33,0,0,0-3.31-4.33,5.9,5.9,0,0,0-4.87-.12q-6.15,2.22-8.46,10.14a5.86,5.86,0,0,0-.12,3.59A2.28,2.28,0,0,0,44.78,103.46Z"></path><path class="cls-1" d="M126.4,68.3a2.17,2.17,0,0,1,2,.17,4,4,0,0,1,1.45,2.13,12.56,12.56,0,0,1,.52,1.87c.14.64.25,1.33.35,2.07s.16,1.26.2,1.55l1.16,8.85A42.09,42.09,0,0,0,133.78,93a9,9,0,0,0,4.34,5.3,8.32,8.32,0,0,0,6.78.11,10.18,10.18,0,0,0,4.33-3,18.46,18.46,0,0,0,3.13-5.78,4.51,4.51,0,0,0-.15-3.09,3,3,0,0,0-.87-1.36,1.09,1.09,0,0,0-1.11-.21,1.71,1.71,0,0,0-1,1.07,19.41,19.41,0,0,1-2.16,4.47,5.26,5.26,0,0,1-2.53,2,3.37,3.37,0,0,1-2.79-.06,4.25,4.25,0,0,1-1.89-2.51,21,21,0,0,1-.94-4l-1.88-13.8a26.17,26.17,0,0,0-1.15-5,9.08,9.08,0,0,0-3.72-5,6.26,6.26,0,0,0-5.54-.28A10.68,10.68,0,0,0,120.7,67c-1.35,2.52-2,6.11-2,10.77a21.8,21.8,0,0,0-.93-3.82A9.58,9.58,0,0,0,114,68.68a6,6,0,0,0-5.33-.4,10.84,10.84,0,0,0-6,5.41q-2.13,4-2.06,12.27c0-.29-.12-.8-.25-1.53s-.31-1.67-.56-2.82a22.65,22.65,0,0,0-.8-2.93,7.34,7.34,0,0,0-3-4.09,5,5,0,0,0-4.35-.21A10.6,10.6,0,0,0,87,77.93a18.11,18.11,0,0,0-3.13,6.36,9,9,0,0,0-.36,2,4.33,4.33,0,0,0,.24,1.56,2.28,2.28,0,0,0,1,1.2,1.47,1.47,0,0,0,1.32.21,1.83,1.83,0,0,0,1.08-1.35,20,20,0,0,1,2.24-5.09,5.47,5.47,0,0,1,2.38-2.2c1-.35,1.72.14,2.2,1.49a47.14,47.14,0,0,1,1.54,5.52q1.19,5.4,2.55,12.86.7,4,1.2,6.33a28.68,28.68,0,0,0,1,3.67,4.33,4.33,0,0,0,1.73,2.55,3.4,3.4,0,0,0,2.64-.12c1.16-.42,1.84-1,2-1.75a8.51,8.51,0,0,0-.23-3.51,97.54,97.54,0,0,1-2.48-18.48c0-4.76.41-8.25,1.37-10.47s2.17-3.59,3.63-4.12a2.51,2.51,0,0,1,2.24.1A4.21,4.21,0,0,1,112.67,77q1.13,3.14,3,14.73.69,4.3,1.27,7.47a32.32,32.32,0,0,0,1.24,5,4.21,4.21,0,0,0,1.66,2.44,3.17,3.17,0,0,0,2.48-.09,3.34,3.34,0,0,0,2.2-1.83,7.5,7.5,0,0,0-.2-4,96.12,96.12,0,0,1-2.49-17.54q-.18-7,1.15-10.57C123.85,70.24,125,68.81,126.4,68.3Z"></path><path class="cls-1" d="M200.48,41a9.38,9.38,0,0,0,0,6.46,7.59,7.59,0,0,0,3,3.79,7.8,7.8,0,0,0,5,1.23,15.35,15.35,0,0,0-5.92,6.56,10,10,0,0,0-.12,7.47,8.45,8.45,0,0,0,1,2,14,14,0,0,1-1.16,2.07,5.4,5.4,0,0,1-2.54,2,3.38,3.38,0,0,1-2.78-.07A4.27,4.27,0,0,1,195.1,70a21.86,21.86,0,0,1-.94-4l-1.88-13.81a25.61,25.61,0,0,0-1.15-5,9.12,9.12,0,0,0-3.71-5,6.32,6.32,0,0,0-5.55-.28,10.65,10.65,0,0,0-5.93,5.18q-2,3.76-2.05,10.76A23.09,23.09,0,0,0,173,54a9.61,9.61,0,0,0-3.78-5.22,6,6,0,0,0-5.34-.41,10.82,10.82,0,0,0-5.95,5.41q-2.15,4-2.07,12.27c0-.29-.12-.8-.25-1.53s-.31-1.67-.55-2.82a23.67,23.67,0,0,0-.8-2.92,7.43,7.43,0,0,0-3-4.1,5,5,0,0,0-4.36-.2A10.56,10.56,0,0,0,142.2,58a17.9,17.9,0,0,0-3.12,6.37,7.92,7.92,0,0,0-.36,2A4.21,4.21,0,0,0,139,68a2.3,2.3,0,0,0,1,1.19,1.41,1.41,0,0,0,1.32.21A1.83,1.83,0,0,0,142.31,68,19.59,19.59,0,0,1,144.56,63a5.37,5.37,0,0,1,2.37-2.19c1-.36,1.72.14,2.21,1.48a45.68,45.68,0,0,1,1.53,5.53q1.19,5.39,2.56,12.85c.46,2.7.86,4.82,1.19,6.33a30.45,30.45,0,0,0,1,3.67,4.34,4.34,0,0,0,1.73,2.55,3.41,3.41,0,0,0,2.64-.12c1.17-.42,1.85-1,2-1.74a8.5,8.5,0,0,0-.22-3.52,96.73,96.73,0,0,1-2.48-18.48q-.08-7.14,1.37-10.47t3.63-4.12a2.48,2.48,0,0,1,2.24.11,4.26,4.26,0,0,1,1.55,2.27q1.14,3.13,3,14.73c.46,2.88.88,5.36,1.27,7.47a33.52,33.52,0,0,0,1.24,5,4.18,4.18,0,0,0,1.67,2.44,3.2,3.2,0,0,0,2.48-.08,3.37,3.37,0,0,0,2.2-1.84,7.71,7.71,0,0,0-.2-4A95.27,95.27,0,0,1,177,63.28q-.18-7,1.16-10.57c.89-2.36,2-3.8,3.44-4.3a2.18,2.18,0,0,1,2,.16,4.1,4.1,0,0,1,1.45,2.13,13.9,13.9,0,0,1,.52,1.87c.13.64.24,1.34.34,2.08s.17,1.25.2,1.55l1.17,8.85a42.9,42.9,0,0,0,1.68,8,9,9,0,0,0,4.34,5.3,8.36,8.36,0,0,0,6.78.12,10.24,10.24,0,0,0,4.33-3,16.38,16.38,0,0,0,2.48-4.14,14,14,0,0,0,6.14,1.06A31.86,31.86,0,0,0,223,70.28a50.38,50.38,0,0,0,8-3.73,28.22,28.22,0,0,0,6.14-4.47,5.85,5.85,0,0,0,1.61-2.5,4.17,4.17,0,0,0-.17-2.52,2.62,2.62,0,0,0-.86-1.26,1.29,1.29,0,0,0-1.27-.15,3.48,3.48,0,0,0-1,.67A40.93,40.93,0,0,1,229.1,61a40.16,40.16,0,0,1-7.55,3.71q-5.64,2-8.76,1.56A4.81,4.81,0,0,1,208.68,63a5.5,5.5,0,0,1,0-3.52,8.24,8.24,0,0,1,2.68-3.67,19.47,19.47,0,0,1,5.79-3.25c1.78-.68,2.32-2,1.61-4a2,2,0,0,0-.89-1.19,2.14,2.14,0,0,0-1.55,0c-2.63.84-4.69,1-6.17.52a4.52,4.52,0,0,1-3-2.85,5.41,5.41,0,0,1,.72-5.17,11,11,0,0,1,5.52-3.81,6.74,6.74,0,0,1,4.4-.45,3.45,3.45,0,0,1,2.15,2.19,16.43,16.43,0,0,1,.5,2.1,7.71,7.71,0,0,0,.38,1.74,2.14,2.14,0,0,0,1.32,1.42,3.36,3.36,0,0,0,2.18-.15,3.23,3.23,0,0,0,2.16-2.63,8.85,8.85,0,0,0-.58-4.63,8.29,8.29,0,0,0-5-5.21q-3.64-1.39-9.2.61a22.14,22.14,0,0,0-7.1,4.07A13.91,13.91,0,0,0,200.48,41Z"></path><path class="cls-1" d="M239.14,56.11a16.85,16.85,0,0,0,7.52,5.14,12.73,12.73,0,0,0,8.37-.2q3.86-1.39,5-4.12a11.92,11.92,0,0,0,.4-6.81c-.09-.5-.34-1.86-.76-4.08q-1.32-7.44-1.55-8.86a6.08,6.08,0,0,1,3.26,0,10.63,10.63,0,0,1,3.42,2.09q1.94,1.61,5.57,5.16,4.51,4.43,8.19,5.6a11.79,11.79,0,0,0,7.77-.3,14.06,14.06,0,0,0,6.6-4.63A28.69,28.69,0,0,0,297,37.29a6.36,6.36,0,0,0-.21-4.35A4.24,4.24,0,0,0,295.6,31a1.55,1.55,0,0,0-1.57-.29,2.39,2.39,0,0,0-1.39,1.5,32.93,32.93,0,0,1-2.93,6.3,6.8,6.8,0,0,1-3.36,2.74A5.8,5.8,0,0,1,281.7,41a21.65,21.65,0,0,1-5.5-4.29A23.42,23.42,0,0,0,271,32.48a10,10,0,0,0-5.62-1,23.89,23.89,0,0,0,6.75-6.78A18.22,18.22,0,0,0,275,17a16.4,16.4,0,0,0-.82-7.51,14.36,14.36,0,0,0-4.6-6.55A14.06,14.06,0,0,0,261.65.05a26.35,26.35,0,0,0-10.82,1.83,30.59,30.59,0,0,0-13.9,9.61A28.82,28.82,0,0,0,230.82,27q-.91,9,2.9,19.63A28.79,28.79,0,0,0,239.14,56.11Zm-1.4-28a21.26,21.26,0,0,1,3.95-11.69,20.47,20.47,0,0,1,9.73-7q5.23-1.89,8.77-.59a8.18,8.18,0,0,1,5,5.27,11.16,11.16,0,0,1,.44,6.47,12.22,12.22,0,0,1-3,5.65,16.05,16.05,0,0,1-5.63,3.88L255.06,19a6.91,6.91,0,0,0-.32-1.1C254,15.72,252.38,15.08,250,16c-3,1.07-4.26,3.08-3.82,6q.72,4.8,2,11.35l-1.58.57a3.42,3.42,0,0,0-1.92,1.69,3.27,3.27,0,0,0-.12,2.75,3.89,3.89,0,0,0,1.61,2,3.81,3.81,0,0,0,3.3-.05l1.7,10.08a7.84,7.84,0,0,1,.11,3,1.71,1.71,0,0,1-1.06,1.31,3.46,3.46,0,0,1-2.8-.64,12.77,12.77,0,0,1-3.59-3.62,27.63,27.63,0,0,1-3.32-6.65A39.42,39.42,0,0,1,237.74,28.09Z"></path><path class="cls-1" d="M93.24,151.32c-10.48-10.81-20.33,2-20.33,2,15.1-8.11,20.59,2.09,20.59,2.09l0-.05c4-12.28,16.14-10.39,16.14-10.39C98.79,138.47,93.24,151.32,93.24,151.32Z"></path><path class="cls-1" d="M162.45,203.72l0-.05c.76-10.92,11.13-11.86,11.13-11.86-10.29-3.12-12.22,8.59-12.22,8.59-10.84-6.74-16.3,5.83-16.3,5.83C155.83,196.47,162.45,203.72,162.45,203.72Z"></path><path class="cls-1" d="M126.44,220.32l0,0c5.34-8,13.7-4.23,13.7-4.23-6.52-6.89-13.11,1.25-13.11,1.25-5.36-9.9-15-2.65-15-2.65C124.54,211.88,126.44,220.32,126.44,220.32Z"></path><path class="cls-1" d="M257.72,245.74l13.56-17.9a172.23,172.23,0,0,0,16.33-21.55L311.29,175l-18.81-5.44-.19-.15c-.07-.06-7-5.37-6.83-11.6.12-3.68,2.82-7.28,8-10.71l5.27-3.48-5.61-2.94c-.06,0-5.53-2.94-6.63-8.29-.8-3.94.87-8.48,5-13.52l2.66-3.28-3.58-2.24c-2.52-1.57-9.23-6.92-9.95-12.69-.35-2.85.77-5.6,3.44-8.39l4.84-5.06L282,86.07c-.08,0-8.89-1.6-12.21-7.29-1.63-2.8-1.68-6.22-.16-10.43l-7-2.53c-2.29,6.35-2,12,.76,16.75,2.89,4.93,7.92,7.72,11.83,9.24a15.7,15.7,0,0,0-2,9.84c.9,7.08,6.46,12.7,10.14,15.69-3.87,5.78-5.26,11.38-4.14,16.68a19.21,19.21,0,0,0,6,10.06c-4.64,4.08-7.06,8.63-7.2,13.58a17.48,17.48,0,0,0,2,8.31l-3.5-1a119.18,119.18,0,0,0,2.25-23.13,117.51,117.51,0,0,0-21-67.3l-6.12,4.24a110.14,110.14,0,0,1,19.69,63.06,112.14,112.14,0,0,1-2,21L248.93,157l-41.41,51.45-10.73-49.29c3.53-.87,7-1.78,10.37-2.72l-.63-11.26,10.33,8.41c10.88-3.36,20.52-6.86,28.16-9.85l-8.8-5.92,15.4,3.26c7.37-3,11.68-5.1,11.68-5.1a152.61,152.61,0,0,0-20.56-9c-1.42.62-3.1,1.34-5,2.13L232.65,128l.15,0-7.6-5.11,13.3,2.82c6.36-2.63,10.08-4.4,10.08-4.4-78.52-41.53-129.58,24-129.58,24a101.26,101.26,0,0,0,13.77,2c3.09-2.37,7.79-5.9,7.79-5.9l-2.83,4.95L132,150.75c-1.77-.15-3.52-.33-5.27-.56a108.35,108.35,0,0,0-13.49,13.63,118.38,118.38,0,0,0,15.94,2.37c3.59-2.75,9-6.83,9-6.83l-4.08,7.14a184.3,184.3,0,0,0,32.41-1.58l6.63-15.81,3,14.36c6-1,11.94-2.26,17.7-3.62l10,53.16-16.54,20.56a145.93,145.93,0,0,1-16.7,6.77l-29.2.32L163,252.6c-.83,0-1.66,0-2.5,0A110.79,110.79,0,0,1,49.68,141.83H42.23a120.68,120.68,0,0,0,.69,12.8c-3.87-7.41-11.67-10.8-12.06-11l-2.92,6.85c.08,0,7.6,3.36,9.3,9.95,1.15,4.43-.54,9.63-5,15.45l-4,5.21,6.52.76c.06,0,6.42.89,9.67,5.91,2.54,3.92,2.7,9.53.45,16.67l-1.32,4.23,4.39.58c.09,0,9,1.32,11.9,6.85,1.65,3.1,1.17,7.29-1.41,12.45l-4,8,8.49-2.76c.08,0,8.35-2.58,13.23,1.08,2.87,2.14,4.22,6.29,4,12.32l-.2,6.38,5.65-3c.05,0,5.48-2.74,10.41-.63,3.63,1.56,6.34,5.43,8.07,11.52l1.16,4.05,3.88-1.64c.09,0,9.84-4,15.89-.8,2.47,1.31,4,3.73,4.76,7.39l1.37,6.85,4.92-5c.07-.06,6.33-6.16,12.76-5.63,3.19.26,6,2.13,8.51,5.7l4.28-3,55.06,30.46,24-31.72,62.3-9.28Zm-49.24-109.3c7.7-2.38,14.68-4.84,20.58-7.08l2.95,2c-6.6,2.59-14.92,5.61-24.31,8.51l-7.9-6.42-.24-4.25Zm-36,12L170,136l-5.72,13.65a160.81,160.81,0,0,1-28,1.37l1.93-3.38a161.8,161.8,0,0,0,26.84-1.4l5.72-13.66L173.3,145c8.95-1.53,17.68-3.58,25.85-5.83l.17,3.15A266.48,266.48,0,0,1,172.51,148.4Zm42.74,116.72,4.41-.88-.11-.55A117.06,117.06,0,0,0,250.45,247l1.81.53-13.32,17.57-36.71,5.47-3.15-1.74A112.59,112.59,0,0,0,215.25,265.12Zm38.4-20.56c.77-.61,1.52-1.22,2.27-1.84l-1.55,2.05ZM299,185.82c2-4.27,3.43-7.63,4.24-9.7l2.55.74Zm-49-25a108.72,108.72,0,0,1-40.06,59l-1.58-7.26Zm-45.43,56.44,1.07,5.68c-3.76,2.61-7.54,4.92-11.25,7Zm-45.79,26.51c-1.49.35-2.74.62-3.7.81l-1.36-.76ZM41.14,176.05a27.64,27.64,0,0,0,3.65-9.61,115.87,115.87,0,0,0,4.26,15.16A21.22,21.22,0,0,0,41.14,176.05ZM55.7,203.76a27.86,27.86,0,0,0-2.68-.93,31.34,31.34,0,0,0,.75-9.91A118.81,118.81,0,0,0,62,207.41,24,24,0,0,0,55.7,203.76ZM67.55,225.5a18.08,18.08,0,0,0-.21-10.79,121.66,121.66,0,0,0,9.52,10.74c1.06,1.05,2.13,2.07,3.22,3.08C76.09,225.8,71.36,225.3,67.55,225.5Zm67.75,38.07a15.52,15.52,0,0,0-6.77-7.05c-6.24-3.3-14-2-18.49-.76-2.46-6.3-6.17-10.54-11.06-12.63a19.14,19.14,0,0,0-11.55-.92,20,20,0,0,0-4.3-10.93,117.15,117.15,0,0,0,63.8,28A24.45,24.45,0,0,0,135.3,263.57Zm16.94-3.78q4.09.29,8.23.29c1.87,0,3.73-.05,5.58-.13l-4.59,5.71A18.57,18.57,0,0,0,152.24,259.79Zm63.57,35.86-51.42-28.44,6.08-7.55c1.49-.13,3-.27,4.45-.45L201.62,274l34.51-5.14Zm39.8-47.13,32.19,9.33-44.25,6.59Z"></path><path class="cls-1" d="M50.78,73.25l1.15,7.36c5.8-.91,10.09-3.38,12.76-7.34l5.68,4.07A110.63,110.63,0,0,1,160.47,31a110.81,110.81,0,0,1,36.23,6.05l2.44-7a118.57,118.57,0,0,0-93.56,7A119.21,119.21,0,0,0,66.19,70.47a22.65,22.65,0,0,0,1.25-11.21,14.74,14.74,0,0,0,8.49-2.78c5.2-3.77,7.3-10.51,8.13-14.81,6.23.49,11.27-.87,15-4.09a17.58,17.58,0,0,0,5.4-8.94c5.22,1.81,9.87,1.7,13.86-.34a18.21,18.21,0,0,0,8-9.13,16.29,16.29,0,0,0,11.15,4.17c6-.19,10.77-4,13.54-6.94,5.7,4.51,11.39,6.45,17,5.78a19.18,19.18,0,0,0,10.1-4.57c3.68,5.45,8.14,8.74,13.32,9.78,9.63,1.93,17.71-4.89,18-5.18l-4.85-5.65s-5.72,4.73-11.73,3.53c-4.12-.83-7.74-4.32-10.77-10.36l-2.9-5.84-3.54,5.47s-3.27,4.83-8.63,5.43c-4.23.48-8.89-1.67-13.88-6.4l-3.21-3L147.52,9c-.05.07-4.62,6.69-10.25,6.87-3.18.09-6.43-2-9.65-6.18l-5.37-7L121,11.46c-.31,2.15-2,8.17-6.06,10.22-2.87,1.46-6.8.88-11.69-1.71l-5.67-3,.2,6.41c0,.06.07,5.46-3.54,8.56-2.69,2.31-7,3-12.67,1.9l-4.15-.76-.24,4.21C77,39.93,75.7,47.46,71.54,50.46c-2,1.46-4.59,1.75-7.86.87l-6.76-1.8,2.27,6.61c0,.08,2.56,7.62-.44,12.6C57.29,71.16,54.68,72.64,50.78,73.25Z"></path></g></g></svg>