<svg xmlns="http://www.w3.org/2000/svg" viewBox="0 0 258.41 285.97"><defs><style>.cls-1{fill:#272525;}</style></defs><g id="Layer_2" data-name="Layer 2"><g id="Object"><path class="cls-1" d="M32.54,67.22c2.25-.28,3.07-.22,4.6,1.39a5.26,5.26,0,0,1,1.57,4.64A8.2,8.2,0,0,1,35.53,79a30,30,0,0,1-7.23,4.45c-1.38.38-3.94,3.09-4.39,4.45-.72,1.88.31,3.42,2.2,3.11.89-.2,4.6-1.58,5.84-2.11,5.43-3,11.1-8.41,13.73-12.77a22.48,22.48,0,0,0,2.71-8,16.12,16.12,0,0,0-1.17-5,11.08,11.08,0,0,0-4.13-4.35,14.09,14.09,0,0,0-5.7-.72,1.67,1.67,0,0,1-1.52.24c-.54.24-4.42,1.78-6.06,2.69-.88.57-2.85,1.6-4.49,2.51C19,67.29,16.52,68,13.07,67,10.76,66.45,9,64.24,9,62.39a22.66,22.66,0,0,1,2.45-9.94c.82-1.44,1-1.6,2.06-2a6.69,6.69,0,0,1,4.24,0,8.75,8.75,0,0,1,3.66,3.86c.29.65.33.8,1.05.76,1,.26,2.25-.27,3.57-1.53a5.09,5.09,0,0,0,1.94-3.7,7.1,7.1,0,0,0-.75-4.12,6,6,0,0,0-2-2.1,9.15,9.15,0,0,0-5.76-1.58,18.09,18.09,0,0,0-7.06,2.44c-1.25.53-4.72,3.64-5.73,4.88a28.16,28.16,0,0,0-2.38,3.47,48.68,48.68,0,0,0-3.4,7.78c.14.15.06.87-.37,1.56a15.21,15.21,0,0,0-.06,7.4,7.39,7.39,0,0,0,2,3.59c2.27,2.39,5,3.47,9,3.11s7.27-1.43,12.72-4.75C30,68,30.79,67.67,32.54,67.22Z"></path><path class="cls-1" d="M38,33.92A58.72,58.72,0,0,0,44.2,50.21c4.42,8.19,6.59,11,10.91,12.15a18.22,18.22,0,0,0,10.79-.22c10-2.7,15.41-11.37,13-22.32-.55-3-1.11-4.11-5.46-13.07C67.26,14,66.34,13,62.51,13.85a10.82,10.82,0,0,0-5.35,3.65c-.43,1.63-1,.48,5.54,13,3.15,5.59,4.35,9,5.47,11.27,1.52,5,1.58,8.52.2,11.66-.79,1.8-.93,2.24-1.79,2.29a11.47,11.47,0,0,1-4.27-.1c-3-1-7.67-8-11.29-18-1.53-3.15-3.17-7.44-4.15-9.44-2-4.06-2.63-4.71-4.63-4.49-1.65,0-4.57,1.09-5.63,2.35-1.41,1.44-1.36,2.46,0,4.29A12.4,12.4,0,0,1,38,33.92Z"></path><path class="cls-1" d="M84,41.84C85.27,50,85.27,50,86.3,51a6.36,6.36,0,0,0,2.69.34c2.66-.4,3.74-1.72,3.87-4.05.36-3.46,0-11.78-.56-18.58-.56-3.73-.64-7.46-.7-7.86.25-1.54.24-1.6,2.3.4,1,1,3,2.2,4.08,3.2,1.94,1.21,2.86,1.48,4.58,1.22.92.27,2.66-.4,3.13-.47,1.61-1,3.93-3.66,6.48-7.45,1.38-2.52,1.39-2.45,2.34,3.87l2.12,14.12c1.59,7.39,1.52,7.4,3.13,9.07s3,2.2,6.63,2.07c2.25.07,4.71-1.12,5.4-2.38a1.92,1.92,0,0,0-1.65-2.41,3.1,3.1,0,0,1-1.67-2.07c-.58-.66-2-7.26-3.09-14.72-2.87-15.91-4.29-22.17-5.32-23.17-1.08-1.34-2.4-1.61-5-.81-1.66.65-2.6.8-3.29,2.06-.75.86-1.45,2.05-1.86,2.52a2.59,2.59,0,0,1-.63,1.66A9.81,9.81,0,0,1,108,10.46c-.69,1.26-2.16,3.73-3.27,5.4-2.16,3.73-2.07,3.78-4.6,1.85-2.06-2-8.49-8.6-8.55-9s-1-1-2-1.61a9,9,0,0,0-8.18-.68c-2.08,1.07-2,1.47-.06,14.52C81.83,27.74,83.3,37,84,41.84Z"></path><path class="cls-1" d="M135.11,45.12c2.65.46,4.1-.46,4.95-2.63,1.43-3.17,3.68-11.19,5.3-17.82.64-3.71,1.73-7.28,1.8-7.68.72-1.38.73-1.45,2.06,1.1.66,1.28,2.2,3.05,2.87,4.32,1.46,1.76,2.25,2.3,4,2.6.79.54,2.65.45,3.11.53,1.84-.44,4.88-2.24,8.49-5,2.1-2,2.09-1.89,1,4.41-.57,3.32-1.65,9.63-2.41,14.08-.81,7.51-.89,7.5.12,9.58s2.2,3,5.64,4c2.12.77,4.83.41,5.88-.57a1.91,1.91,0,0,0-.81-2.8,3.09,3.09,0,0,1-.93-2.48c-.35-.81.4-7.52,1.68-15,2.26-16,2.88-22.4,2.21-23.68-.61-1.6-1.77-2.28-4.49-2.34-1.78.1-2.72-.06-3.77.93-1,.58-2,1.49-2.56,1.81a2.59,2.59,0,0,1-1.12,1.38c-.07.4-1.11,1.31-2.16,2.3s-3.22,2.86-4.79,4.09c-3.22,2.87-3.15,3-4.95.32-1.33-2.55-5.36-10.83-5.3-11.23s-.66-1.28-1.39-2.15A8.91,8.91,0,0,0,142,0c-2.3.35-2.37.75-4.6,13.76-1.62,6.63-3.13,15.87-4,20.71-1.4,8.17-1.4,8.17-.73,9.44A6.24,6.24,0,0,0,135.11,45.12Z"></path><path class="cls-1" d="M179.34,54.73a3.55,3.55,0,0,0,3.1,1.76,5.8,5.8,0,0,1,3.06,1.3A105.3,105.3,0,0,0,197.91,63c4.69,1.2,5.59,1.35,6.16,1.63a6.63,6.63,0,0,1,1.68,0,2.24,2.24,0,0,0,2.86-1.13c.44-.91-.17-2.87-1.4-3.78a16.72,16.72,0,0,0-5.75-2.63,62,62,0,0,1-11.67-4.06c-1.63-.81-1.56-.77-.59-2,.33-.66,1.68-2.85,2.46-4.42,4-6,3.1-5.53,7-3.91,3.47,1.72,7.84,3.07,8.86,3,3.38,0,3.9-2.35,1.49-5-1.1-1.15-3.61-2.32-8.19-3.77a17.52,17.52,0,0,1-2.53-1c-.28-.14,6.27-11.93,6.56-11.79,0,0,2.53,1,5.62,2.19,5.84,2.3,7.27,2.78,9.19,2.31s2-2.77.19-4.49c-1.1-1.15-4-2.59-9.35-4.64-3.87-1.63-3.9-1.56-4.23-2.33a8.19,8.19,0,0,0-5.52-3.64c-.56-.28-1.23,0-1.92,0-.8.2-.77.14-5.08,8.83-2.28,4.58-5.19,9.91-6.49,11.82-1,2-3.58,6.49-5.49,10.35C177.78,52.53,178,52.91,179.34,54.73Z"></path><path class="cls-1" d="M254,47.55a20.4,20.4,0,0,0-7.23-5.81c-.9-.19-1.19-.46-1-1a5.51,5.51,0,0,0-2-3.43,12.2,12.2,0,0,0-2.38-1.85c-.55-.23-1.32-.67-1.82-.49-.9-.19-.95-.25-6,5.22-2.85,3.06-7.3,7.83-10.18,10.58-13,13.12-12.85,13-13.87,14.88-1.2,2.1-1.34,2.25-.67,3.51a5.3,5.3,0,0,0,4.46,2.87c1.22-.15,4.74-2.3,8.49-5.52a30.69,30.69,0,0,1,3.9-3.37c.78-.84,2.3-2,2.94-2.69,1.1-1.18,1.1-1.18.49-.18-.93,2.62-2.64,9.68-2.62,11.63a13.14,13.14,0,0,0-.21,2.66c-.41,4-.26,7.12.9,9.13a8.29,8.29,0,0,0,.66,1.26c-.14.15.49,1.1,1.16,2,2.69,3.15,6.39,4.75,8.8,3.78.87-.11.88-.47.93-1.34.52-1.72-1.23-4.37-3.31-5.39-.94-.6-1-.91-.86-3,.05-.87.06-2.15.06-2.15a.66.66,0,0,1,.15-.51c.13-.15-.09-.72.06-1.23s0-1.28.15-1.79a.61.61,0,0,0-.08-.72s-.05-.42.09-.56.24-1.07.52-1.72c.06-.87.39-2.5.45-3.73a10.82,10.82,0,0,0,.58-2.59c-.27-.53.5-.54,1.45.06a18.17,18.17,0,0,0,8.41,3c3.94.17,5.94-.81,8.65-3.72C259.79,60.29,259.58,54,254,47.55Zm-6,9.38a10.24,10.24,0,0,1-5.35,3.31c-2.59.8-4.4.31-7.41-2.49-2.16-1.74-2.15-1.64,1.51-5.22l5.6-6c2.38-2.2,2.43-2.25,3-2s1,.6,1.35,1a8.63,8.63,0,0,1,3.59,3.34C251.41,51.18,250.85,53.88,248,56.93Z"></path><path class="cls-1" d="M135.68,97.49c2.19-.26,4.4-.58,6.54-.9,6.3-.93,12.8-1.89,19.42-1.06a36.52,36.52,0,0,1,11.86,3.93c-9-8-19.15-11.93-30.16-11.67a43.36,43.36,0,0,0-19.17,4.92l-.11.06c-3.77,1.74-6.27,4.24-7.44,7.46-2.16,5.87.73,12.39.85,12.66,17.27,31.48,31.19,36.69,31.33,36.74l.06,0,.32.17c3.38,2.46,6.54,5,9.49,7.5a72.09,72.09,0,0,1-5.48-10.71,55.47,55.47,0,0,1-1.86-5.64c-.46-1.57-.94-3.19-1.52-4.75s-1.29-3-2-4.42a38.54,38.54,0,0,1-2.67-6.55c-.39-1.4-.67-2.79-.95-4.12a33.61,33.61,0,0,0-1.87-6.76,13.6,13.6,0,0,1-.63-2.27,10,10,0,0,0-1-3c-.82-1.07-2-1.12-3.36-1.17-.39,0-.78,0-1.18-.08a2.52,2.52,0,0,1-.41-.06,4.68,4.68,0,0,1-3.32-1.92,5.78,5.78,0,0,1-.68-5.57A4.64,4.64,0,0,1,135.68,97.49Z"></path><path class="cls-1" d="M183.55,176.8a5.74,5.74,0,0,1-1.06-.1,30.66,30.66,0,0,1-6.39-1.94,145.32,145.32,0,0,1,13.15,18,105.48,105.48,0,0,1,10.17,20.78c4.84,2.49,9.42,3.06,13.64,1.7l.2-.07A92.83,92.83,0,0,0,223.89,180a106.51,106.51,0,0,0-7.11-10.31c-4.08-3-10-12.34-15.74-22.88a3.58,3.58,0,0,1-.55.19,6,6,0,0,1-1.58.21,5.58,5.58,0,0,1-5.37-3.63,7.72,7.72,0,0,1-1.64-2.29,21.11,21.11,0,0,1-1.22-2.93c-.14-.38-.28-.77-.43-1.15a41.51,41.51,0,0,0-1.8-3.81,39,39,0,0,1-1.81-3.8l-.45-1.16c-2-5.06-4.21-10.8-8.68-14.13-4.92-3.66-11.52-8-18.94-8.65a40.21,40.21,0,0,0-8.13.18c.16.5.3,1,.45,1.51a30,30,0,0,0,1,3.08c.23.56.5,1.11.75,1.64a15.84,15.84,0,0,1,1.44,3.87,21.25,21.25,0,0,1,.27,2.46,17.76,17.76,0,0,0,.26,2.41,27.61,27.61,0,0,0,2.77,7.14c.69,1.4,1.41,2.84,2,4.36.76,2,1.41,4.07,2,6.06,1.65,5.21,3.21,10.13,6.58,14.46.82,1.06,1.62,2.17,2.38,3.25a52.69,52.69,0,0,0,4.67,5.91,17.89,17.89,0,0,0,8.86,4.49,5.28,5.28,0,0,1,4.16,6.39A4.61,4.61,0,0,1,183.55,176.8Z"></path><path class="cls-1" d="M193.52,142.86a.59.59,0,0,0-.1.16l.19-.05Z"></path><path class="cls-1" d="M130.83,77.6a93.34,93.34,0,0,0-77,40.54h0a23,23,0,0,1,11.27.7l.08,0a164.83,164.83,0,0,1,17.54,8.61c8.18.25,16.24,4.12,21.68,7.08,7.24,3.94,12.1,11.26,14.89,16.71a46.24,46.24,0,0,0,2.76,4.5c.84,1.26,1.71,2.56,2.47,3.94a29.35,29.35,0,0,0,2.11,3.19,23.39,23.39,0,0,1,2.77,4.56,5.35,5.35,0,0,1,.38,1.46A144.77,144.77,0,0,0,152,182.4c12.61,6.11,21.52,7.93,21.61,7.95l.57.11.33.48c3.64,5.4,4.91,10.8,3.78,16.07-1.74,8-8.6,13.16-10.32,14.33a9,9,0,0,1-5.48,6.2,13.1,13.1,0,0,1-4.75.8c-11.46,0-28.25-11-29-11.41l-.06,0-.24-.23c-7.67-9-61.9-27.16-62.45-27.35l-.29-.13c-18.59-11.42-25-25.26-26.51-36.79a93.5,93.5,0,0,0,172.13,66.2,17.43,17.43,0,0,1-2.89.24,23,23,0,0,1-10.88-3l-.51-.28-.17-.56c0-.08-2.7-8.71-10.07-20.7a149.89,149.89,0,0,0-39.16-42c-1.82-.7-15.64-6.9-32.71-38l0-.06c-.37-.8-3.51-7.91-1-14.86,1.44-4,4.42-7,8.87-9,1.33-.76,33.05-18.2,60.46,15.41,6.62,4.87,10.44,12.73,12.48,18.48a45.47,45.47,0,0,0,2.14,4.82c.66,1.36,1.35,2.77,1.92,4.24a32.17,32.17,0,0,0,1.67,3.44,23.17,23.17,0,0,1,2.15,4.89,4.36,4.36,0,0,1-.35,3.4c6.83,12.58,12.06,20.3,15.28,22.53l.05,0,.25.23c.22.28,2.6,3.23,5.35,7.41.06-1.34.09-2.69.09-4A93.48,93.48,0,0,0,130.83,77.6Z"></path><path class="cls-1" d="M119.43,170.32l.17-.07-.1-.1A.47.47,0,0,0,119.43,170.32Z"></path><path class="cls-1" d="M117.68,168.76a21.71,21.71,0,0,1-1.6-2.74l-.57-1.09a38.17,38.17,0,0,0-2.3-3.53,41.08,41.08,0,0,1-2.29-3.53l-.6-1.09-1-1.73q-2.67-2.72-5.34-5.68l0-.05-.19-.31a23.88,23.88,0,0,0-3.87-5l-.06,0c-5.37-3-12.48-6.35-19.92-6.06a40,40,0,0,0-8,1.26c.22.47.44.95.65,1.43.44,1,.89,2,1.42,2.92.3.52.64,1,1,1.53a15.62,15.62,0,0,1,1.94,3.64,21.67,21.67,0,0,1,.59,2.41A19.65,19.65,0,0,0,78,153.4a28.12,28.12,0,0,0,3.68,6.71,45.74,45.74,0,0,1,2.55,4.06c1,1.89,1.94,3.84,2.83,5.73,2.32,4.95,4.52,9.61,8.43,13.46,1,.95,1.89,1.94,2.79,2.91a51.63,51.63,0,0,0,5.42,5.24,17.85,17.85,0,0,0,9.37,3.28,5.29,5.29,0,0,1,5,5.78,4.67,4.67,0,0,1-3.49,4.46c7.41,3.46,13.43,6.86,15.9,9.63,1.47.94,21.84,13.81,31,10.24a6.37,6.37,0,0,0,3.91-4.79l.14-.56.49-.31c.08,0,7.82-4.93,9.52-12.85.93-4.32-.1-8.83-3-13.39a105.78,105.78,0,0,1-21.7-8.05,146.44,146.44,0,0,1-21.85-13.12,4.86,4.86,0,0,1-2,1.45,6.13,6.13,0,0,1-2.36.47,5.5,5.5,0,0,1-5-2.92A6.75,6.75,0,0,1,117.68,168.76Z"></path><path class="cls-1" d="M80,179.22a54.8,54.8,0,0,1-2.6-5.35c-.66-1.49-1.35-3-2.13-4.5s-1.67-2.8-2.54-4.12a39.41,39.41,0,0,1-3.52-6.14c-.57-1.34-1-2.67-1.48-4A33.82,33.82,0,0,0,65,148.7a15.3,15.3,0,0,1-.93-2.16,9.6,9.6,0,0,0-1.4-2.89c-1-1-2.13-.84-3.48-.72-.39,0-.78.08-1.18.09h-.64a4.75,4.75,0,0,1-3.32-1.46,5.76,5.76,0,0,1-1.41-5.44,4.63,4.63,0,0,1,3.51-3.27c2.14-.54,4.29-1.16,6.37-1.76a91.61,91.61,0,0,1,14.71-3.34c-3.84-2-8.21-4.13-13.18-6.24-.25-.08-7-2.3-12.65.43l-.15.07c-4,6.41-7.56,13.32-9.53,20.78a43.74,43.74,0,0,0,0,7c1.16,14.82,9.7,27.24,25.37,36.92,2.62.87,13.92,4.69,26.35,9.48A75.38,75.38,0,0,1,80,179.22Z"></path><path d="M12.13,167.5l0-3,11.44,3.39-.06,3.21L16.24,173l7.25,2.11,0,3.21L11.9,181.37l0-3,8.29-1.86L12,174.34l.06-3.18,8.16-1.83Z"></path><path d="M13.67,154.37l.42-2.76,11.36,1.7L25,156.08l-4.71-.71-.66,4.39,4.71.71L24,163.23l-11.36-1.7.41-2.77,4.55.68.66-4.38Z"></path><path d="M16.65,141.12l2.06.53-1,4,2.39.62.92-3.54,2.06.53-.92,3.55,2.58.67,1-4,2.06.54-1.74,6.73-11.15-2.89Z"></path><path d="M25.32,137.34l4.19,1.54-1,2.63-10.79-4,1.57-4.26a4.33,4.33,0,0,1,2-2.56,3.27,3.27,0,0,1,2.71-.19,3.58,3.58,0,0,1,1.62,1.24,3.28,3.28,0,0,1,.58,2.32l5.36-1-1.13,3.08-5.08.88Zm-4.59-1.68,2.59,1,.6-1.63a1.32,1.32,0,0,0,0-1.07,1.35,1.35,0,0,0-.8-.69,1.37,1.37,0,0,0-1.07,0,1.31,1.31,0,0,0-.72.8Z"></path><path d="M25.19,119.84l1.92.93-1.81,3.74,2.23,1.07,1.59-3.3,1.92.93-1.6,3.3,2.4,1.16,1.81-3.75,1.92.93-3,6.26-10.37-5Z"></path><path d="M24.65,116.23l1.06-1.86a6.36,6.36,0,0,1,1.92.71,2.46,2.46,0,0,1,1.21,1.35,2.13,2.13,0,0,1-.25,1.82l-.93-.52c.28-.5.11-.92-.52-1.27l-.23-.13-.5.89Z"></path><path d="M33.15,110.49a1.32,1.32,0,0,0-.24.87,1,1,0,0,0,.49.72,1.14,1.14,0,0,0,.87.21,2.06,2.06,0,0,0,.86-.41c.28-.21.57-.46.88-.74a10.93,10.93,0,0,1,1-.81,5,5,0,0,1,1.07-.62,2.42,2.42,0,0,1,1.21-.17,3.17,3.17,0,0,1,1.37.53,3.25,3.25,0,0,1,1.43,2.37,4.6,4.6,0,0,1-.86,3.18,4.91,4.91,0,0,1-2.5,2.09,3.18,3.18,0,0,1-2.87-.47l1.64-2.48a1.45,1.45,0,0,0,2.18-1.39,1,1,0,0,0-.48-.73,1.07,1.07,0,0,0-.84-.18,2.09,2.09,0,0,0-.86.4c-.28.21-.58.46-.89.74a9.82,9.82,0,0,1-1,.81,6.09,6.09,0,0,1-1.06.62,2.42,2.42,0,0,1-1.21.17,3,3,0,0,1-1.35-.52,3.14,3.14,0,0,1-1.49-2.42,4.72,4.72,0,0,1,.88-3.08,5,5,0,0,1,2.36-2,3.2,3.2,0,0,1,2.88.48l-1.68,2.53a1.56,1.56,0,0,0-1-.19A1.18,1.18,0,0,0,33.15,110.49Z"></path><path d="M47.71,104.1a6.07,6.07,0,0,1-6.2-5.72,5.81,5.81,0,0,1,1.62-4.21,5.75,5.75,0,0,1,4-1.94,5.89,5.89,0,0,1,4.59,9.92A5.74,5.74,0,0,1,47.71,104.1Zm3-5.93a3.94,3.94,0,0,0-3.53-3.26,2.84,2.84,0,0,0-2.16,1,2.82,2.82,0,0,0-.84,2.23,3.91,3.91,0,0,0,3.54,3.26,3.14,3.14,0,0,0,3-3.25Z"></path><path d="M54.07,93l-4.46-5.2,2.13-1.82,4.46,5.2a2.27,2.27,0,0,0,1.42.88,1.92,1.92,0,0,0,1.49-.55,2,2,0,0,0,.78-1.4,2.26,2.26,0,0,0-.64-1.55l-4.46-5.2,2.13-1.82,4.46,5.2a4.75,4.75,0,0,1,1.17,2.46,4.29,4.29,0,0,1-.32,2.4,5.52,5.52,0,0,1-1.47,1.92,4.83,4.83,0,0,1-3.36,1.25A4.46,4.46,0,0,1,54.07,93Z"></path><path d="M66.24,83.41l2.52,3.69-2.31,1.58L60,79.2l3.74-2.56a4.46,4.46,0,0,1,3.15-.91,3.28,3.28,0,0,1,2.32,1.43,3.52,3.52,0,0,1,.6,2,3.3,3.3,0,0,1-.88,2.22l5,2.28-2.7,1.84-4.66-2.22Zm-2.76-4L65,81.66l1.43-1a1.29,1.29,0,0,0,.37-1.91,1.49,1.49,0,0,0-.88-.62,1.36,1.36,0,0,0-1,.24Z"></path><path d="M82.14,66.33l2.53-1.19,4.88,10.43L87,76.76l-7.31-4.58,3.07,6.56-2.53,1.19L75.36,69.5l2.54-1.19,7.31,4.58Z"></path><path d="M94.86,61.51l.7,2-3.93,1.35.8,2.34L95.9,66l.69,2-3.47,1.19L94,71.74l3.93-1.35.69,2L92,74.66,88.29,63.77Z"></path><path d="M108.24,58.16,106,64.59l4.82,4.76-3.09.72-2.81-2.77L103.79,71l-3.1.72,2.23-6.41-4.83-4.78,3.09-.72L104,62.59l1.15-3.71Z"></path><path d="M111.11,59.85l-.26-2.11,9-1.12.26,2.12-3.12.38,1.15,9.29-2.78.34-1.15-9.29Z"></path><path d="M132.74,56.31A6.5,6.5,0,0,1,137.21,58a5.75,5.75,0,0,1-.25,8.29,6.43,6.43,0,0,1-4.56,1.46l-4-.12.34-11.48Zm-1.52,9.32,1.25,0a3.27,3.27,0,0,0,2.54-.91,3.69,3.69,0,0,0,1-2.6,3.75,3.75,0,0,0-.84-2.67,3.27,3.27,0,0,0-2.49-1.05l-1.24,0Z"></path><path d="M149,57.73l-.28,2.11-4.12-.54-.32,2.45,3.63.48-.28,2.11L144,63.85l-.35,2.65,4.12.54-.28,2.11-6.89-.91,1.51-11.42Z"></path><path d="M156,61.27a1.3,1.3,0,0,0-.9.08,1,1,0,0,0-.51.71,1.17,1.17,0,0,0,.11.89,2.15,2.15,0,0,0,.68.66c.3.18.64.37,1,.57a12.27,12.27,0,0,1,1.11.64,5.65,5.65,0,0,1,.95.78,2.44,2.44,0,0,1,.58,1.09,3.14,3.14,0,0,1,0,1.46,3.17,3.17,0,0,1-1.72,2.16,4.57,4.57,0,0,1-3.28.31A4.91,4.91,0,0,1,151.21,69a3.18,3.18,0,0,1-.56-2.85l2.9.67a1.3,1.3,0,0,0,1.06,1.66,1.33,1.33,0,0,0,1-.1,1.14,1.14,0,0,0,.39-1.56,2.05,2.05,0,0,0-.68-.66,9.12,9.12,0,0,0-1-.58,11,11,0,0,1-1.1-.65,6.27,6.27,0,0,1-1-.78,2.45,2.45,0,0,1-.58-1.08,3,3,0,0,1,0-1.45,3.13,3.13,0,0,1,1.74-2.23,4.68,4.68,0,0,1,3.19-.25,4.89,4.89,0,0,1,2.74,1.49,3.23,3.23,0,0,1,.56,2.86l-3-.68a1.48,1.48,0,0,0-.17-1A1.2,1.2,0,0,0,156,61.27Z"></path><path d="M162.84,63.05l.68-2L172.11,64l-.68,2-3-1-3,8.87-2.65-.9,3-8.86Z"></path><path d="M170.19,75.62l4.49-10.57,2.57,1.09-4.48,10.58Z"></path><path d="M187.27,71.06l2.48,1.31-5.41,10.17-2.47-1.31-.73-8.59-3.4,6.4-2.47-1.31,5.4-10.18,2.47,1.31.73,8.6Z"></path><path d="M192.57,88.08l.57-2-3.39-2.34L188.12,85l-2.45-1.69,9.83-7.22L198.3,78,195,89.78Zm-1-5.65L193.77,84,195,79.84Z"></path><path d="M201.7,83.18l1.38-1.61L210,87.45l-1.38,1.62-2.39-2-6.08,7.12L198,92.33l6.08-7.12Z"></path><path d="M203.86,97.59l8.08-8.16,2,2-8.08,8.16Z"></path><path d="M209.65,101.2a6.07,6.07,0,0,1,6.44-5.45,5.76,5.76,0,0,1,4,2.12,5.88,5.88,0,1,1-9,7.6A5.79,5.79,0,0,1,209.65,101.2Zm5.52,3.69a3.35,3.35,0,0,0,2.36-.92,3.4,3.4,0,0,0,1.3-2.19A3.15,3.15,0,0,0,216,98.41a3.93,3.93,0,0,0-3.67,3.11,3.15,3.15,0,0,0,2.86,3.37Z"></path><path d="M229.84,111.38l1.54,2.33-9.62,6.34-1.54-2.34,3.48-7.89-6,4-1.54-2.33,9.62-6.34,1.54,2.34-3.48,7.89Z"></path><path d="M224.43,125.09a1.5,1.5,0,1,1,.88.77A1.45,1.45,0,0,1,224.43,125.09Zm9.35-6.84a3.78,3.78,0,0,1,2.17,2,4.26,4.26,0,0,1,.46,3,3.3,3.3,0,0,1-1.84,2.17,2.92,2.92,0,0,1-2.59.26,4.48,4.48,0,0,1-1.93-2.08l-1.38.71-1.2-2.35,3-1.53.5,1a4.38,4.38,0,0,0,1.11,1.54,1.14,1.14,0,0,0,1.28,0,1.3,1.3,0,0,0,.66-.69,1.12,1.12,0,0,0-.1-.95,1.17,1.17,0,0,0-.69-.63,1.24,1.24,0,0,0-1,.13l-1.19-2.35A3.28,3.28,0,0,1,233.78,118.25Z"></path><path d="M240.61,133.25l.92,2.64-8.85,3.05,1.13,3.3-2,.69L229.75,137Z"></path><path d="M245.18,148.57l-2.06.52-1-4-2.4.61.9,3.55-2.06.52-.9-3.55-2.58.65,1,4-2.06.53-1.71-6.75,11.17-2.82Z"></path><path d="M243.68,151.75l2.1-.33,1.4,9-2.1.32-.49-3.1L235.34,159l-.43-2.76,9.25-1.44Z"></path><path d="M249.58,162.33l.19,2.14a6.53,6.53,0,0,1-2,.5,2.52,2.52,0,0,1-1.76-.43,2.15,2.15,0,0,1-.82-1.64l1.06-.1c.05.57.44.82,1.15.76l.26,0-.09-1Z"></path><path d="M245.83,171.88a1.31,1.31,0,0,0-.3-.85,1,1,0,0,0-.81-.32,1.17,1.17,0,0,0-.83.32,2.15,2.15,0,0,0-.48.82c-.11.34-.21.71-.3,1.12s-.22.82-.36,1.23a5,5,0,0,1-.53,1.11,2.37,2.37,0,0,1-.91.83,3.1,3.1,0,0,1-1.42.34,3.27,3.27,0,0,1-2.52-1.14,4.56,4.56,0,0,1-1.09-3.11,4.85,4.85,0,0,1,.87-3.14,3.18,3.18,0,0,1,2.63-1.24l.05,3a1.29,1.29,0,0,0-1.34,1.43,1.31,1.31,0,0,0,.33,1,1.06,1.06,0,0,0,.82.32,1,1,0,0,0,.79-.32,2,2,0,0,0,.48-.82,11.07,11.07,0,0,0,.31-1.12,10.68,10.68,0,0,1,.37-1.22,6.07,6.07,0,0,1,.52-1.12,2.35,2.35,0,0,1,.91-.82,2.94,2.94,0,0,1,1.41-.34,3.13,3.13,0,0,1,2.59,1.15,4.76,4.76,0,0,1,1,3,5,5,0,0,1-.79,3,3.23,3.23,0,0,1-2.64,1.24l-.05-3a1.53,1.53,0,0,0,.95-.42A1.2,1.2,0,0,0,245.83,171.88Z"></path><path d="M236.8,184.38a6,6,0,0,1,8.27,1.58,5.75,5.75,0,0,1,.85,4.42,5.91,5.91,0,0,1-1.63,3.15,5.36,5.36,0,0,1-3.16,1.52l.63-3.28a2.19,2.19,0,0,0,1.63-1.82,2.91,2.91,0,0,0-.46-2.4,3.44,3.44,0,0,0-2.21-1.26,3.38,3.38,0,0,0-2.51.36,2.84,2.84,0,0,0-1.3,2,2.49,2.49,0,0,0,.18,1.69,2.42,2.42,0,0,0,1.15,1.08l.61-3.18,2.09.39-1.17,6.14-2.09-.39a5.65,5.65,0,0,1-2.56-2.24,5.17,5.17,0,0,1-.73-1.83,5.5,5.5,0,0,1,0-2.14A5.79,5.79,0,0,1,236.8,184.38Z"></path><path d="M234.1,196.93a6.07,6.07,0,0,1,8,2.57,5.84,5.84,0,0,1,.3,4.5,5.71,5.71,0,0,1-2.85,3.46,6.08,6.08,0,0,1-8-2.58,6.05,6.05,0,0,1,2.54-7.95Zm-.21,6.63a3.41,3.41,0,0,0,2,1.52,3.48,3.48,0,0,0,2.55-.05,3.17,3.17,0,0,0,1.35-4.21,3.92,3.92,0,0,0-4.58-1.47,2.88,2.88,0,0,0-1.54,1.83A2.84,2.84,0,0,0,233.89,203.56Z"></path><path d="M229.15,210.68a1.47,1.47,0,0,1-.84-.82,1.51,1.51,0,0,1,0-1.18,1.47,1.47,0,0,1,.83-.83,1.45,1.45,0,0,1,1.17,0,1.49,1.49,0,0,1,.83,2,1.49,1.49,0,0,1-.83.84A1.45,1.45,0,0,1,229.15,210.68Z"></path><path d="M231,224.78a1.31,1.31,0,0,0,.18-.88,1,1,0,0,0-.53-.69,1.15,1.15,0,0,0-.89-.14,2,2,0,0,0-.83.46c-.26.23-.54.5-.83.81s-.6.59-.93.87a5.39,5.39,0,0,1-1,.69,2.26,2.26,0,0,1-1.2.25,3,3,0,0,1-1.4-.43,3.19,3.19,0,0,1-1.59-2.26,4.6,4.6,0,0,1,.64-3.24,4.94,4.94,0,0,1,2.35-2.26,3.16,3.16,0,0,1,2.89.28l-1.47,2.59a1.3,1.3,0,0,0-1.89.55,1.34,1.34,0,0,0-.19,1,1.05,1.05,0,0,0,.54.7,1.08,1.08,0,0,0,.85.12,2.23,2.23,0,0,0,.83-.46c.26-.23.54-.5.84-.8a9.57,9.57,0,0,1,.93-.87,6,6,0,0,1,1-.7,2.35,2.35,0,0,1,1.2-.25,3,3,0,0,1,1.38.43,3.13,3.13,0,0,1,1.65,2.3,4.67,4.67,0,0,1-.66,3.13,4.94,4.94,0,0,1-2.22,2.2,3.18,3.18,0,0,1-2.9-.27l1.5-2.65a1.54,1.54,0,0,0,1,.13A1.19,1.19,0,0,0,231,224.78Z"></path><path d="M215,232l1.94.61,2.4-3.35-1.2-1.65,1.73-2.42,7.05,9.95-2,2.77-11.68-3.47Zm5.66-.93-1.58,2.2,4.12,1.28Z"></path><path d="M208.38,239.91l1.86-2.08,2.76,2.46,8.45,2.23-2.11,2.37L214,243.08l2.4,5.09-2.11,2.36-3.16-8.15Z"></path><path d="M196.19,251.26l2.17-1.77,2.34,2.87,8,3.51-2.45,2-5-2.62,1.59,5.4-2.46,2-1.85-8.54Z"></path><path d="M192.29,268.14l-1.18-1.77,3.46-2.3L193.21,262l-3.06,2L189,262.27l3.05-2L190.55,258l-3.46,2.3-1.18-1.77,5.79-3.85,6.38,9.59Z"></path><path d="M184.7,270.08a1.32,1.32,0,0,0,.63-.65,1,1,0,0,0-.08-.87,1.19,1.19,0,0,0-.67-.59,2,2,0,0,0-1-.05c-.35.05-.73.13-1.14.23s-.82.18-1.25.25a5.09,5.09,0,0,1-1.23,0,2.36,2.36,0,0,1-1.15-.43,3,3,0,0,1-1-1.12,3.2,3.2,0,0,1-.13-2.76,4.57,4.57,0,0,1,2.26-2.39,5,5,0,0,1,3.2-.65,3.2,3.2,0,0,1,2.3,1.78l-2.63,1.4a1.29,1.29,0,0,0-1.89-.54,1.33,1.33,0,0,0-.68.73,1,1,0,0,0,.07.87,1.09,1.09,0,0,0,.66.56,2.08,2.08,0,0,0,.94.05,9.59,9.59,0,0,0,1.14-.23,10.37,10.37,0,0,1,1.26-.23,5.71,5.71,0,0,1,1.23,0,2.3,2.3,0,0,1,1.15.43,3,3,0,0,1,.94,1.1,3.15,3.15,0,0,1,.16,2.83,4.76,4.76,0,0,1-2.24,2.29,5,5,0,0,1-3,.67A3.21,3.21,0,0,1,180.3,271l2.68-1.44a1.55,1.55,0,0,0,.81.66A1.17,1.17,0,0,0,184.7,270.08Z"></path><path d="M173.16,275.48l.72,2-8.54,3-.71-2,3-1-3.14-8.82,2.63-.94,3.15,8.81Z"></path><path d="M159.06,272a6.06,6.06,0,0,1,1.95,8.21,6.1,6.1,0,0,1-8.14,1.93,6.09,6.09,0,0,1-1.94-8.21,6.06,6.06,0,0,1,8.13-1.93Zm-5.79,3.24a3.91,3.91,0,0,0,1.11,4.68,3.15,3.15,0,0,0,4.3-1,3.91,3.91,0,0,0-1.11-4.68,3.18,3.18,0,0,0-4.3,1Z"></path><path d="M135,285.79l-2.79.18-.72-11.5,2.8-.17,5.12,6.94L139,274l2.79-.18.71,11.5-2.79.17-5.12-6.94Z"></path><path d="M121.46,285.63l.09-2.13,4.15.17.11-2.46-3.66-.16.08-2.12,3.67.15.11-2.66-4.15-.18.08-2.12,6.95.29-.48,11.51Z"></path><path d="M104.91,283.3l-3-.5L107,272l3.16.53.78,7.52,3.18-6.85,3.16.53,1.3,11.87-3-.5-.6-8.48-3.39,7.81-3.13-.53-.58-8.34Z"></path><path d="M90.61,266.88l-.07,2,3.87,1.42,1.26-1.59,2.8,1-7.73,9.43L87.54,278l.26-12.18Zm2.4,5.21-2.55-.94-.14,4.31Z"></path><path d="M77.63,273.62a6.48,6.48,0,0,1-3.32-3.45,5.75,5.75,0,0,1,3.73-7.4,6.42,6.42,0,0,1,4.76.6l3.61,1.82-5.17,10.25ZM83,265.83l-1.11-.56a3.28,3.28,0,0,0-2.69-.26,4.22,4.22,0,0,0-2.37,4.7,3.3,3.3,0,0,0,1.81,2l1.11.56Z"></path><path d="M73.06,257.91l-2.9,11.83-2.49-1.63,2.43-8.88L62.91,265l-2.49-1.63L70.13,256Z"></path><path d="M52.89,257.29l1.34-1.65,3.23,2.62L59,256.34,56.17,254l1.34-1.65,2.85,2.31L62,252.62,58.82,250l1.34-1.65,5.39,4.39-7.26,8.94Z"></path><path d="M44.74,249.51l-2-2,8.16-8.13,2,2-1.83,8.43,5.13-5.12,2,2L50,254.81l-2-2,1.83-8.43Z"></path><path d="M42.41,243.85l-1.66,1.33-5.67-7.07,1.66-1.33,2,2.45,7.3-5.86,1.75,2.19-7.3,5.85Z"></path><path d="M39.08,232l-5.77,3.71-1.51-2.35,5.76-3.71a2.27,2.27,0,0,0,1.06-1.28,1.93,1.93,0,0,0-.33-1.56,2,2,0,0,0-1.29-1,2.14,2.14,0,0,0-1.61.42l-5.77,3.7-1.51-2.35,5.76-3.71a4.74,4.74,0,0,1,2.6-.82,4.21,4.21,0,0,1,2.32.64,5.51,5.51,0,0,1,1.71,1.72,4.83,4.83,0,0,1,.78,3.5A4.48,4.48,0,0,1,39.08,232Z"></path><path d="M31.28,218.61l4-2,1.24,2.5-10.28,5.12-2-4.05a4.38,4.38,0,0,1-.46-3.24,3.26,3.26,0,0,1,1.73-2.11,3.62,3.62,0,0,1,2-.33,3.26,3.26,0,0,1,2.08,1.18l2.94-4.61L34,214l-2.85,4.31Zm-4.38,2.18,2.48-1.23L28.6,218a1.37,1.37,0,0,0-.78-.74,1.35,1.35,0,0,0-1.05.12,1.41,1.41,0,0,0-.74.78,1.31,1.31,0,0,0,.1,1.07Z"></path><path d="M18.47,206.69l2-.76,1.49,3.88,2.3-.88-1.3-3.42,2-.76,1.3,3.42,2.49-.95-1.48-3.88,2-.76,2.48,6.5L21,213.19Z"></path><path d="M17.9,198.07a1.32,1.32,0,0,0,.5.75,1,1,0,0,0,.86.11,1.12,1.12,0,0,0,.73-.52,2,2,0,0,0,.26-.91c0-.35,0-.74,0-1.16s0-.85,0-1.28a5.9,5.9,0,0,1,.24-1.21,2.45,2.45,0,0,1,.67-1,3.1,3.1,0,0,1,1.3-.68,3.19,3.19,0,0,1,2.72.48,4.55,4.55,0,0,1,1.83,2.74,4.86,4.86,0,0,1-.07,3.26,3.18,3.18,0,0,1-2.24,1.85L24,197.61a1.3,1.3,0,0,0,1-1.73,1.34,1.34,0,0,0-.56-.83,1.05,1.05,0,0,0-.87-.11,1.07,1.07,0,0,0-.69.51,2.26,2.26,0,0,0-.26.91c0,.35,0,.74,0,1.16a11,11,0,0,1,0,1.28,5.77,5.77,0,0,1-.24,1.21,2.3,2.3,0,0,1-.67,1,3,3,0,0,1-1.28.68,3.16,3.16,0,0,1-2.79-.47,4.65,4.65,0,0,1-1.74-2.69,4.94,4.94,0,0,1,0-3.12A3.2,3.2,0,0,1,18,193.58l.81,2.93a1.56,1.56,0,0,0-.82.64A1.17,1.17,0,0,0,17.9,198.07Z"></path><path d="M23.4,186.73a1.48,1.48,0,0,1,1.16.23,1.46,1.46,0,0,1,.64,1,1.5,1.5,0,0,1-.22,1.15,1.45,1.45,0,0,1-1,.64,1.5,1.5,0,0,1-1.8-1.2,1.51,1.51,0,0,1,1.2-1.8Z"></path></g></g></svg>