<svg xmlns="http://www.w3.org/2000/svg" viewBox="0 0 305.49 281.59"><defs><style>.cls-1{fill:#272525;}</style></defs><g id="Layer_2" data-name="Layer 2"><g id="Object"><path class="cls-1" d="M99.81,26.83A6.79,6.79,0,0,0,110.38,20a6.62,6.62,0,0,0-7.86-5.48,6.68,6.68,0,0,0-4.42,2.74A6.47,6.47,0,0,0,97,22.38,6.49,6.49,0,0,0,99.81,26.83Zm.88-7.93a3.64,3.64,0,0,1,5-.89,3.91,3.91,0,0,1,1.43,2.56,3.88,3.88,0,0,1-.45,2.9,3.24,3.24,0,0,1-2.33,1.47,3.28,3.28,0,0,1-2.69-.57,4,4,0,0,1-1.43-2.56A4,4,0,0,1,100.69,18.9Z"></path><path class="cls-1" d="M114.75,25a5.61,5.61,0,0,0,4,1.09,6.48,6.48,0,0,0,2.67-.83,4.88,4.88,0,0,0,1.9-2,5.4,5.4,0,0,0,.55-3.09l-.7-7.88-3.21.28.7,7.89a2.6,2.6,0,0,1-.44,1.88,2.32,2.32,0,0,1-1.68.79,2.21,2.21,0,0,1-1.77-.49,2.64,2.64,0,0,1-.74-1.77l-.7-7.88-3.22.28.7,7.88A5.15,5.15,0,0,0,114.75,25Z"></path><polygon class="cls-1" points="129.43 14.49 129.56 25.29 132.79 25.25 132.66 14.45 136.29 14.4 136.26 11.95 125.79 12.08 125.82 14.53 129.43 14.49"></polygon><path class="cls-1" d="M149.62,26.25a6.64,6.64,0,0,0,7.46-6,6.61,6.61,0,0,0-6-7.46,6.68,6.68,0,0,0-5,1.39,6.51,6.51,0,0,0-2.48,4.63A6.53,6.53,0,0,0,145,23.83,6.65,6.65,0,0,0,149.62,26.25Zm-2.78-7.13a4,4,0,0,1,1.24-2.66,3.65,3.65,0,0,1,5.07.54,3.94,3.94,0,0,1,.66,2.86,4,4,0,0,1-1.24,2.66,3.28,3.28,0,0,1-2.65.76A3.24,3.24,0,0,1,147.5,22,3.94,3.94,0,0,1,146.84,19.12Z"></path><polygon class="cls-1" points="162.35 22.43 166.32 23.2 166.78 20.79 162.81 20.02 163.36 17.22 168.66 18.25 169.13 15.84 160.65 14.2 158.13 27.22 161.3 27.83 162.35 22.43"></polygon><polygon class="cls-1" points="176.47 31.55 179.55 32.54 182.84 22.25 186.29 23.35 187.04 21.01 177.07 17.82 176.32 20.16 179.76 21.26 176.47 31.55"></polygon><polygon class="cls-1" points="187.5 35.45 189.66 30.39 194.37 32.4 192.21 37.46 195.18 38.73 200.39 26.53 197.42 25.26 195.33 30.14 190.63 28.14 192.71 23.25 189.74 21.98 184.53 34.18 187.5 35.45"></polygon><polygon class="cls-1" points="204.49 43.73 205.66 41.57 201.44 39.29 202.91 36.58 206.63 38.59 207.8 36.44 204.08 34.42 205.44 31.91 209.66 34.2 210.82 32.04 203.77 28.21 197.43 39.91 204.49 43.73"></polygon><path class="cls-1" d="M219.43,52.65a3.06,3.06,0,0,0,2.42-1.36,3.29,3.29,0,0,0-.45-4.38c1.72.59,3,.28,3.9-.93a3.12,3.12,0,0,0,.49-2.73,5,5,0,0,0-2-2.68l-4.67-3.37L211.32,48l4.94,3.56A5,5,0,0,0,219.43,52.65Zm.83-11.56L222,42.32a1.59,1.59,0,0,1,.69,1,1.32,1.32,0,0,1-.28,1.12,1.34,1.34,0,0,1-1,.62,1.69,1.69,0,0,1-1.12-.37l-1.72-1.24Zm-3.11,4.32,2,1.44a1.44,1.44,0,0,1,.63,1,1.49,1.49,0,0,1-.31,1.15,1.37,1.37,0,0,1-1,.63,1.52,1.52,0,0,1-1.12-.32l-2-1.42Z"></path><path class="cls-1" d="M225.18,49.77a6.51,6.51,0,0,0-1.74,5,7,7,0,0,0,7.23,6.38,7,7,0,0,0,6.45-7.3,7,7,0,0,0-7.24-6.38A6.5,6.5,0,0,0,225.18,49.77Zm2.47,2.17a4,4,0,0,1,2.55-1.45A3.64,3.64,0,0,1,234,53.87,4.51,4.51,0,0,1,230.35,58a3.66,3.66,0,0,1-3.83-3.37A4,4,0,0,1,227.65,51.94Z"></path><polygon class="cls-1" points="234.35 67.36 238.7 66.37 237.55 70.78 240.06 73.46 242.03 65.89 249.75 64.41 247.25 61.74 242.87 62.73 244.04 58.3 241.53 55.63 239.54 63.2 231.85 64.68 234.35 67.36"></polygon><path class="cls-1" d="M63.23,197.81l2.34,2.06c.9.82,1.78,1.66,2.65,2.51a15.44,15.44,0,0,0,2.62,2.11,5,5,0,0,0,6.18-.35,4.89,4.89,0,0,0,1.89-2.8,3.93,3.93,0,0,0-.54-3.46,33.85,33.85,0,0,0-6.16-5.18,25.19,25.19,0,0,1-5.92-5.33q-2.75-2.28-6.13-5t-7.09-5.2A50.27,50.27,0,0,0,45.55,173a22.4,22.4,0,0,0-7.34-1.94,18.17,18.17,0,0,0-2.66,0,28.74,28.74,0,0,0-3.38.41,31,31,0,0,0-3.45.8,9.43,9.43,0,0,0-2.8,1.26,8.94,8.94,0,0,0-3.77,4.93c-.55,1.94-.22,4.84,1,8.72a119.32,119.32,0,0,0,6.66,15.57q4.82,9.77,13.16,25.51a16.72,16.72,0,0,0,.56,1.78,19.38,19.38,0,0,1,.68,2.2l-.06.38c-.08.05-.07.15,0,.3a.12.12,0,0,1,0,.19q-1.12.78-3.84.24a48.08,48.08,0,0,1-5.87-1.63,63.85,63.85,0,0,1-6.07-2.4q-2.91-1.32-4.44-2.09a18.82,18.82,0,0,1-5.59-2.91c-1.55-1.2-3.13-2.4-4.71-3.58a32.47,32.47,0,0,0-5.15-3.11A15.56,15.56,0,0,0,2,216.2a4.46,4.46,0,0,0-1.94,3.34,5.27,5.27,0,0,0,.84,3.75,37.12,37.12,0,0,0,8.81,7.84,72.62,72.62,0,0,0,11.29,6,86.73,86.73,0,0,0,12.07,4.1,91.12,91.12,0,0,0,11.19,2.2,7.35,7.35,0,0,0,3.57-.38,12.84,12.84,0,0,0,3.29-1.51c2.13-1.59,3.08-3.91,2.86-7a35.64,35.64,0,0,0-2.64-10.35,105.09,105.09,0,0,0-5.82-12.07Q42,205.8,38.85,200t-5.07-10.26q-1.93-4.5-1.13-6.72l.11-.08a5.62,5.62,0,0,1,4.16-1.11,17.14,17.14,0,0,1,5.37,1.63,54.09,54.09,0,0,1,6.39,3.6L56,191.8A17.56,17.56,0,0,1,57.47,193c.79.68,1.71,1.43,2.74,2.28S62.24,196.94,63.23,197.81Z"></path><path class="cls-1" d="M97.05,224.44a8.46,8.46,0,0,0-.68-1.34,6.59,6.59,0,0,0-.94-1.17,2.83,2.83,0,0,0-.82-.62,2.93,2.93,0,0,0-3.16.62q-2.4,4.92-4.72,10t-4.35,10.15l-.63.72a3.9,3.9,0,0,1-.7.69q-4.29,3.21-7.1,5a29.23,29.23,0,0,1-4.56,2.5,5.15,5.15,0,0,1-2.7.5,3.21,3.21,0,0,1-1.71-1,4.36,4.36,0,0,1-.17-1.7A13.9,13.9,0,0,1,66,244.93q1.1-2.75,3.51-7.48t7-12.5l1.25-2.9a1,1,0,0,0-.18-.84,7.93,7.93,0,0,0-.79-1.11,6.88,6.88,0,0,0-1-1,4.53,4.53,0,0,0-.73-.5,3.17,3.17,0,0,0-1.71-.24,3.7,3.7,0,0,0-1.56.59,3.87,3.87,0,0,0-1.16,1.22,3.27,3.27,0,0,0-.49,1.64c-.22.39-.55,1-1,1.75s-.93,1.66-1.5,2.64-1.17,2-1.76,3.13-1.19,2.14-1.76,3.12-1.08,1.87-1.51,2.65-.76,1.36-1,1.75l-.86,2c-.57,1.32-1.13,2.83-1.7,4.55a21,21,0,0,0-1,5.16,10.76,10.76,0,0,0,.69,4.78,6.1,6.1,0,0,0,3.45,3.3,7.4,7.4,0,0,0,4.38.45,19.59,19.59,0,0,0,4.65-1.56A28.36,28.36,0,0,0,75.63,253c1.36-1,2.54-1.89,3.57-2.71a11.16,11.16,0,0,1-.6,3c-.41,1.36-.87,2.86-1.4,4.5s-1,3.35-1.54,5.12a41.49,41.49,0,0,0-1.09,4.91,11.16,11.16,0,0,0,0,3.88,2.41,2.41,0,0,0,1.69,2.05q3.06,1,4.25-1.69l.4-.91c0-.22.15-.75.36-1.56s.42-1.72.67-2.7l.68-2.73a12.47,12.47,0,0,1,.49-1.64q.94-3.66,2.14-7.25c.8-2.4,1.51-4.82,2.15-7.26l9.71-22.46A1.37,1.37,0,0,0,97.05,224.44Z"></path><path class="cls-1" d="M139.79,228.28a4,4,0,0,0-3-1.74l-.64-.1a5.47,5.47,0,0,0-2.35,1.67,13.13,13.13,0,0,0-1.52,2.37c-.44.86-.85,1.73-1.24,2.62a8.38,8.38,0,0,1-1.47,2.34L119,258.2l-.43.67c0-.06,0-.12-.14-.19a.81.81,0,0,1-.21-.2,10.84,10.84,0,0,1-.54-1.23l-.41-1-8-24A7,7,0,0,0,108,230a3.75,3.75,0,0,0-2.26-1.22,2.48,2.48,0,0,0-2.12.44,5,5,0,0,0-1.27,1.88c-.07.42-.19,1.17-.36,2.23s-.36,2.2-.58,3.42-.42,2.37-.6,3.46-.29,1.85-.36,2.27Q99,251.34,97.89,260.2t-2.37,17.72a4,4,0,0,0,1.1,2.1,4.55,4.55,0,0,0,2.27.89,2.12,2.12,0,0,0,1.83-.45,5,5,0,0,0,1.18-1.53c0-.26.12-.73.22-1.39s.23-1.37.38-2.11.27-1.44.37-2.1.18-1.13.23-1.4q.77-4.86,1.31-9.55t1.32-9.56l1.09-6.86,1.14,3.62,7.56,17.71a2.09,2.09,0,0,0,.36,1.08,5.48,5.48,0,0,0,.85,1.07,5.82,5.82,0,0,0,1,.82,1.77,1.77,0,0,0,1,.32,2.77,2.77,0,0,0,1.95-.42,4.14,4.14,0,0,0,1.2-1.41,7.69,7.69,0,0,0,.7-1.84c.16-.66.31-1.28.46-1.85l9.42-22.21.47-.41a14.08,14.08,0,0,1,.14,3.21c-.07,1.13-.18,2.26-.33,3.38s-.31,2.22-.49,3.31-.31,2.12-.4,3.08l-.12.72-.5,18.56.58,4.58a3.21,3.21,0,0,0,.62,1,8.6,8.6,0,0,0,.79.94l.55.13c.31.08.55.13.71.16,1.33.21,2.25,0,2.75-.59a8.6,8.6,0,0,0,1.37-2.68,6.57,6.57,0,0,1-.22-1.18c-.08-.56-.16-1.16-.25-1.8S138,274,138,273.47s-.07-1-.08-1.24c0-.44-.05-1.23,0-2.37s0-2.35,0-3.63,0-2.49.05-3.63,0-2,.06-2.44l0-.32c.05-.32.12-1,.21-2.09s.21-2.34.36-3.79l.45-4.63c.15-1.63.28-3.18.41-4.63s.22-2.72.31-3.79.17-1.8.23-2.17c.09-1,.26-2.1.49-3.4a15.34,15.34,0,0,0,.24-3.8A7.15,7.15,0,0,0,139.79,228.28Z"></path><path class="cls-1" d="M189,240.07c-.09-.42-.26-1.17-.5-2.25s-.51-2.21-.8-3.42-.56-2.32-.8-3.37-.4-1.79-.49-2.21A5.18,5.18,0,0,0,185,227a2.52,2.52,0,0,0-2.14-.31,3.74,3.74,0,0,0-2.18,1.36,6.86,6.86,0,0,0-1.22,2.29L173,254.79c0,.12-.14.48-.34,1.07s-.35,1-.46,1.26a.77.77,0,0,1-.2.21c-.09.08-.14.14-.12.2l-.48-.64-11.94-22.07a8.47,8.47,0,0,1-1.62-2.24c-.44-.87-.9-1.71-1.39-2.54a14.23,14.23,0,0,0-1.67-2.28,5.51,5.51,0,0,0-2.45-1.52l-.63.14a4,4,0,0,0-2.88,1.92,7.11,7.11,0,0,0-.75,3.31,16.57,16.57,0,0,0,.47,3.78c.32,1.29.55,2.4.71,3.36.08.37.2,1.09.36,2.15s.34,2.33.55,3.77.44,3,.69,4.6.5,3.16.73,4.59.44,2.69.59,3.76.27,1.76.34,2.07l.07.32q.09.72.21,2.43c.09,1.14.18,2.35.27,3.62s.18,2.48.27,3.62.13,1.93.12,2.37c0,.28,0,.69,0,1.24s0,1.16-.09,1.8-.09,1.25-.13,1.81a9,9,0,0,1-.15,1.19,8.59,8.59,0,0,0,1.53,2.6c.54.57,1.46.71,2.78.41.15,0,.39-.1.7-.2l.54-.16a9.68,9.68,0,0,0,.73-1,3.09,3.09,0,0,0,.55-1l.3-4.62-1.64-18.48-.16-.71c-.16-1-.36-2-.6-3s-.46-2.17-.68-3.28-.4-2.23-.54-3.35a14.57,14.57,0,0,1-.06-3.22l.5.39L167.74,264c.19.57.38,1.17.57,1.82a8.15,8.15,0,0,0,.82,1.8,4,4,0,0,0,1.29,1.33,2.84,2.84,0,0,0,2,.3,1.94,1.94,0,0,0,1-.39,5.9,5.9,0,0,0,1-.87,5.42,5.42,0,0,0,.78-1.13,2.13,2.13,0,0,0,.29-1.1l6.46-18.14.92-3.68,1.51,6.78c.71,3.2,1.35,6.35,1.9,9.46s1.19,6.25,1.9,9.46c.06.26.16.72.31,1.37s.31,1.35.5,2.08.36,1.42.51,2.08.25,1.12.31,1.38A5.11,5.11,0,0,0,191,278a2.1,2.1,0,0,0,1.85.33,4.43,4.43,0,0,0,2.21-1,3.82,3.82,0,0,0,1-2.16q-1.8-8.78-3.46-17.54T189,240.07Z"></path><path class="cls-1" d="M230.14,244.11a3.57,3.57,0,0,0-1.19-.7,3,3,0,0,0-1.1,0,1.46,1.46,0,0,0-1,.36c-.1,0-.32.28-.64.77s-.58.86-.76,1.11q-3,5.25-4.82,8.68l-3,5.5c-.74,1.39-1.27,2.38-1.58,3s-.5,1-.58,1.16-.43.7-.78,1.2a3.28,3.28,0,0,1-.61.75l-.31.06a41.13,41.13,0,0,0-1.37-5.62,41.85,41.85,0,0,1-1.37-5.62c0-.22-.08-.49-.14-.84s-.1-.68-.13-1-.08-.75-.17-1.28l10.53-13.17a3.68,3.68,0,0,0,1-2.05,6.94,6.94,0,0,0,0-2.22,2.89,2.89,0,0,0-1-1.7,2,2,0,0,0-1.74-.61,18,18,0,0,0-1.38,1.5c-.87,1-1.87,2.14-3,3.42l-3.36,3.81c-1.1,1.25-1.9,2.14-2.41,2.66l-.07.1h-.08a5,5,0,0,1-.52-1.35c-.29-.9-.59-1.94-.89-3.12s-.62-2.31-.91-3.4-.48-1.86-.55-2.28a8.14,8.14,0,0,1-.1-1.05.86.86,0,0,1,.42-.89l8.12-5.23.26-.37,9.57-6.79a1.89,1.89,0,0,0,.91-1.38,5.62,5.62,0,0,0,0-1.64,2.06,2.06,0,0,0-.58-1.25,2.15,2.15,0,0,0-1.41-.37,2,2,0,0,0-1.18,0,14.31,14.31,0,0,0-2.46,1.23q-1.78,1.05-5.25,3.27L204.78,225a3.17,3.17,0,0,0-.61.23c-.31.13-.54.24-.69.32l-.31.05a1.08,1.08,0,0,1-.92-.33,1.13,1.13,0,0,0-1-.33,5.21,5.21,0,0,0-3.48,1.66,5.06,5.06,0,0,0-.43,3.76,4.54,4.54,0,0,0,1,2.28,5.12,5.12,0,0,1,1.12,2.26c.13.47.35,1.33.64,2.59s.62,2.6,1,4,.69,2.75,1,4,.53,2.15.62,2.68l.2,1.19a2.57,2.57,0,0,1-.07,1.28c-.12.38-.26.73-.39,1.05s-.27.66-.4,1a2.68,2.68,0,0,0,.34,2.28,2.78,2.78,0,0,0,.62.5,3.67,3.67,0,0,0,.63.31.74.74,0,0,1,.44.41,10.15,10.15,0,0,1,.81,2.85,29.52,29.52,0,0,0,.53,3.15q.71,3.15,1.58,5.91a60.54,60.54,0,0,0,2.22,5.8,7.79,7.79,0,0,0,1.55,1.21,2.84,2.84,0,0,0,1.78.11,7.77,7.77,0,0,0,4.38-2.42,22.91,22.91,0,0,0,3.36-4.59,47.65,47.65,0,0,0,2.56-5.34q1.13-2.78,2-4.71c.37-.72.91-1.68,1.64-2.86s1.44-2.42,2.16-3.69a36.79,36.79,0,0,0,1.8-3.62,5.21,5.21,0,0,0,.56-2.67A2.14,2.14,0,0,0,230.14,244.11Z"></path><path class="cls-1" d="M305.25,223.42a2.75,2.75,0,0,0-1.87-1.89,6.62,6.62,0,0,0-2.89-.13,21.39,21.39,0,0,0-3.14.76c-1,.33-1.88.58-2.49.72l-43.62,12.39,11.45-17.43q3.82-5.85,3.93-7a16.08,16.08,0,0,0,1.19-3.57,26.48,26.48,0,0,0,.56-4.09,25.63,25.63,0,0,0-.11-4.12,16.45,16.45,0,0,0-.84-3.8,3.9,3.9,0,0,0-2-2.31,8.48,8.48,0,0,0-3.1-.85,12.84,12.84,0,0,0-3.44.16,19.42,19.42,0,0,0-2.9.72,25.11,25.11,0,0,0-6.9,3.69,28.29,28.29,0,0,0-5.46,5.47l-.36.13-4.43,7.86c-.25,0-.51-.22-.75-.73a7.8,7.8,0,0,0-1.06-1.58,4.17,4.17,0,0,0-1.83-1.21,4.67,4.67,0,0,0-3,.27,3.82,3.82,0,0,0-1.11.54,1.65,1.65,0,0,0-.57.65,2.45,2.45,0,0,0-.21,1c0,.41-.06.92-.11,1.54l.07.18.06.17c.1.3.31.84.62,1.63l1,2.51c.34.87.68,1.7,1,2.48s.57,1.32.67,1.62a3.55,3.55,0,0,1,.16,2c-.15.62-.33,1.22-.52,1.79a18.5,18.5,0,0,0-.53,1.78,3.55,3.55,0,0,0,.16,2,3,3,0,0,0,1.11,1.61,3.53,3.53,0,0,0,1.45.54,9.09,9.09,0,0,0,1.33.08c.39,0,.65.07.77.23.6,1.32,1.15,2.53,1.63,3.62s1,2.3,1.42,3.6a4.89,4.89,0,0,1,.3,1.55,4.59,4.59,0,0,0,.29,1.54,4.3,4.3,0,0,0,.91,1.58c.37.41.88.93,1.5,1.57l7.64,17.11a2.19,2.19,0,0,0,1.06,1,8.27,8.27,0,0,0,1.54.56,5.68,5.68,0,0,0,1.62.18,4.37,4.37,0,0,0,1.32-.22,2.13,2.13,0,0,0,1.18-.92,3.86,3.86,0,0,0,.49-1.42,5.05,5.05,0,0,0,0-1.6,9.22,9.22,0,0,0-.35-1.42,38.77,38.77,0,0,0-2.85-6.24,40.55,40.55,0,0,1-2.92-6.42,1.09,1.09,0,0,1,0-.49c0-.21.07-.33.13-.35q8.27-2.92,14.6-4.95t11.14-3.43q4.8-1.4,8.31-2.23c2.33-.56,4.39-1,6.16-1.38l4.67-.94c1.34-.27,2.62-.56,3.85-.86l1.51-.53,1.51-.54a3.54,3.54,0,0,1,.5-1,4.65,4.65,0,0,0,.51-.83,2.88,2.88,0,0,0,.25-1A3.35,3.35,0,0,0,305.25,223.42Zm-58.6,5.37a1.42,1.42,0,0,1-.38.34l-.27.09q-1-2.25-1.77-4.17c-.52-1.29-1-2.67-1.56-4.15l-.5-1.42a100.56,100.56,0,0,1,5.25-9.36,51.63,51.63,0,0,1,4.25-5.79,19,19,0,0,1,3.42-3.21,12.71,12.71,0,0,1,2.87-1.51l1.46-.52a.81.81,0,0,1,1.16.59,8.62,8.62,0,0,1,.31,3.14,28.34,28.34,0,0,1-.54,4.14,28.8,28.8,0,0,1-1.15,4.11,10.1,10.1,0,0,1-1.56,3q-4,5.52-6.28,8.56c-1.49,2-2.59,3.52-3.32,4.47S246.85,228.59,246.65,228.79Z"></path><path class="cls-1" d="M130.4,147.7l4.35,19.86S209.85,170,212,129.39c1.95-36.61-24-31.45-29.21-30.06a8.73,8.73,0,0,0-1.57.59c-10.46,5.21-11,9.86-8.36,13.41a3.74,3.74,0,0,0,6.53-1.12,4.53,4.53,0,0,1,.39-.9,5.94,5.94,0,0,1,5.54-3c21.82,1,14.83,23.33,14.83,23.33C177.79,160.59,130.4,147.7,130.4,147.7Z"></path><path class="cls-1" d="M139.14,121.69a2.71,2.71,0,0,1,2.64,1.19,2.15,2.15,0,0,1,.21.4,1.72,1.72,0,0,0,3,.28c1.07-1.71.68-3.82-4.28-5.85a3.89,3.89,0,0,0-.74-.21c-2.42-.46-14.49-2-12.35,14.74a13.89,13.89,0,0,0,7.07,10.35c16.67,10.78,46.49-4.35,46.49-4.35-13.53,4.42-28.79,2.41-33.38,1.65h-.09l-1.29-.23-.15,0a21.93,21.93,0,0,1-13.15-6.79S129.19,122.89,139.14,121.69Z"></path><path class="cls-1" d="M201,156.15c-23,24.91-65.64,15.13-65.64,15.13l3.1,21.88c53.38,16.61,75.11-17.57,91.05-37.24,9.47-11.68,20.17-10.43,27.3-7.49a11.45,11.45,0,0,1,6.72,8.82,2.68,2.68,0,0,0,.07.27,3,3,0,0,0,5.16,1c11.93-14.06-9.1-19.16-9.1-19.16S224.05,131.25,201,156.15Z"></path><path class="cls-1" d="M246.32,109.19c-13.55,2.06-1.92,4.56-1.92,4.56s10.49-1.37-5.9,7.86-24.12,2.77-24.12,2.77a20.34,20.34,0,0,1-1.32,14.35c-2.91,6.18,9.34,1.1,14.45-1.22a18,18,0,0,1,4.58-1.4c5-.86,16.54-3.08,20.85-6.13C259.83,125.09,259.88,107.13,246.32,109.19Z"></path><path class="cls-1" d="M2.09,87.52a59.4,59.4,0,0,1,24.09-4.46c7.1.27,13.85,2.24,20.43,4.79,6.87,2.65,13.43,5.2,20.86,5.73A90,90,0,0,0,88.2,92.5c6.11-1,11.78-3.22,16.06-7.8q-3-6.28-6-12c-3.89,2.33-7.93,4.71-12.33,5.94-4.14,1.16-8.43,1.11-12.69,1.11A82.33,82.33,0,0,1,59.82,79a43.21,43.21,0,0,1-11.35-3.79C41.09,71.73,35.62,66,28.89,61.51a34.6,34.6,0,0,0-12.07-4.92c0,.33,0,.65,0,1,0,0-.06-.35-.13-1A62.69,62.69,0,0,0,4,55.42a3,3,0,0,1-.61-.06A138.36,138.36,0,0,0,1.72,87.7,2.53,2.53,0,0,1,2.09,87.52Z"></path><path class="cls-1" d="M111.54,107.35a2.54,2.54,0,0,1,1.95-.82c-2.19-5.78-4.45-11.24-6.75-16.42a32.84,32.84,0,0,1-17.39,7.83A98.14,98.14,0,0,1,67.91,99.2c-7.57-.5-14.31-2.64-21.32-5.39-6.84-2.69-13.81-5-21.23-5.19A55.53,55.53,0,0,0,3.57,92.91a2.62,2.62,0,0,1-1.37.18,131.32,131.32,0,0,0,7,30.42,2.46,2.46,0,0,1,1.32-1.57,72,72,0,0,1,12.16-5,85.23,85.23,0,0,1,13.82-2.69c8.83-1.24,18-2.25,26.93-1.61,4.44.31,8.78,1.49,13.11,2.39a42.58,42.58,0,0,0,13.14.44,61.23,61.23,0,0,0,11-2.06,104.07,104.07,0,0,0-7.29-14.23,110.26,110.26,0,0,1,8.77,13.75A23.93,23.93,0,0,0,111.54,107.35Z"></path><path class="cls-1" d="M31.77,10.62S18.44,24.81,17,50.87a39.83,39.83,0,0,1,11.42,3.82c6.92,3.65,12.18,9.61,18.89,13.57A43.93,43.93,0,0,0,58,72.91a49.13,49.13,0,0,0,12.68,1.27c4.29,0,8.73.32,12.92-.69s8.11-3.36,11.85-5.6l.12-.06q-5-8.82-10-16.18A115.1,115.1,0,0,1,242.44,108.3l6.82-3A122.55,122.55,0,0,0,81.15,45.51C51.81,6,23.43,0,23.43,0c-9.84,17.77-15.8,34.45-19,49.84a73,73,0,0,1,11.9.92C16.21,41.11,18.05,23.22,31.77,10.62Z"></path><path class="cls-1" d="M33.06,161.43a224.69,224.69,0,0,1,58.21,35.2,53.16,53.16,0,0,0,42.83,11.64l3.85-.64c-5.35-38.8-13.34-70.41-22.64-96.16a27.62,27.62,0,0,1-10.64,6.36c19.37,40.82,6.91,80.26,6.91,80.26a154.75,154.75,0,0,0-8.79-79.65,78.1,78.1,0,0,1-8.07,1.87,57.65,57.65,0,0,1-13.69.9c-4.53-.26-8.87-1.54-13.31-2.37-9-1.7-18.82-.62-27.84.54-9.28,1.18-18.17,3-26.52,7.38a2.67,2.67,0,0,1-3-.24c8.37,21.52,19.58,33.62,19.58,33.62Z"></path></g></g></svg>