<svg xmlns="http://www.w3.org/2000/svg" viewBox="0 0 280.91 237.36"><defs><style>.cls-1{fill:#272525;}</style></defs><g id="Layer_2" data-name="Layer 2"><g id="Object"><path class="cls-1" d="M29,138.08a12.51,12.51,0,0,0,4.63-9.72,11.91,11.91,0,0,0-1.22-5.58,9.38,9.38,0,0,0-3.15-3.61A21.39,21.39,0,0,0,24.94,117a48.92,48.92,0,0,0-4.75-1.46c-1.6-.41-3-.83-4.34-1.28a7.83,7.83,0,0,1-3.16-1.91,4.55,4.55,0,0,1-1.21-3.29A3.82,3.82,0,0,1,12.79,106a5.09,5.09,0,0,1,3.35-1.09,4.56,4.56,0,0,1,3.35,1.31,6,6,0,0,1,1.56,3.73H32.91c-.12-4.72-1.68-8.17-4.65-10.36s-6.88-3.29-11.71-3.29S7.76,97.53,4.66,100a12.2,12.2,0,0,0-4.66,10,11.77,11.77,0,0,0,1.21,5.52,9.12,9.12,0,0,0,3.16,3.57,23.62,23.62,0,0,0,4.3,2.14,46.76,46.76,0,0,0,4.76,1.5c1.59.4,3,.84,4.33,1.3A8.44,8.44,0,0,1,20.92,126a4.22,4.22,0,0,1,1.21,3.12,4.1,4.1,0,0,1-1.34,3.16,5.21,5.21,0,0,1-3.7,1.24c-3.36,0-5.18-1.78-5.48-5.35H0q0,6.69,4.62,10.33t12.19,3.63C21.85,142.13,25.91,140.79,29,138.08Z"></path><path class="cls-1" d="M42,96.91v26.73q0,8.8,5.36,13.65a18.87,18.87,0,0,0,13.14,4.84,21.52,21.52,0,0,0,9.22-2,16.71,16.71,0,0,0,7-6.29,18.47,18.47,0,0,0,2.77-10.23V96.91H68.63v26.73a8.66,8.66,0,0,1-2,6.18A7.66,7.66,0,0,1,60.72,132a7.44,7.44,0,0,1-5.8-2.17,8.83,8.83,0,0,1-2-6.18V96.91Z"></path><polygon class="cls-1" points="139.56 141.69 139.56 96.91 127.06 96.91 114.24 127.78 101.35 96.91 88.85 96.91 88.85 141.69 99.76 141.69 99.76 116.43 110.16 141.69 118.26 141.69 128.66 116.43 128.66 141.69 139.56 141.69"></polygon><polygon class="cls-1" points="199.84 141.69 199.84 96.91 187.34 96.91 174.52 127.78 161.63 96.91 149.13 96.91 149.13 141.69 160.04 141.69 160.04 116.43 170.43 141.69 178.53 141.69 188.93 116.43 188.93 141.69 199.84 141.69"></polygon><polygon class="cls-1" points="236.52 105.08 236.52 96.78 209.41 96.78 209.41 141.69 236.52 141.69 236.52 133.4 220.31 133.4 220.31 123 234.6 123 234.6 114.71 220.31 114.71 220.31 105.08 236.52 105.08"></polygon><path class="cls-1" d="M269.94,123.45q5.35-1.55,7.72-5.24a13.94,13.94,0,0,0,2.36-7.59,12.75,12.75,0,0,0-4.34-9.69q-4.33-4-12.12-4H245.89v44.78H256.8V124.27h1.27l10.08,17.42h12.76Zm-2.46-8.93a5.24,5.24,0,0,1-3.92,1.46H256.8V105.2h6.76a5.14,5.14,0,0,1,3.89,1.53,5.44,5.44,0,0,1,1.47,3.93A5.28,5.28,0,0,1,267.48,114.52Z"></path><path class="cls-1" d="M15.94,59.81l27-5.79-22.1,9.62c11.52,8.22,26.77,14.1,42,18.29l13.71-8.28L75.32,85c6.59,1.47,13,2.63,18.8,3.56,15.8-4.89,32.55-6,48.1.93l.16-1.63L146.91,93l4.2-.84,6.72-4.4A55.18,55.18,0,0,1,167,85.59l.12-.24.11.2a47.46,47.46,0,0,1,13.31,0c3-1,6.74-2.32,11.45-4.05l-1-9.84,13,5.12c14.52-6.18,38.63-12,48.95-21.69l-14.36-5.39,18.7,1a48.7,48.7,0,0,0,7.2-10.5s-51.89-14.57-101.66,13.8c1.64-1.49,3.29-2.91,5-4.28L169.82,44l4.41.72c10.91-7.84,16.88-11.35,27.34-15.25l0-.13-2.86-2.65s7.4-1.94,9.91-1.14A101.67,101.67,0,0,0,225.52,13.6L208.83,9.09a37.62,37.62,0,0,0-20.11.31c-23.08,6.9-36,26.52-41.87,41.94.33-20.53-7.94-45.11-42.15-50L85.51,0a98.38,98.38,0,0,0,4.63,12.7c2.6,1.27,6,3.17,6,3.17l-3.34,2.72c1.56,3.26,3.42,6.88,5.61,10.78a82.68,82.68,0,0,1,8.89,4.55l.31-.08,0,.26c1.43.86,2.84,1.77,4.21,2.73,2.28-.18,5.64-.33,5.64-.33a14.91,14.91,0,0,0,1.34,5.89,64.74,64.74,0,0,1,10.14,11.77C86,12.66,7.41,50.36,7.41,50.36A48.12,48.12,0,0,0,15.94,59.81Z"></path><path class="cls-1" d="M139,159.29v.2c-15.74-3.63-92.74-19.93-125.94.25l1.1,14.06s10.07,3.11,15.46,33.6l.21,1.16c5.34,31.57,46.92,37.73,85.43,15.77a61.1,61.1,0,0,0,13.86-27.49s2.12-12.06,7.88-14.55a.39.39,0,0,1,.08-.1,6.09,6.09,0,0,1,3.83-1.16c7.89-.86,10.58,15,10.58,15a61.05,61.05,0,0,0,13.68,27.59c38.37,22.21,80,16.32,85.53-15.21l.21-1.16c5.6-30.45,15.68-33.5,15.68-33.5l1.2-14.05C230.88,136.94,139,159.29,139,159.29ZM33.25,193.23a107.28,107.28,0,0,1-2-16.91,13.54,13.54,0,0,1,9-13.39C50.4,159.33,68,154.82,87,157.67Zm6.18,17.31,49-52.66a72.16,72.16,0,0,1,23.17,8,13.46,13.46,0,0,1,2.18,1.52L39.69,211Zm36.83,17.39A31.89,31.89,0,0,0,73,228a37.14,37.14,0,0,1-8.69-.05l39.75-13.47C97.75,222.16,88.82,227.81,76.26,227.93Zm28.91-14.86-50,12.32c-.73-.32-1.45-.67-2.18-1.06l65.13-43.42C116.42,190,112.81,203,105.17,213.07Zm59.23-20.86a108.83,108.83,0,0,1-1.75-15.81,13.52,13.52,0,0,1,9-13.37c9.94-3.47,26.9-7.77,45.3-5.33Zm43.12,35.94a29,29,0,0,0-3.22,0,36.82,36.82,0,0,1-11.4-.54l43.95-14.74C230.41,221.54,221.07,228.07,207.52,228.15Zm42.15-47.79c-1.54,8.61-4.87,21.22-11.94,31.32L184.49,224.6c-.42-.22-.84-.46-1.26-.71l66.51-44C249.72,180,249.7,180.2,249.67,180.36ZM243,166.26a12.47,12.47,0,0,1,1.24.8l-73.8,43.08-.09-.19L219,158A72.17,72.17,0,0,1,243,166.26Z"></path></g></g></svg>