<svg xmlns="http://www.w3.org/2000/svg" viewBox="0 0 381.83 288.01"><defs><style>.cls-1{fill:#272525;}</style></defs><g id="Layer_2" data-name="Layer 2"><g id="Object"><path class="cls-1" d="M97.09,237.18a17.6,17.6,0,0,0-6.26-4.78c-1.19-.76-5.87-1.69-7.51-1.7a24.62,24.62,0,0,0-4.32.36,45.88,45.88,0,0,0-8.53,2.63c0,.24-.69.71-1.53.82a17.46,17.46,0,0,0-6.2,5.46,10.11,10.11,0,0,0-1.8,4.54,12.87,12.87,0,0,0,2.77,10.69c2.61,3.62,5.54,5.73,11.59,8.35,6.48,2.93,7.23,3.38,8.66,4.68,1.57,1.89,2,2.7,1.59,5.33a6.8,6.8,0,0,1-2.93,4.93,7.63,7.63,0,0,1-6.68,1.3,26.65,26.65,0,0,1-8-3.44c-1.15-1-4.94-1.37-6.34-.78-2,.74-2.68,2.85-1.29,4.38a62.45,62.45,0,0,0,5.27,3.88c5.77,2.82,13.67,4.1,18.88,3.31a22.29,22.29,0,0,0,8.34-3.48,20.64,20.64,0,0,0,3.49-4.84,15.59,15.59,0,0,0,1.15-7.11,16.57,16.57,0,0,0-2.82-5.86c-.76-.37-1.15-1-1.11-1.24-.52-.33-4.13-2.8-5.88-3.66-1-.4-3-1.47-4.78-2.33-7-3-9.14-4.75-10.38-8.72-.89-2.6-.11-5.92,1.43-7.31a23.12,23.12,0,0,1,9.76-5.13c1.68-.3,1.92-.26,2.87.46a7.33,7.33,0,0,1,2.56,3.94,12.27,12.27,0,0,1-1,6.3c-.37.76-.48.91,0,1.56.39,1.13,1.58,1.89,3.41,2.19a4.73,4.73,0,0,0,4.25-.95,8.72,8.72,0,0,0,3-3.77,8.4,8.4,0,0,0,.55-3.44A11.56,11.56,0,0,0,97.09,237.18Z"></path><path class="cls-1" d="M144.65,233.61a9.63,9.63,0,0,0-6.55,1.13c-1.14,1.54-1.14,0-.73,17,.4,7.68,0,12,0,15-.81,6.14-2.35,10-5,12.69-1.54,1.54-1.86,1.94-2.67,1.54a11.21,11.21,0,0,1-3.88-2.35c-2.35-2.66-3.48-12.69-2.35-25.38,0-4.21.41-9.7.41-12.37,0-5.42-.33-6.47-2.27-7.28-1.53-.81-4.69-1.21-6.22-.4-1.94.81-2.35,1.94-1.94,4.61a17.84,17.84,0,0,1-.32,4.6,81.73,81.73,0,0,0-1.54,20.86c.4,11.16,1.13,15.36,4.61,18.84a17.59,17.59,0,0,0,10,5.42c10.43,2.34,19.24-4.21,21.91-17.3.81-3.48.81-5,.81-17C148.93,236.28,148.53,234.74,144.65,233.61Z"></path><path class="cls-1" d="M215.22,265.58a3.89,3.89,0,0,1-1.85-2.45c-.64-.79-2.51-8.66-4.17-17.57-4-19-5.9-26.45-7-27.64-1.2-1.58-2.58-1.9-5.19-.92-1.66.8-2.62,1-3.24,2.49-.71,1-1.35,2.47-1.74,3a3.29,3.29,0,0,1-.53,2,12,12,0,0,1-1.18,3.42c-.62,1.52-2,4.48-3,6.48-2,4.47-1.87,4.54-4.59,2.25-2.25-2.38-9.3-10.2-9.39-10.67s-1.12-1.19-2.16-1.9a8.14,8.14,0,0,0-8.44-.74c-2.06,1.29-2,1.77.92,17.35,1,8.11,3.15,19.15,4.22,25,1.82,9.78,1.82,9.78,2.95,11a5.75,5.75,0,0,0,2.78.39c2.7-.5,3.72-2.09,3.7-4.88.14-4.14-.81-14.08-1.82-22.19-.83-4.45-1.16-8.91-1.25-9.39.15-1.84.14-1.92,2.39.46,1.12,1.19,3.27,2.6,4.4,3.79,2.07,1.42,3,1.74,4.78,1.41,1,.32,2.71-.5,3.18-.59,1.59-1.2,3.79-4.4,6.15-9,1.25-3,1.26-2.95,2.67,4.6.73,4,2.14,11.52,3.13,16.85,2.13,8.81,2,8.83,3.81,10.8s3.28,2.6,6.95,2.41c2.31.07,4.76-1.37,5.38-2.89A2.41,2.41,0,0,0,215.22,265.58Z"></path><path class="cls-1" d="M288.31,236.74a3.86,3.86,0,0,1-2.53-1.74c-.86-.55-5.11-7.43-9.48-15.36-9.79-16.77-13.92-23.26-15.36-24-1.64-1.13-3-1-5.22.75-1.32,1.28-2.17,1.75-2.29,3.38-.35,1.21-.5,2.77-.69,3.43a3.34,3.34,0,0,1,.12,2.06,12.23,12.23,0,0,1,0,3.62c-.12,1.63-.46,4.87-.8,7.09-.46,4.86-.35,4.9-3.66,3.58-2.88-1.55-12-6.76-12.26-7.18s-1.44-.78-2.65-1.12a8.16,8.16,0,0,0-8.25,1.95c-1.55,1.87-1.32,2.3,6.33,16.18,3.52,7.38,9,17.19,11.86,22.36,4.8,8.71,4.8,8.71,6.24,9.48a5.73,5.73,0,0,0,2.76-.51c2.41-1.32,2.88-3.15,2-5.79-1.17-4-5.19-13.11-8.71-20.5-2.18-4-3.9-8.09-4.14-8.52-.43-1.79-.47-1.86,2.41-.31,1.45.77,3.93,1.43,5.38,2.21,2.41.7,3.42.69,5-.16,1,0,2.41-1.33,2.83-1.56,1.13-1.64,2.22-5.38,3-10.44.23-3.26.27-3.19,4,3.53l8.27,15c4.8,7.69,4.73,7.73,7,9.05s3.93,1.44,7.35.11c2.22-.67,4.09-2.81,4.2-4.44A2.4,2.4,0,0,0,288.31,236.74Z"></path><path class="cls-1" d="M326.88,193c-1.3.87-3.74,3.24-4.35,4.79a54.91,54.91,0,0,1-7.44,10.25c-1.3,1.33-1.24,1.27-2.34-.26-.64-.62-2.66-2.94-4.17-4.41-5.5-6.63-5.2-5.55-2.43-8.84,2.77-2.83,5.35-6.74,5.51-7.83.82-3.5-1.54-5-5-3.66-1.54.64-3.46,2.72-6.21,6.81a15.28,15.28,0,0,1-1.7,2.19c-.22.23-11.32-11.54-11.1-11.77,0,0,1.69-2.19,3.84-4.85,4-5,4.9-6.28,4.88-8.45s-2.49-3.24-4.82-2.12c-1.54.64-3.86,3-7.47,7.62-2.76,3.29-2.71,3.35-3.62,3.36a7.34,7.34,0,0,0-5.39,4.11c-.45.47-.33,1.27-.55,2,0,.92-.05.86,8.27,9,4.39,4.3,9.42,9.57,11.16,11.72,2,1.92,6.13,6.45,9.83,10.07,7.62,7.47,8.08,7.46,10.42,6.81a3.19,3.19,0,0,0,2.72-2.43,5.07,5.07,0,0,1,2.2-2.6A93.08,93.08,0,0,0,328,204c2.52-4.31,2.92-5.18,3.37-5.64a6.28,6.28,0,0,1,.44-1.72,2.59,2.59,0,0,0-.5-3.42A4.12,4.12,0,0,0,326.88,193Z"></path><path class="cls-1" d="M365.55,143.16c-2.06-.42-4.57,1.69-5.18,4-.43,1.08-.77,1.14-3.15,1.18-1,0-2.42.11-2.42.11a.87.87,0,0,1-.61-.11c-.2-.14-.78.15-1.39,0s-1.43.1-2,0a.67.67,0,0,0-.78.15,1.19,1.19,0,0,1-.65,0c-.2-.14-1.26-.17-2.06-.43-1,0-2.89-.2-4.28-.17a12.82,12.82,0,0,0-3.05-.41c-.52.33-.73-.5-.3-1.58a17.29,17.29,0,0,0,1.26-9.31c-.81-4.27-2.43-6.35-6.37-9-6.95-4.73-13.91-4-19.71,2.52a17.79,17.79,0,0,0-4.66,8.27c0,1-.21,1.33-.82,1.21A5.07,5.07,0,0,0,306,142a10.87,10.87,0,0,0-1.46,2.72c-.12.61-.42,1.48-.09,2,0,1,0,1,7.39,6.1,4.14,2.82,10.63,7.23,14.43,10.12,18,12.93,17.8,12.8,20.19,13.74,2.65,1.12,2.85,1.26,4.1.44a4.83,4.83,0,0,0,2.06-5.05c-.48-1.3-3.78-4.92-8.34-8.71a41.9,41.9,0,0,1-4.77-3.93c-1.13-.77-2.82-2.31-3.76-2.95-1.6-1.09-1.6-1.09-.33-.52,3.18.8,11.51,2.07,13.68,1.89a17.5,17.5,0,0,0,3,0c4.62.11,8-.3,10-1.72a7.21,7.21,0,0,0,1.25-.82c.2.14,1.1-.61,1.94-1.41,2.83-3.16,3.68-7.28,2-9.8C366.94,143.13,366.53,143.15,365.55,143.16ZM331,149.49c-1.39,2.48-1.28,2.45-6.22-1.2l-8.16-5.55c-3.07-2.39-3.13-2.43-3-3,.32-.46.44-1.07.76-1.54A7.56,7.56,0,0,1,317.2,134c2.34-1.44,5.5-1.05,9.65,1.77a13.94,13.94,0,0,1,5.06,5.5C333.47,144,333.38,146,331,149.49Z"></path><path class="cls-1" d="M381,46.74a14.44,14.44,0,0,0-4.2.18,9.56,9.56,0,0,0-3.59.78c-2.77,1.48-2.52,4.6-3.74,7.11-2,4.06-5.86.2-9.09,1.49-1.84.74-4.52,2.45-5.44,4.27-.57,1.14-.36,2.4-.44,3.63a5,5,0,0,1-2.93,4.42c-1.74,1-3.57.49-5.41.08a7.71,7.71,0,0,0-4.46.23,10.36,10.36,0,0,0-6,5.18c-.67,1.54-.35,3.3-1.16,4.77a4.59,4.59,0,0,1-5.31,2.3,15.66,15.66,0,0,0-9.33.61,24.41,24.41,0,0,0-1.62-7.59c.66,0,1.34,0,2,0,1.77,0,3.58.78,5.31.55a7.41,7.41,0,0,0,6.19-6.06c.42-2.6,1-4.28,3.38-5.75s4.13-1.07,6.65-.66a8.29,8.29,0,0,0,4.34-.16,7.4,7.4,0,0,0,5.09-6.28c.1-1-.12-2.48.3-3.37s1.49-1.38,2.22-1.85a8.93,8.93,0,0,1,2.31-1.33c1.13-.27,2.43.42,3.5.65,3.44.72,5.49-.74,6.78-3.84.69-1.64.62-4.23,2.23-5.3,1.26-.83,4.83-1.12,6.28-.86s2.09-2,.61-2.24a14.11,14.11,0,0,0-4.2.17,9.42,9.42,0,0,0-3.59.79c-2.77,1.47-2.51,4.6-3.73,7.1-2,4.07-5.86.2-9.09,1.49-1.84.74-4.52,2.45-5.44,4.27-.57,1.14-.37,2.41-.45,3.64A5,5,0,0,1,346,59.56c-1.74,1-3.57.49-5.4.08a7.92,7.92,0,0,0-4.47.23,10.41,10.41,0,0,0-6,5.19c-.67,1.53-.35,3.3-1.16,4.76a4.56,4.56,0,0,1-5.3,2.3,17.59,17.59,0,0,0-6.49-.22,22,22,0,0,0-3.51-4.79h.43c1.76,0,3.58.79,5.31.56a7.46,7.46,0,0,0,4-2,7.33,7.33,0,0,0,2.18-4.1c.42-2.59,1-4.27,3.38-5.74s4.13-1.07,6.65-.67a8.19,8.19,0,0,0,4.34-.15A7.42,7.42,0,0,0,345,48.77c.09-1-.12-2.48.3-3.38s1.49-1.37,2.22-1.84a9,9,0,0,1,2.31-1.34c1.13-.26,2.42.43,3.5.66,3.44.71,5.48-.74,6.78-3.84.69-1.65.62-4.24,2.23-5.3,1.26-.84,4.83-1.13,6.27-.86s2.1-2,.62-2.25a14.44,14.44,0,0,0-4.2.18,9.56,9.56,0,0,0-3.59.78c-2.77,1.48-2.52,4.6-3.73,7.11-2,4.06-5.86.2-9.1,1.49-1.84.73-4.51,2.44-5.43,4.27-.58,1.14-.37,2.4-.45,3.63a5,5,0,0,1-2.93,4.42c-1.74,1-3.57.49-5.4.08a7.75,7.75,0,0,0-4.47.23,10.36,10.36,0,0,0-6,5.18c-.67,1.54-.35,3.3-1.16,4.77a4.59,4.59,0,0,1-5.31,2.3,17.75,17.75,0,0,0-6.36-.25,30.61,30.61,0,0,0-4.66-3,15.05,15.05,0,0,1-1.31-1.42,13.66,13.66,0,0,1,4-.31c1.76.05,3.58.79,5.31.56a7.4,7.4,0,0,0,6.19-6.07c.42-2.6,1-4.27,3.38-5.74s4.13-1.07,6.65-.67A8.4,8.4,0,0,0,335,48a7.42,7.42,0,0,0,5.09-6.29c.1-1-.12-2.48.3-3.37s1.49-1.37,2.22-1.84a9,9,0,0,1,2.31-1.34c1.13-.26,2.42.43,3.5.65,3.44.72,5.49-.74,6.78-3.83.69-1.65.62-4.24,2.23-5.3,1.26-.84,4.83-1.13,6.27-.87s2.1-2,.62-2.24a14.12,14.12,0,0,0-4.2.18,9.41,9.41,0,0,0-3.59.78c-2.77,1.48-2.52,4.6-3.73,7.11-2,4.06-5.86.2-9.09,1.49-1.84.73-4.52,2.44-5.44,4.27-.57,1.13-.37,2.4-.45,3.63a5,5,0,0,1-2.93,4.42c-1.74,1-3.57.49-5.4.08a7.75,7.75,0,0,0-4.47.23A10.39,10.39,0,0,0,319,51c-.67,1.53-.35,3.3-1.16,4.76a4.58,4.58,0,0,1-5.3,2.31,16.16,16.16,0,0,0-8.69.34c-2.12-4.85,4.08-7,4.08-7l-27,2.26A124.47,124.47,0,0,0,65.47,176.44,53,53,0,0,0,63.59,184c-.33,0-.67.09-1,.12a9.42,9.42,0,0,0-3.59.79c-2.77,1.48-2.52,4.6-3.73,7.11-2,4.06-5.86.19-9.09,1.48-1.84.74-4.52,2.45-5.44,4.28-.57,1.13-.37,2.4-.45,3.63a5,5,0,0,1-2.93,4.41c-1.74,1-3.57.49-5.4.08a7.92,7.92,0,0,0-4.47.23,10.41,10.41,0,0,0-6,5.19c-.67,1.53-.35,3.3-1.16,4.76a4.58,4.58,0,0,1-5.3,2.31,15.5,15.5,0,0,0-9.45.65C2.05,220.65.69,223.84,0,227.4c-.27,1.47,2,2.09,2.25.62.44-2.38.94-4.44,2.91-6.07s4.09-1.6,6.41-1.54c1.76.05,3.58.78,5.31.55a7.41,7.41,0,0,0,6.19-6.06c.42-2.6,1-4.27,3.38-5.75s4.13-1.07,6.65-.66a8.29,8.29,0,0,0,4.34-.16,7.4,7.4,0,0,0,5.09-6.28c.1-1-.12-2.48.3-3.37s1.49-1.38,2.22-1.85a8.93,8.93,0,0,1,2.31-1.33c1.13-.26,2.43.43,3.5.65,3.44.72,5.49-.74,6.78-3.84.69-1.64.62-4.23,2.23-5.3a8.62,8.62,0,0,1,3.38-.87,31.25,31.25,0,0,0,.18,9.09c-.56,1.4-.78,3-1.47,4.44-2,4.06-5.86.2-9.09,1.49-1.84.73-4.52,2.44-5.44,4.27-.57,1.14-.36,2.4-.44,3.63a5,5,0,0,1-2.93,4.42c-1.74,1-3.57.49-5.41.08a7.71,7.71,0,0,0-4.46.23,10.36,10.36,0,0,0-6,5.18c-.67,1.54-.35,3.3-1.16,4.77A4.61,4.61,0,0,1,21.7,226a15.4,15.4,0,0,0-9.44.66c-3.49,1.65-4.84,4.84-5.51,8.4-.28,1.46,2,2.09,2.24.62.45-2.39.94-4.44,2.92-6.08S16,228,18.32,228.1c1.76.05,3.58.79,5.31.56a7.43,7.43,0,0,0,4-2,7.32,7.32,0,0,0,2.19-4.1c.42-2.6,1-4.27,3.38-5.74s4.12-1.07,6.65-.67a8.4,8.4,0,0,0,4.34-.15,7.45,7.45,0,0,0,5.09-6.29c.09-1-.13-2.47.3-3.37s1.49-1.37,2.22-1.84a9,9,0,0,1,2.31-1.34c1.13-.26,2.42.43,3.5.65,3.44.72,5.48-.74,6.78-3.83a6.45,6.45,0,0,0,.21-.62,21.49,21.49,0,0,0,4.88,7.53,8.89,8.89,0,0,1-.41,1c-2,4.06-5.86.2-9.09,1.49-1.84.74-4.52,2.45-5.44,4.27-.57,1.14-.36,2.4-.44,3.63a5,5,0,0,1-2.93,4.42c-1.74,1-3.57.49-5.41.08a7.71,7.71,0,0,0-4.46.23,10.41,10.41,0,0,0-6,5.18c-.66,1.54-.34,3.3-1.15,4.77a4.59,4.59,0,0,1-5.31,2.3c-2.93-.65-6.67-.66-9.45.66-3.48,1.65-4.83,4.84-5.5,8.4-.28,1.46,2,2.09,2.24.62.45-2.39.94-4.44,2.92-6.07s4.09-1.61,6.41-1.54c1.76,0,3.58.78,5.31.55a7.37,7.37,0,0,0,4-2,7.29,7.29,0,0,0,2.19-4.09c.42-2.6,1-4.28,3.38-5.75s4.12-1.07,6.65-.67a8.19,8.19,0,0,0,4.34-.15A7.45,7.45,0,0,0,56.37,218c.09-1-.13-2.48.3-3.38a5.8,5.8,0,0,1,2.22-1.84,9,9,0,0,1,2.31-1.34c1.13-.26,2.42.43,3.5.66,3.31.69,5.32-.64,6.62-3.5a30.11,30.11,0,0,0,4.55,3.07c-1,1.59-1.11,3.67-2,5.45-2,4.06-5.86.2-9.09,1.49-1.85.74-4.52,2.45-5.44,4.27-.58,1.14-.37,2.4-.45,3.63A5,5,0,0,1,56,230.94c-1.74,1-3.57.49-5.4.08a7.75,7.75,0,0,0-4.47.23,10.36,10.36,0,0,0-6,5.18c-.67,1.54-.35,3.3-1.16,4.77a4.58,4.58,0,0,1-5.3,2.3c-2.94-.65-6.68-.66-9.45.66-3.49,1.65-4.84,4.84-5.51,8.4-.27,1.46,2,2.09,2.25.62.44-2.39.94-4.44,2.91-6.07s4.09-1.61,6.41-1.54c1.76,0,3.58.78,5.31.55a7.41,7.41,0,0,0,6.19-6.06c.42-2.6,1-4.28,3.38-5.75s4.13-1.07,6.65-.67a8.19,8.19,0,0,0,4.34-.15,7.42,7.42,0,0,0,5.09-6.28c.09-1-.12-2.48.3-3.38S63,222.46,63.71,222A9,9,0,0,1,66,220.65c1.13-.26,2.42.43,3.5.66,3.44.71,5.48-.74,6.78-3.84.52-1.24.61-3,1.31-4.27,5.5,6.47-2.62,9.23-2.62,9.23l54.94-4.59s155.88-20.22,36.39-48.35c-101.73-23.94-56-54.74-40.13-63.37,6.43,2,28.2,8,39-.25l-15.61-12.6,1.32-16.83s-25.83,10.45-29.19,22.64c-7.53,7.42-25.15,25.54-39.14,45.48A101.26,101.26,0,0,1,255.73,55.75L253,56S97.12,76.2,216.61,104.33c101.72,23.94,56,54.74,40.13,63.37-6.43-2-28.2-8-39,.25l15.61,12.61L232,197.39s25.84-10.46,29.19-22.65c13.26-13.08,57.89-59.35,58.69-90.32,1.78-1.21,3.79-1.23,5.91-1.17,1.76,0,3.58.78,5.31.55a7.37,7.37,0,0,0,4-2,7.29,7.29,0,0,0,2.19-4.09c.42-2.6,1-4.28,3.38-5.75s4.12-1.07,6.65-.67a8.19,8.19,0,0,0,4.34-.15,7.44,7.44,0,0,0,5.09-6.28c.09-1-.13-2.48.3-3.38s1.49-1.37,2.22-1.84a9,9,0,0,1,2.31-1.34c1.13-.26,2.42.43,3.5.66,3.44.71,5.48-.74,6.78-3.84.68-1.65.62-4.23,2.23-5.3,1.26-.83,4.83-1.12,6.27-.86S382.46,47,381,46.74ZM161.44,180.11a3.21,3.21,0,1,1-3.21,3.21A3.21,3.21,0,0,1,161.44,180.11Zm60.88-93.57a3.21,3.21,0,1,1,3.2-3.21A3.21,3.21,0,0,1,222.32,86.54ZM181.93,19.2A105.89,105.89,0,0,0,76,125.09,106.32,106.32,0,0,0,79,149.88a140.26,140.26,0,0,0-9.55,16.76A117,117,0,0,1,272.28,54.37l-10.71.89A105.69,105.69,0,0,0,181.93,19.2Z"></path></g></g></svg>