<svg xmlns="http://www.w3.org/2000/svg" viewBox="0 0 283.06 279.26"><g id="Layer_2" data-name="Layer 2"><g id="Object"><path d="M59.58,185.09c-4,.55-8.2,1.19-12.41,1.5a116.29,116.29,0,0,0,11.88,11.82q5.1-1.44,10.09-3.11a131.3,131.3,0,0,1,12.35-6.41c4.87-2.33,9.55-5,14.28-7.64-2.57-.06-5.14-.1-7.7.06C78.48,181.92,69.2,183.78,59.58,185.09Z"></path><path d="M140.4,8.59,143.93,26l-17.11-3.79A8.93,8.93,0,0,0,116.37,33.6l34.17,108.29a8.83,8.83,0,0,0,3.16,4.47l-3,13.43c.22,0,.33,0,.23,0,.52-.1,1-.21,1.56-.33a31.73,31.73,0,0,0,4-1.31l1.22-.53,1.08-.51,2-9.18a8.84,8.84,0,0,0,4.76-2.71l76.69-83.75a8.93,8.93,0,0,0-4.66-14.75l-.05,0a22.23,22.23,0,0,0-42.95-9.5l-42.89-9.5L146.17,0l-.46.09h0l-44.4,8.45,1.38,7.24Zm78.26,22a14.9,14.9,0,0,1,11.65,14l-28.13-6.23A14.91,14.91,0,0,1,218.66,30.63ZM149.44,53.14l-.39.37c.27.61.55,1.22.83,1.83L150,56l-12.94-2.86,24,76.16,34-37.17a6,6,0,1,1,7-7.64l12.9-14.09L157.88,57.75l-4.49-22.13,82.7,18.31a1.57,1.57,0,0,1,.82,2.59l-76.69,83.74a1.57,1.57,0,0,1-2.66-.59L123.39,31.39a1.57,1.57,0,0,1,1.84-2l20.3,4.49Zm5.28,35.17a7.92,7.92,0,1,1,6,9.44A7.91,7.91,0,0,1,154.72,88.31Zm18.34-17a2.77,2.77,0,1,1,2.1,3.3A2.76,2.76,0,0,1,173.06,71.33Z"></path><path d="M218.12,33.38a1,1,0,0,0-1.22.94l-.23,5.6,2.16-5.18A1,1,0,0,0,218.12,33.38Z"></path><path d="M209,34.53a1,1,0,0,0-.2,1.53l3.8,4.12L210.42,35A1,1,0,0,0,209,34.53Z"></path><path d="M226.27,38a1,1,0,0,0-1.52-.2l-4.13,3.8,5.19-2.14A1,1,0,0,0,226.27,38Z"></path><path d="M11.82,177.67l78.85-1.08a25.26,25.26,0,0,0,15.58-5.69l6.58,6a25.58,25.58,0,0,0,6.67-3.42l-8.88-7.17a25.23,25.23,0,0,0,4.77-17.1l-6.85-77.53-17.38,19a8.43,8.43,0,0,0-.65-.69,6.07,6.07,0,0,0-3.16-1.52L87,85.75a6.15,6.15,0,0,0,1.67-10.17,6,6,0,0,0-3.21-1.53L84.2,64.57,81.06,65l1.23,9.41a6.15,6.15,0,0,0-1.92,10.27,6.19,6.19,0,0,0,3.48,1.57l.34,2.59a6.15,6.15,0,0,0-2,10.29,6.94,6.94,0,0,0,.75.59L41.45,145.2,23,139.1l0,0L7.79,133.79s6,8.3-2.49,12S1.07,158,1.07,158l15.21,5.28s-4.26-8.47,4.24-12.2c4.62-2,4.95-5.4,4.29-8.06l14.3,4.73ZM81.66,83.11a4,4,0,1,1,5.66-.26A4,4,0,0,1,81.66,83.11Zm1.7,8.69A4,4,0,0,1,89,91.54a4.53,4.53,0,0,1,.67.79l-5.22,5.72a4,4,0,0,1-.85-.59A4,4,0,0,1,83.36,91.8Zm7.3,15a4,4,0,1,1-5.66.26A4,4,0,0,1,90.66,106.84Zm-8.6,3.26a6.16,6.16,0,0,0,5.72,6.09l.94,7.16-.62.39c-3.48,2.45-5.09,6.27-6,10.4-1.61,7.57-8.25,12.12-13.72,17.43-.73.63-1.48,1.22-2.26,1.77l-18-6Zm-2.38,46.36a3.87,3.87,0,1,1-.25-5.47A3.86,3.86,0,0,1,79.68,156.46Zm-34-6.51,16.77,5.55a27.63,27.63,0,0,1-4.66,1.77,8.34,8.34,0,0,0-5.92,6.92l38.24-.53a12.8,12.8,0,0,0,12.58-13.92l-.28-3.12a6.93,6.93,0,1,1-1-11.42l-1.64-18.63c-2.11,2.14-5.21,3.63-8.08,5.12l-.8-6.11a6.22,6.22,0,0,0,1.84-1.38A6.14,6.14,0,0,0,89.39,104l-.23-1.71,14.33-15.7,5.58,63.14a18.75,18.75,0,0,1-.59,6.66l-.06-.15-.08-.18c-.07.55-.17,1.09-.27,1.64a18.72,18.72,0,0,1-3.78,6.3l-.07.08a18.62,18.62,0,0,1-13.64,6.13l-64.19.89Z"></path><path d="M103.51,57.46A10.08,10.08,0,1,0,93.43,47.38,10.09,10.09,0,0,0,103.51,57.46Zm0-18.29a8.21,8.21,0,1,1-8.21,8.21A8.22,8.22,0,0,1,103.51,39.17Z"></path><polygon points="104.52 40.68 102.54 40.68 103.53 46.22 104.52 40.68"></polygon><polygon points="99.5 41.96 98.1 43.36 102.72 46.58 99.5 41.96"></polygon><polygon points="110.19 48.35 110.19 46.37 104.65 47.36 110.19 48.35"></polygon><polygon points="96.82 46.29 96.82 48.27 102.36 47.28 96.82 46.29"></polygon><polygon points="102.53 54.13 104.51 54.13 103.52 48.59 102.53 54.13"></polygon><polygon points="107.56 52.76 108.96 51.37 104.35 48.15 107.56 52.76"></polygon><polygon points="108.96 43.25 107.56 41.85 104.35 46.46 108.96 43.25"></polygon><polygon points="98.21 51.37 99.61 52.77 102.82 48.16 98.21 51.37"></polygon><path d="M45.27,197.7a13.36,13.36,0,1,0-13.36,13.36A13.37,13.37,0,0,0,45.27,197.7ZM31.91,208.59A10.89,10.89,0,1,1,42.8,197.7,10.91,10.91,0,0,1,31.91,208.59Z"></path><polygon points="33.26 188.81 30.63 188.81 31.95 196.16 33.26 188.81"></polygon><polygon points="26.6 190.51 24.74 192.36 30.86 196.63 26.6 190.51"></polygon><polygon points="33.43 197.67 40.77 198.98 40.77 196.36 33.43 197.67"></polygon><polygon points="23.05 196.25 23.05 198.88 30.39 197.57 23.05 196.25"></polygon><polygon points="30.61 206.65 33.24 206.65 31.92 199.31 30.61 206.65"></polygon><polygon points="37.29 204.83 39.14 202.98 33.02 198.72 37.29 204.83"></polygon><polygon points="39.14 192.21 37.29 190.36 33.02 196.48 39.14 192.21"></polygon><polygon points="24.89 202.99 26.74 204.84 31 198.72 24.89 202.99"></polygon><path d="M51.65,83.93c1.42,4.28,3.17,8.42,5,12.52a8.47,8.47,0,0,1,.13-2.25q.09-1.53.33-3.06c.32-1.93.6-3.79.73-5.74A27.51,27.51,0,0,1,59.06,79a39.1,39.1,0,0,1,1.71-5c.59-1.28,1.33-2.51,2-3.74,1.22-2.16,2.6-4.23,3.74-6.44.63-1.21,1.39-2.35,2-3.54a39.52,39.52,0,0,0,2.06-4.49c1-2.41,1.72-4.93,2.5-7.4a68.42,68.42,0,0,0,2-6.65c.79-3.83,1.06-7.77-.47-11.45-1.4-3.38-4.33-7.28-8.44-7.17-5.14.13-9.51,3.58-12.52,7.44a36.74,36.74,0,0,0-7.5,22.44A81,81,0,0,0,47.41,65.9,112.45,112.45,0,0,0,51.65,83.93Z"></path><path d="M16.25,89.28a69,69,0,0,0,10.6,1.59c2.93.34,5.93.41,8.83.88a68.44,68.44,0,0,1,8.64,1.85,9.91,9.91,0,0,1,3.8,1.78,12.48,12.48,0,0,1,1.4,1.09c.49.54.94.92,1.47,1.43.71.68,1.14,1.6,1.89,2.22.45.38.79,1,1.32,1.24.54-.48.16-1.75,0-2.35a22.76,22.76,0,0,0-.53-2.48,21.84,21.84,0,0,0-1.42-4.09l0,0C51,89.88,49,88,47.29,86a30.65,30.65,0,0,0-4.77-4.26A29.46,29.46,0,0,0,34.4,78a32.78,32.78,0,0,0-13.86-1.55,13,13,0,0,0-8.15,3.65,5.09,5.09,0,0,0-1.24,5.67C12.08,87.76,14.26,88.72,16.25,89.28Z"></path><path d="M70.07,260.64c-5.72-4.79-12.63-6.47-20.29-5.89-4.76.37-7.27-1.2-8.57-5.49a25.06,25.06,0,0,1-1.43-6.68,19.21,19.21,0,0,1,4.89-14.06c2.89-3,3.65-2.85,5.52.53.19.39.3,1,.59,1.06a8.66,8.66,0,0,0,3.68.7c.47-.07,1.14-1.81,1-2.72a5.67,5.67,0,0,0-4.07-5c-5.63-1.81-13.07.48-15.92,6.75a28.23,28.23,0,0,0-1.69,18.31c1.72,8,8.18,11.52,15.5,11.27a25.36,25.36,0,0,1,9.45,1.73c1.91.67,3.57,2.41,4.94,4.05,1.63,2,1.44,5.1.22,6.39a9.35,9.35,0,0,1-11,1.63c-2-1.09-3.62-.25-3.71,2,0,.65.68,1.42,1.22,1.87,4.94,3.5,10,2.19,15.51.26,2.15-2,4.92-3.54,6.28-5.93C74.37,267.53,74.27,264.17,70.07,260.64Z"></path><path d="M114.32,236.38c-1.7-2.67-3.31-5.7-5-8.37-4.75-7.31-10-19.84-15-27-.78-1.29-4.84-.69-6.32-1.33-1.05-.45-1.78.29-1.59,1.39a15.91,15.91,0,0,0,1.34,4c2.33,4.51,7.55,13.33,9.9,17.91,1.08,2.25,1.41,5,2.89,7.09,3.63,5.31,4.4,11.12,3.39,17.38-.77,4.17-4.51,6-7.94,3.33a30.6,30.6,0,0,1-6.63-7c-1.89-2.9-3-6.25-4.47-9.34-2.2-4.41-6.47-12.82-9-17a46.4,46.4,0,0,0-5.76-7,4.44,4.44,0,0,0-2.62-1.28c-2.32-.48-3.43.69-2.47,2.69,1.87,4.09,4.59,10.47,6.53,14.53a61.91,61.91,0,0,1,2.5,5.93c1,2.77,3.46,7.05,4.31,9.89l-.09,0c.67.71,2,1.41,2,2.19,0,2.84,1.87,4.41,3.63,6.18,1.58,1.54,2.24,2.41,3.78,4.05l.86.93c0-.38,2.91,1.7,4.35,2.28,5.81,2.36,14-.77,16.75-6.59.81-1.81.59-4,.77-6.07.07-.9-.34-2.29,1.42-1.07a2.81,2.81,0,0,0,4-.63,4,4,0,0,0,.36-3.26A16.11,16.11,0,0,0,114.32,236.38Z"></path><path d="M165.67,224c-4.76-11.34-9.34-22.85-14.37-34.06-2-4.57-4.89-8.66-7.6-12.91-1.35-2.13-4.5-2.44-6.93-1s-2.71,2.72-1.6,5.75a9.67,9.67,0,0,1,.27,1.61c.44,7.39.89,14.78,1.26,22.21a3.54,3.54,0,0,1-.39,1.45,7.71,7.71,0,0,1-1.11-.58c-3-2.6-6-5.1-8.84-7.8-3.18-3.16-6-6.53-9.16-9.72-2-2-4.18-2.27-7-1-1.39.59-1.89,1.3-1.18,2.78,1.53,3.54,3,7.19,4.41,10.79,4.64,11.8,9.21,23.63,14,35.33.77,1.77,2.69,3,4.13,4.43a2.23,2.23,0,0,0,1.8.26c3.43-1.57,6-6.19,4.78-9.58-1.43-4.22-3.35-8.21-5.05-12.31l-.14.07c-1.6-3.35-3.17-6.64-4.78-10a4.82,4.82,0,0,1-.24-1.39,9.1,9.1,0,0,1,1.41.67c2.45,2.16,4.9,4.31,7.42,6.43a3.57,3.57,0,0,0,4.42.34c1.48-.94,1.77-2.43,1.57-4.07-.7-5.13-1.26-10.33-1.89-15.49a5.43,5.43,0,0,1,.06-1.61A5.5,5.5,0,0,1,142,195.9c3.81,8.31,6.6,17.11,11.32,25.06,1.91,3.29,3.65,6.57,5.62,9.83a2.76,2.76,0,0,0,2.09,1.21c4-.33,6.12-3.64,4.9-7.41C165.86,224.4,165.76,224.21,165.67,224Z"></path><path d="M213.71,201c-4.76-11.35-9.34-22.85-14.37-34.07-2-4.57-4.9-8.66-7.6-12.91-1.35-2.12-4.51-2.43-6.93-1s-2.71,2.73-1.6,5.75a9.61,9.61,0,0,1,.27,1.62c.44,7.39.88,14.78,1.26,22.2a3.56,3.56,0,0,1-.4,1.45,9.6,9.6,0,0,1-1.11-.57c-3-2.61-6-5.11-8.83-7.81-3.18-3.15-6.05-6.53-9.16-9.71-2-2.06-4.18-2.28-7-1-1.4.59-1.89,1.3-1.18,2.78,1.52,3.55,3,7.19,4.41,10.8,4.64,11.79,9.21,23.62,14.05,35.32.76,1.77,2.68,3,4.13,4.44a2.17,2.17,0,0,0,1.79.25c3.43-1.56,6-6.19,4.79-9.57-1.44-4.23-3.35-8.22-5.06-12.32l-.13.07-4.78-10a4.69,4.69,0,0,1-.24-1.38,7.8,7.8,0,0,1,1.4.67c2.46,2.15,4.91,4.3,7.43,6.43a3.58,3.58,0,0,0,4.42.33c1.47-.94,1.77-2.42,1.56-4.07-.69-5.13-1.25-10.33-1.88-15.49a5.14,5.14,0,0,1,.06-1.61,5.76,5.76,0,0,1,1.05,1.32c3.81,8.31,6.6,17.11,11.32,25.06,1.91,3.29,3.65,6.58,5.62,9.83a2.78,2.78,0,0,0,2.09,1.22c4-.34,6.11-3.64,4.9-7.41Z"></path><path d="M243.91,182.71c-2.36,1.37-4.66,2.86-7.08,4.26s-2.76,1.4-3.86-1.08c-1.47-3.42-2.77-6.84-4.27-10.15-.74-1.55-.57-2.58.9-3.53,1.72-1.13,3.4-2.33,5.08-3.54.35-.32.75-1.06.59-1.39a1.9,1.9,0,0,0-1.37-.76,4.18,4.18,0,0,0-1.85.49,30.13,30.13,0,0,0-4.51,2.47c-1.37,1-2,1-2.85-.54-.9-1.71-2-3.32-3-5-3.28-4.76-6.52-9.62-10-14.39-1.52-2.12-1.73-2,.7-3.42,1.91-1.07,3.75-2.11,5.54-3.28.48-.39.45-1.33.71-2a16.36,16.36,0,0,0-1.88.27c-3.56,1.47-7.13,3.09-10.69,4.56-1.12.46-2.33.72-3.49,1.11.64.8,1.31,1.67,1.94,2.48a3.85,3.85,0,0,1,.43.9c2.69,6.32,5.28,12.6,7.93,18.85.14-.06.31-.06.37-.1,1.55,3.23,2.95,6.51,4.7,9.64a126.84,126.84,0,0,0,6.79,11.4c2.53,3.54,6.7,4.39,10.87,2.79,4.47-1.66,7.31-5.16,9.83-9,.25-.35.11-1,.13-1.48A4.65,4.65,0,0,0,243.91,182.71Z"></path><path d="M280.74,164.46a6,6,0,0,0-1.54-.77c-5-2.27-10-4.64-15.05-6.82-1.37-.6-1.73-1-1.4-2.57A112.71,112.71,0,0,0,265.13,139c.31-5.3-.51-10.68-6.18-13.28-6-2.68-12.24-2.85-18.28.59a13.64,13.64,0,0,1-5.26,2.12c-2.08.36-2.34,1-1.42,3,.63,1.12,1.59,2.09,2.11,3.18,2.86,5.45,5.61,10.86,8.23,16.34,3,6.15,5.95,12.43,8.91,18.62l.13-.07a19.43,19.43,0,0,0,1.61,3.19c2.06,2.74,4.26,5.41,6.43,8,.92,1.07,2,1,3.32.31,4.29-2,5-3.5,3-7.43-1.89-3.77-4-7.44-6-11.15a7,7,0,0,1-.33-1.74,9.06,9.06,0,0,1,1.51.54l12.77,6.25c1,.48,2.05,1.31,3,1.25,1.44-.14,3.4-.6,4.07-1.63C283.91,165.48,281.61,165.23,280.74,164.46Zm-23.08-12.24c0,.39-.42.68-.6,1a3.08,3.08,0,0,1-.81-.8c-.71-1.32-1.39-2.74-2-4.09l.34-.16c-3.8-6-7.49-12.18-11.36-18.16-.63-1-.61-1.29.54-1.85,6.19-2.8,14.31,1.08,15.36,7.46C260,141.2,258.72,146.73,257.66,152.22Z"></path></g></g></svg>