<svg xmlns="http://www.w3.org/2000/svg" viewBox="0 0 328.65 297.02"><g id="Layer_2" data-name="Layer 2"><g id="Object"><path d="M117.56,112.15a5.79,5.79,0,0,0-.7-1.57,7.21,7.21,0,0,0-13.65,2.36l-51.1,2.27s-7.29.49-.38,2.75l51.45-4.67c0,.1,0,.21,0,.31a6.71,6.71,0,0,0,.11,1.35,5.43,5.43,0,0,0,.22,1.33c4.93,17.27,18.26,28.7,34.17,34.17a53.53,53.53,0,0,0,41.85,1.16c16.68-4.73,31-15.92,36.46-33.72a5.42,5.42,0,0,0,.19-2.52,7.45,7.45,0,0,0-.54-2.37l54.65,5c6.92-2.26-.37-2.75-.37-2.75l-54.36-2.41A7.21,7.21,0,0,0,205,109.71a5,5,0,0,0-2.83,3.27,44.9,44.9,0,0,1-26.71,28.77,58,58,0,0,1-9,1.63,6.75,6.75,0,0,0,.25-1.73l.9-44.46,19.1.38c8.62.18,8.9-13.2.28-13.38l-19.11-.38.32-15.94a22.4,22.4,0,0,0,15.53-18.72,6.9,6.9,0,0,0,.17-1.74,7,7,0,0,0-.1-1.74c-1-11.09-9.64-20.19-21.22-20.47a22,22,0,0,0-22.21,21.32,22.15,22.15,0,0,0,14.45,20.91q-.17,8.05-.32,16.1L137,83.18c-8.61-.17-8.9,13.21-.27,13.38l17.47.36-.9,44.45a7,7,0,0,0,.22,1.94,58.52,58.52,0,0,1-10.15-2.05A44.71,44.71,0,0,1,117.56,112.15ZM153.71,46.8c.22-10.85,16.55-10.47,16.77.34C169.83,57.91,153.49,57.64,153.71,46.8Z"></path><path d="M120,83.24l-42-67s-8.22-7.27-6,2.53Z"></path><path d="M67.12,62.34s-8.16-2-3.19,3.85L119.4,93.11Z"></path><path d="M73.49,96.67l47.63,5.83L74.07,94.59S68.19,93.74,73.49,96.67Z"></path><path d="M93.72,66.44l-43.1-42.7s-7.41-4-4,2.94Z"></path><path d="M105.15,3.12s-4.22-7.28-5,.39l19.37,58.55Z"></path><polygon points="50.73 75.49 98.15 91.77 49.63 73.75 50.73 75.49"></polygon><path d="M244.09,16.22l-42,67,48-64.49C252.31,9,244.09,16.22,244.09,16.22Z"></path><path d="M254.89,62.34,202.6,93.11l55.48-26.92C263.05,60.3,254.89,62.34,254.89,62.34Z"></path><path d="M247.93,94.59l-47.05,7.91,47.64-5.83C253.82,93.74,247.93,94.59,247.93,94.59Z"></path><path d="M275.43,26.68c3.37-6.93-4-2.94-4-2.94l-43.1,42.7Z"></path><path d="M216.86,3.12,202.47,62.06,221.84,3.51C221.08-4.16,216.86,3.12,216.86,3.12Z"></path><polygon points="272.38 73.75 223.86 91.77 271.27 75.49 272.38 73.75"></polygon><path d="M237.25,234.79H308.6V158H12.25v76.79H92.53L0,286l52-20.8,1.64,29.19c29.37-19.84,30.19-46.78,30.19-46.78l21.78-12.79H226l21,13.85s-.66,26.95,27.56,48.38l3.26-29,50.8,23.65Zm-64.69-67.36c12.55-2.58,24.76-.74,36.94-1.07,27.22-4.47,54.88-3.33,82.25-3.33A75.79,75.79,0,0,1,281,167c-1.48.43-3,.82-4.48,1.18,3.62.41,7.24,1,10.85,1.68q-11,1.74-22,2.76H202.19q-14.74-1.35-29.63-4Zm118.56,46.7H282c-.62-1.11-1.59-3.89-2.84-8.73s-2.9-6-6.78-6H271V193h2.37c4.59,0,7.36-2,7.36-5.31,0-3.53-2.73-5.13-6.84-5.13-1.22,0-2.17,0-2.89.09V176l2,0c6.14,0,10.16.94,12.95,3.06a9.53,9.53,0,0,1,3.67,7.94,10,10,0,0,1-7,9.24v.2c2.64,1.07,4.18,3.62,5.21,6.89.44,1.46.87,3,1.27,4.45l2.62.06-2.61,0A49,49,0,0,0,291.12,214.13Zm-58.29-30.59v-7.21h16.5v7.21Zm15.55,7.6v7.21H232.83v-7.21ZM114.23,176.33h6.46v31l-.34,6.83h-8.44ZM84.4,207.82c4.79-.34,7.31-4,7.31-10.69v-20.8h8.94v20.53c0,11.86-6.16,17.52-16.25,17.92ZM66.77,176.33h8.94v20.8c0,6.12,2.23,9.85,6.36,10.59v7.05c-9.4-.4-15.3-5.71-15.3-18.07ZM24,174.06c5.43-1.42,11-2.35,16.43-4.17,1.13-.38,2.25-.79,3.37-1.26,3.59-1.2,8-.8,11.59-2-.4,1.6-2,2.4-3.2,3.2-2.66,1.23-5.75,1.31-8.72,1.63-1.47.36-3,.66-4.52.91l-.55.22h-.2v.09a10.38,10.38,0,0,0-1.1.57A77.81,77.81,0,0,1,20.58,175C21.7,174.68,22.84,174.36,24,174.06Zm30.71,3.68-2.13,7a21.5,21.5,0,0,0-8.92-2h-.19v-7.15h.35A25.56,25.56,0,0,1,54.69,177.74Zm-13.57,37h-1a27.13,27.13,0,0,1-11.82-2.63l1.95-7.29a23.49,23.49,0,0,0,10.56,2.67h.36Zm0-31.7c-2.2.55-3.26,1.85-3.26,3.29,0,1.61,1.06,2.6,3.26,3.57v8.8l-.88-.26c-6.69-1.93-11.53-5.19-11.53-11.41,0-5.91,4.75-10.43,12.41-11.28Zm2.33,24.18c2.35-.56,3.59-1.91,3.59-3.78,0-1.64-1-2.81-3.59-3.9v-8.76c.62.22,1.28.43,2,.67,7.25,2.33,10.78,5.68,10.78,11.49,0,5.46-3.81,10.6-12.79,11.63Zm65.92,19.36c-8.8,2-16.8-1.6-25.6-3.2-12.4-2.4-24.4-3.2-36-7.6,10.8,3.2,22,3.2,33.2,4,2.8.4,4.8,2,7.6,2,18.4-1.2,36.4-2,54.8-.4C131.77,221,120.57,223.43,109.37,226.63Zm35.42-36.33c-.85,2.75-1.74,5.49-2.59,8l-5.08,15.16H130l-4.38-15c-.91-3.22-1.8-6.73-2.6-10.26V176.33h3.82l3.91,12.28c1.24,4.18,2.48,9.13,3.38,13.61h.2c1.19-4.44,2.61-9.67,4-13.68l4.36-12.21h2.11Zm3.27,23.83-.56-14.87c-.17-4.9-.32-10.56-.32-16.59h-.05v-6.34H155l1.94,37.8Zm28.35-9.78-.48,9.78h-8.44l2.32-37.8h6.6Zm18.15,9.08a9.31,9.31,0,0,0-1.8-.09l-.06.17h-7.12l-.54-1.84-1,0h1l-3.84-13.17c-.85-3-1.68-6.31-2.44-9.62V176.33h3.67l3.91,12.28c1.24,4.18,2.48,9.13,3.38,13.61h.2c1.19-4.44,2.61-9.67,4-13.68l4.36-12.21H201v11.79c-1,3.47-2.18,7-3.26,10.23l-4.45,13.28h10.21l-.17-4.66V176.33h7.21l1.81,35.3h11.37v-35.3h6.56v35.3h2.51v-4.71H250.2v4.71h6.29c1.35.32,2.69.68,4,1.09V176.83a75.32,75.32,0,0,1,8.16-.75v38h-4.21c.63.46,1.17,1.3.88,1.3-10.94,1.19-21.6.39-32.32-1.2A201.85,201.85,0,0,1,194.56,213.43Zm29.69,15.9c8.3.43,15.94-2.15,24.31-3.29,10.39-1.2,20.39.8,30.79-1.2a6,6,0,0,0,3.6-1.6c1.2-2,1.6-4.8,3.6-5.6,4-2,8.8-1.6,12.4-4-3.2,3.2-8.8,3.2-10.8,6.4a18.16,18.16,0,0,1-7.6,6c-13.2,5.6-27.59,2.4-42,3.6a30.88,30.88,0,0,0-6,.8c.4.8.4,1.6,1.2,2C230.23,232.12,227.47,230.26,224.25,229.33Z"></path><path d="M193.61,207.67H193l.46.08Z"></path><path d="M186.19,212.3a12.42,12.42,0,0,0,1.52-.15,7.41,7.41,0,0,0,2.95-1.05c-.89.2-1.77.42-2.65.66C187.4,211.93,186.79,212.11,186.19,212.3Z"></path><path d="M271.07,135.56c.08-1.05-.48-2.81-1.18-3.08a4.49,4.49,0,0,0-3.73.49c-7.66,5.85-16.52,8.06-25.78,9a17.49,17.49,0,0,0,4.85-10.44c.07-1-.48-2.8-1.19-3.07a4.49,4.49,0,0,0-3.73.49c-10.12,7.73-20.85,13.4-34.27,11,11.93,5.47,22.52.79,33.77-5a19.36,19.36,0,0,1-3.86,7.08,1.94,1.94,0,0,1-.91,1h0c-2.95,2.9-6.88,4.69-11.69,6.13a22.64,22.64,0,0,0,15.13-5.42A45.39,45.39,0,0,0,265.66,139c-.84,2.63-2.83,2.32-4.27,4.1a4.78,4.78,0,0,1-2.78,2.74,30,30,0,0,1-10.27,4.89,22.68,22.68,0,0,0,14.56-4.94c7.38-.18,12.29,1.49,19.73-2.18-2.74,8.2-6.19,6.72-14.43,9.06,11.26.45,19.08-3.14,19.89-12.47.09-1-.44-2.82-1.14-3.09a4.48,4.48,0,0,0-3.73.43C277.09,142.12,273,141,266,142.81,268.43,140,270.82,139,271.07,135.56Z"></path><path d="M50.16,152.71c-8.24-2.34-11.68-.86-14.42-9.06,7.44,3.67,12.35,2,19.73,2.18A22.67,22.67,0,0,0,70,150.77a30.08,30.08,0,0,1-10.27-4.89A4.76,4.76,0,0,1,57,143.14c-1.44-1.78-3.43-1.47-4.27-4.1a45.39,45.39,0,0,0,27.18,4.71A22.64,22.64,0,0,0,95,149.17c-4.81-1.44-8.74-3.23-11.7-6.13h0a1.94,1.94,0,0,1-.91-1A19.37,19.37,0,0,1,78.55,135c11.26,5.76,21.85,10.44,33.78,5-13.42,2.36-24.15-3.31-34.28-11a4.49,4.49,0,0,0-3.73-.49c-.7.27-1.26,2-1.18,3.07A17.54,17.54,0,0,0,78,141.94c-9.25-.91-18.11-3.12-25.77-9a4.49,4.49,0,0,0-3.73-.49c-.7.27-1.26,2-1.18,3.08.25,3.47,2.63,4.39,5,7.25-7-1.77-11.06-.69-17.19-5.23a4.49,4.49,0,0,0-3.73-.43c-.7.27-1.24,2-1.14,3.09C31.09,149.57,38.91,153.16,50.16,152.71Z"></path></g></g></svg>