<svg xmlns="http://www.w3.org/2000/svg" viewBox="0 0 178.19 229.91"><defs><style>.cls-1{fill:#414042;}.cls-2{fill:#fbb040;}.cls-3{fill:#58595b;}</style></defs><g id="Layer_2" data-name="Layer 2"><g id="Layer_1-2" data-name="Layer 1"><path class="cls-1" d="M19.18,67.88l.1-.42C19.18,67.35,19.18,67.46,19.18,67.88Z"></path><path class="cls-2" d="M26.18,72.16c3.24.53,14.43,1,20.39,1a25.93,25.93,0,0,0,3.14-.1A2.73,2.73,0,0,0,52,70.39a2.58,2.58,0,0,0-2.93-2.51,211.93,211.93,0,0,1-22.27-.94l-2.09-.32C25.66,62.55,33.4,14.45,35,3.37a2.75,2.75,0,0,0-2.51-3,2.61,2.61,0,0,0-2.62,2.2c-.1.84-9.51,59.28-10.56,64.93.21.42.52,2.51.84,2.82C21.27,71.43,23.36,71.75,26.18,72.16Z"></path><path class="cls-2" d="M47.83,62.86c5.87,0,14-3,20.37-9.66,1.36,5.24,4.34,8.72,9.74,8.72,7.53,0,13.07-6.07,15.79-11.61a1.86,1.86,0,0,0,.21-1,2.48,2.48,0,0,0-1.16-2.2,2,2,0,0,0-1.25-.42A2.71,2.71,0,0,0,89.13,48c-1.68,4.5-5.55,8.79-10.88,8.79-4.7,0-5.75-6.17-5.75-11.72,0-6.79,1.46-15.26,3.35-22.58,3.34-.63,6.48-1.78,10.24-2.82a2.61,2.61,0,1,0-1.46-5,52,52,0,0,1-7.22,2.19A45.88,45.88,0,0,1,80,9.74a5.53,5.53,0,0,0,.21-1.15,2.62,2.62,0,0,0-1.68-2.51,2.79,2.79,0,0,0-3.24,1.36A60.17,60.17,0,0,0,71.56,18a54.48,54.48,0,0,1-9.31.94,2.62,2.62,0,0,0,0,5.23,57.46,57.46,0,0,0,8-.62,93.48,93.48,0,0,0-2.93,21.22c0,.53,0,1.06,0,1.57a5.64,5.64,0,0,0-.55.63c-5,6.27-13.38,10.77-19,10.77-5,0-7.21-3.66-7.21-7.32,8.88-2.93,18.19-8.26,18.19-15.16,0-4.08-3.35-6.9-7.42-6.9-8.89,0-16,12.33-16,21.53C35.28,57.42,40.4,62.86,47.83,62.86Zm3.55-29.28c1.36,0,2.09.63,2.09,1.57a5.44,5.44,0,0,1-1.57,3.14c-2,2.19-5.54,4.29-10.45,6.27C42.91,40.48,46.36,33.58,51.38,33.58Z"></path><path class="cls-2" d="M92.57,8.28a7.88,7.88,0,0,1-.83,4.7,1.91,1.91,0,0,0-.21,1,.59.59,0,0,0,.73.63c.11,0,.21-.11.31-.11a4.68,4.68,0,0,0,1.16-.73c1.88-1.88,4.59-6.27,4-10-.63-2.51-2.2-4-4-3.76-2.83.21-3.87,2.82-3.46,5.44A3.93,3.93,0,0,0,92.57,8.28Z"></path><path class="cls-2" d="M100.52,66.1a10.39,10.39,0,0,0,10.67,10.67c5.54,0,10.35-4.19,10.35-9.62,0-3-1.47-6.17-3.87-9.21a21.07,21.07,0,0,0-2.62-2.82c2.1-.94,7.32-1.57,10.25-1.57,3.24,0,6.8,0,9.93,1.26a3.26,3.26,0,0,0,.94.21c1,0,1.78-.63,2.2-2a2.64,2.64,0,0,0-1.78-3.24,39,39,0,0,0-11.29-1.46c-4.29,0-10.35.73-14.22,2.71l-1.78-1.88c-1.77-1.88-3.55-4.18-3.55-7.11,0-3.45,4-8.78,8.15-8.78,1.78,0,3.56.94,3.56,3.35,0,1.67-1,3.86-1,4.6a2.6,2.6,0,0,0,5,.94,14.54,14.54,0,0,0,1.26-5.65A8.22,8.22,0,0,0,114.11,28c-7.11,0-13.59,7.11-13.59,14,0,4.29,1.78,7,4.92,10.56l1,1.26A16.08,16.08,0,0,0,100.52,66.1Zm9.72-8.57c2.41,2.51,6.07,6.17,6.07,9.41a4.92,4.92,0,0,1-5.12,4.7,5.47,5.47,0,0,1-5.44-5.75A10.79,10.79,0,0,1,110.24,57.53Z"></path><path class="cls-3" d="M173.87,49.87h0a12.29,12.29,0,0,0-17.84,2l-36.6,49.36a3.17,3.17,0,0,0,.14,4L117.16,108a5.17,5.17,0,0,1-6.69,1,65.34,65.34,0,1,0,15,12.75,5.15,5.15,0,0,1-.07-6.73l2.41-2.83a3.19,3.19,0,0,0,3.93-.48l43-43.92A12.28,12.28,0,0,0,173.87,49.87Zm-61.64,156c-1.15,1-2.59,2.11-4.25,3.4a59.24,59.24,0,0,1-6,3.7,33,33,0,0,1-3.62,1.79l-1.95.83-1,.43c-.34.13-.69.23-1,.35l-2.15.7a19.51,19.51,0,0,1-2.21.66l-2.3.53a20.85,20.85,0,0,1-2.35.49l-2.43.35a22.32,22.32,0,0,1-2.46.29l-2.51.15a19.55,19.55,0,0,1-2.54.05,53.84,53.84,0,0,1-10.24-1l-2.54-.53a9.21,9.21,0,0,1-1.25-.33l-1.24-.37-2.46-.75c-.81-.27-1.59-.63-2.38-.94l-2.36-1c-.76-.36-1.49-.76-2.24-1.14l-2.2-1.14c-.71-.42-1.39-.87-2.07-1.31A47.81,47.81,0,0,1,39,205.56a56.4,56.4,0,0,1-5.76-6.05,57.2,57.2,0,0,1-4.1-5.74c-1.09-1.8-2-3.4-2.63-4.76s-1.14-2.44-1.44-3.19l-.47-1.15.27-.11.6,1.09c.38.71,1,1.72,1.77,3s1.8,2.76,3,4.44,2.71,3.43,4.4,5.28a65.68,65.68,0,0,0,5.87,5.51c1.1.91,2.28,1.78,3.46,2.61l1,.65.49.34.24.17a1.28,1.28,0,0,1,.21.12l2,1.17c.67.39,1.33.81,2,1.19l2.13,1c.71.34,1.42.7,2.15,1l2.24.88c.76.28,1.5.61,2.27.86l2.34.68,1.18.35a9.39,9.39,0,0,0,1.19.29l2.4.48a52.27,52.27,0,0,0,9.7,1.06,21.51,21.51,0,0,0,2.41,0l2.39-.07a20.31,20.31,0,0,0,2.35-.2l2.32-.27c1.54-.19,3-.59,4.48-.82a21.76,21.76,0,0,0,2.15-.53l2.08-.58c.34-.09.69-.18,1-.29l1-.36c.65-.24,1.29-.49,1.93-.7a33.82,33.82,0,0,0,3.6-1.5,32.39,32.39,0,0,0,3.23-1.6l2.87-1.57c1.69-1.13,3.21-2.08,4.45-2.94s2.13-1.65,2.77-2.15l1-.76.2.22Zm-50.9-2.44C30.15,187,28.61,130.21,53.57,127.24c18.93-2.25,15.56,18.64,25,20.64,6.15,1.3,29.46-18.5,39.16,3.71C130.12,179.92,92.51,219.93,61.33,203.46Zm64.06-63.56c.66,1.36,1.14,2.44,1.44,3.19l.47,1.15-.28.11-.59-1.09c-.38-.71-1-1.72-1.77-3s-1.8-2.76-3-4.44a67.18,67.18,0,0,0-4.39-5.28,64.51,64.51,0,0,0-5.88-5.51c-1.1-.91-2.27-1.78-3.45-2.61l-1-.65-.48-.34-.25-.17-.21-.12-2-1.17c-.66-.4-1.32-.81-2-1.19l-2.13-1c-.72-.34-1.42-.7-2.15-1l-2.25-.88c-.75-.28-1.49-.62-2.26-.86l-2.35-.68L89.74,114a8,8,0,0,0-1.19-.29l-2.4-.48a51.43,51.43,0,0,0-9.7-1.06,19.36,19.36,0,0,0-2.41,0l-2.39.07a20.48,20.48,0,0,0-2.36.2l-2.31.26c-1.54.19-3,.6-4.48.83a21.76,21.76,0,0,0-2.15.53l-2.08.57c-.35.1-.69.18-1,.29l-1,.37c-.64.24-1.28.48-1.92.7a31.86,31.86,0,0,0-3.6,1.5,32.39,32.39,0,0,0-3.23,1.6l-2.87,1.57c-1.7,1.13-3.21,2.08-4.45,2.94s-2.14,1.65-2.77,2.15l-1,.75-.21-.21L39.63,123c1.15-1,2.6-2.11,4.26-3.4a58.18,58.18,0,0,1,6-3.69,31.93,31.93,0,0,1,3.61-1.79l2-.83,1-.43c.34-.13.7-.23,1.05-.35l2.14-.7a20.32,20.32,0,0,1,2.22-.66l2.3-.54c.77-.16,1.54-.4,2.35-.49l2.42-.35a22.48,22.48,0,0,1,2.47-.28l2.51-.15a19.39,19.39,0,0,1,2.53,0,54.67,54.67,0,0,1,10.25,1l2.54.54a9.17,9.17,0,0,1,1.25.32l1.23.38,2.47.75c.81.27,1.59.63,2.38.94l2.35,1c.76.37,1.5.77,2.24,1.15l2.21,1.13c.7.43,1.38.88,2.07,1.31a48.49,48.49,0,0,1,7.45,5.6,55.63,55.63,0,0,1,9.86,11.79C123.85,136.94,124.74,138.54,125.39,139.9Zm43.25-77.09a4.42,4.42,0,1,1-.49-6.23A4.42,4.42,0,0,1,168.64,62.81Z"></path><path class="cls-3" d="M149.88,156.29c-.12-.79-.23-1.58-.35-2.36a61.53,61.53,0,0,0-2.2-9c-.5-1.42-.9-2.84-1.51-4.16-.28-.67-.55-1.33-.83-2s-.6-1.27-.89-1.89c-.58-1.24-1.19-2.43-1.85-3.54s-1.3-2.18-1.95-3.18-1.28-1.94-1.93-2.81l-1-1.26c-.32-.4-.64-.78-.95-1.15a48.59,48.59,0,0,0-3.33-3.71,16.41,16.41,0,0,0-1.32-1.26l-1-.9-.83-.75-.3.24.69.86c.44.57,1.15,1.37,1.94,2.46s1.76,2.38,2.76,4l.8,1.21c.25.42.51.86.77,1.32.54.9,1.11,1.84,1.62,2.87s1.11,2.08,1.61,3.21l.8,1.72c.26.58.49,1.19.74,1.8s.5,1.23.74,1.86.45,1.28.67,1.94c.49,1.29.84,2.66,1.26,4s.7,2.81,1,4.25.6,2.92.77,4.42l.3,2.25c.06.75.13,1.51.19,2.27.16,1.52.15,3,.21,4.58s0,3.06-.07,4.59-.16,3-.36,4.53a70.12,70.12,0,0,1-1.53,8.72,70.57,70.57,0,0,1-5.36,14.74c-1,2-2.05,3.91-3.05,5.49-.48.8-.95,1.54-1.41,2.21s-.86,1.29-1.26,1.83c-.77,1.1-1.42,1.93-1.87,2.5s-.67.87-.67.87l.29.24.83-.76c.53-.51,1.35-1.22,2.27-2.24.48-.49,1-1.06,1.53-1.69s1.12-1.32,1.71-2.08a53.13,53.13,0,0,0,3.7-5.33,55.73,55.73,0,0,0,3.59-6.83,60.79,60.79,0,0,0,3-8.14c.4-1.45.79-2.94,1.11-4.46a43.35,43.35,0,0,0,.8-4.64L150,172c.06-.49.07-.82.11-1.24.07-.8.14-1.6.2-2.4s.07-1.61.1-2.41.08-1.62,0-2.42c-.08-1.62-.1-3.23-.29-4.83C150,157.89,150,157.09,149.88,156.29Z"></path><path class="cls-3" d="M22.15,210.19l-1.21-1.46-1.26-1.67c-.91-1.15-1.79-2.47-2.72-3.87-.48-.68-.91-1.43-1.37-2.18s-.93-1.52-1.36-2.33l-1.3-2.46c-.45-.82-.8-1.71-1.22-2.58s-.81-1.74-1.15-2.65-.73-1.81-1.05-2.73-.64-1.84-.95-2.76-.55-1.86-.82-2.77S7.21,180.89,7,180s-.41-1.82-.61-2.71c-.27-1.81-.64-3.54-.78-5.22-.09-.83-.18-1.64-.26-2.42s-.08-1.55-.12-2.28c-.1-1.46-.09-2.81-.09-4v-1.66c0-.52,0-1,.07-1.42.1-1.7.15-2.68.15-2.68l-.38,0-.23.68c-.14.45-.38,1.12-.6,2l-.39,1.42c-.12.53-.21,1.09-.32,1.7s-.23,1.26-.35,1.95-.14,1.41-.22,2.17-.12,1.56-.19,2.38,0,1.67,0,2.55a44.49,44.49,0,0,0,.37,5.52c.15,1,.3,1.91.45,2.89.09.48.15,1,.25,1.47s.24,1,.37,1.46c.26,1,.44,2,.78,3s.64,1.95,1,2.93.77,1.9,1.15,2.85a30.07,30.07,0,0,0,1.28,2.76,55.26,55.26,0,0,0,2.93,5.15c.51.81,1.05,1.59,1.6,2.33s1.07,1.47,1.65,2.14,1.08,1.34,1.63,1.95,1.13,1.17,1.66,1.72,1,1.07,1.55,1.53,1,.89,1.52,1.29.91.79,1.33,1.11.83.58,1.19.84c.71.51,1.31.87,1.7,1.13l.62.38.28-.26-1.83-2C23.57,211.9,22.9,211.11,22.15,210.19Z"></path><path class="cls-2" d="M86.89,167.22a13.58,13.58,0,1,0,10.49,16.1A13.58,13.58,0,0,0,86.89,167.22Zm-5.5,9.15c-2.29,1.49-4.78,1.73-5.55.53s.44-3.37,2.73-4.86,4.77-1.73,5.55-.53S83.67,174.88,81.39,176.37Z"></path><path class="cls-3" d="M24.39,92.66a5.61,5.61,0,0,0,4.86-2.6L27.92,89a4,4,0,0,1-3.53,2,3.63,3.63,0,0,1-3.52-3.84c0-2.44,1.65-3.9,3.39-3.9a3.62,3.62,0,0,1,3.44,2.29L29,85.42V81.84H27.19V83A4.18,4.18,0,0,0,24,81.63a5.29,5.29,0,0,0-5.22,5.55A5.46,5.46,0,0,0,24.39,92.66Z"></path><path class="cls-3" d="M33.8,87.15a5.45,5.45,0,0,0,5.67,5.51,5.52,5.52,0,1,0,0-11A5.46,5.46,0,0,0,33.8,87.15Zm9.15,0a3.52,3.52,0,1,1-3.48-3.85A3.55,3.55,0,0,1,43,87.15Z"></path><path class="cls-3" d="M49.89,87.15a5.65,5.65,0,1,0,5.67-5.52A5.45,5.45,0,0,0,49.89,87.15Zm9.15,0a3.52,3.52,0,1,1-3.48-3.85A3.55,3.55,0,0,1,59,87.15Z"></path><polygon class="cls-3" points="73.28 92.46 78.47 92.46 78.47 90.84 77.26 90.84 73.28 86.49 76.94 83.47 78.21 83.47 78.21 81.84 73.05 81.84 73.05 83.47 74.66 83.47 69.71 87.57 69.71 83.47 71.46 83.47 71.46 81.84 65.79 81.84 65.79 83.47 67.65 83.47 67.65 90.84 65.79 90.84 65.79 92.46 71.46 92.46 71.46 90.84 69.71 90.84 69.71 89.43 71.86 87.66 74.66 90.84 73.28 90.84 73.28 92.46"></polygon><polygon class="cls-3" points="88.34 83.47 88.34 81.84 82.55 81.84 82.55 83.47 84.4 83.47 84.4 90.84 82.55 90.84 82.55 92.46 88.34 92.46 88.34 90.84 86.46 90.84 86.46 83.47 88.34 83.47"></polygon><polygon class="cls-3" points="103.68 92.57 104.75 92.56 104.75 83.47 106.54 83.47 106.54 81.84 101 81.84 101 83.47 102.86 83.47 102.86 89.03 96.61 81.84 92.81 81.84 92.81 83.47 94.67 83.47 94.67 90.84 92.81 90.84 92.81 92.46 98.43 92.46 98.43 90.84 96.61 90.84 96.61 84.64 103.68 92.57"></polygon><path class="cls-3" d="M116.58,83.25a4,4,0,0,1,3.53,2.11l1.31-.1V81.84h-1.79V83a5,5,0,0,0-3.55-1.33,5.33,5.33,0,0,0-5.26,5.52c0,3.18,2.26,5.53,5.8,5.53a7.29,7.29,0,0,0,4.8-1.66V86.87h-5v1.54h3.13v1.73a4.76,4.76,0,0,1-3,.87,3.89,3.89,0,0,1,0-7.76Z"></path><path class="cls-3" d="M7.14,106.29a3.26,3.26,0,1,0,5.19,3.93c1.09-1.43,4.08-8.83,3.14-9.53S8.23,104.86,7.14,106.29Z"></path><path class="cls-3" d="M23.89,100.74c-1.16-.19-4.46,7.07-4.75,8.85a3.25,3.25,0,1,0,6.42,1C25.85,108.87,25.05,100.94,23.89,100.74Z"></path><path class="cls-3" d="M4.66,100.46c1.62-.78,7.67-6,7.16-7s-8.35.4-10,1.18a3.25,3.25,0,1,0,2.81,5.87Z"></path></g></g></svg>