<svg xmlns="http://www.w3.org/2000/svg" viewBox="0 0 232.67 149.96"><defs><style>.cls-1{fill:#fbb040;}.cls-2{fill:#58595b;}</style></defs><g id="Layer_2" data-name="Layer 2"><g id="Layer_1-2" data-name="Layer 1"><path class="cls-1" d="M65.61,92.85c63-7,78-54.38,57.79-67.67-14.19-9.34-22-1.2-50.53,5.54-24.22,5.72-47.7-31.42-65.41,1C-.84,47-6.59,100.9,65.61,92.85ZM121.76,42.5v1.24a1.82,1.82,0,0,1-2.08-.13,1.55,1.55,0,0,1-.53-1.51,1.21,1.21,0,0,1,1.26-.9C121.05,41.29,121.45,41.93,121.76,42.5Zm-6.83-11.16a3.9,3.9,0,0,1,.21-1,1.49,1.49,0,0,1,.42-.63c.67-.57,1.7-.26,2.47.16,2.48,1.36,3,3.33,1,5.44-1.57,1.64-3.7,1.95-4.18-.73A10.26,10.26,0,0,1,114.93,31.34Zm-33.05,52a1.81,1.81,0,0,1-2.08-.14,1.53,1.53,0,0,1-.53-1.51,1.21,1.21,0,0,1,1.26-.89c.64.09,1,.72,1.36,1.29ZM77,34.22a1.66,1.66,0,0,1,1.4-.44l.85.47a1.42,1.42,0,0,1-.87,1.38,1.21,1.21,0,0,1-1.24-.21A.94.94,0,0,1,77,34.22ZM54.44,44.31a34.07,34.07,0,0,0,5.87-.59,37.67,37.67,0,0,1,2.38-6.67,1.75,1.75,0,0,1,2-.85,1.63,1.63,0,0,1,1.05,1.58,3.22,3.22,0,0,1-.13.73A27.86,27.86,0,0,0,64,43a32.24,32.24,0,0,0,4.55-1.38,1.65,1.65,0,1,1,.93,3.17c-2.38.66-4.36,1.38-6.47,1.78a61.45,61.45,0,0,0-2.11,14.25c0,3.5.66,7.39,3.63,7.39,3.14,0,5.48-2.36,6.63-5C71.53,55.9,76,48.93,82.09,48.93a4,4,0,0,1,4.16,4.23,11.36,11.36,0,0,1-1.91,5.47,1.71,1.71,0,0,1-1.39.73,1.58,1.58,0,0,1-1.65-1.58,2,2,0,0,1,.2-.86A8,8,0,0,0,83,53.22c0-.59-.26-1-.92-1-4.49,0-7.59,6.6-7.59,12.08,0,3.1.92,5.28,4,5.28,4.42,0,10-3.56,12.67-7.13l.1-.11a181.47,181.47,0,0,1,5.38-30.64,1.66,1.66,0,0,1,1.58-1.25,1.62,1.62,0,0,1,1.58,2c-3.43,13.93-4.88,23.43-5.41,31.61C97.54,58.57,102,51.84,106,51.84c3.37,0,4.09,4.29,4.09,8.25A67.44,67.44,0,0,1,109,71.31a1.82,1.82,0,0,1-1.58,1.38,1.75,1.75,0,0,1-1.72-2,64.61,64.61,0,0,0,1.12-10.82c0-1.65-.13-3.9-.79-4.75-1.52-1.52-8.84,10.36-11.55,15.77a1.79,1.79,0,0,1-1.51.92,2.31,2.31,0,0,1-2-2c0-.79,0-1.6,0-2.4C87.22,70.74,82.3,73,78.33,73a6.55,6.55,0,0,1-6.68-5,10.1,10.1,0,0,1-7.31,3.47c-5,0-6.73-4.75-6.73-10.83a59,59,0,0,1,1.85-13.39,36.11,36.11,0,0,1-5,.39,1.65,1.65,0,1,1,0-3.3ZM33.32,32.7c4.69,0,7.52,4.42,7.52,9.44a13.78,13.78,0,0,1-.33,2.9,1.81,1.81,0,0,1-1.65,1.32,1.74,1.74,0,0,1-1.58-2,12.38,12.38,0,0,0,.26-2.24C37.54,39,36,36,33.19,36c-6.93,0-12.61,14.65-12.61,24.75,0,7,2.91,15.18,8.06,15.18,3,0,6.53-2.05,8.71-5.55a2.91,2.91,0,0,1,.26-.33,7.69,7.69,0,0,1-1.38-4.68c0-6.6,5.61-14.06,11.48-14.06a8,8,0,0,1,4.49,1.52,1.51,1.51,0,0,1,.72,1.32,1.48,1.48,0,0,1-.26.92,1.74,1.74,0,0,1-1.39.73,1.63,1.63,0,0,1-.92-.27,5,5,0,0,0-2.58-.79c-4.42,0-8.31,6.2-8.31,10.43,0,2,.86,3.83,2.84,3.83,4,0,7.39-5.94,9-11.42a1.52,1.52,0,0,1,1.85-1.12,1.63,1.63,0,0,1,1.65,1.65c0,7.06.33,12.8.66,17.16a1.66,1.66,0,0,1-3.3.32c-.26-3.1-.53-6.66-.59-10.55-2.38,4.75-5.15,7.26-9.24,7.26a6.32,6.32,0,0,1-2-.33.84.84,0,0,1-.08.19c-2.77,4.29-7.39,7.13-11.68,7.13-7.32,0-11.22-10.43-11.22-18.61C17.28,48,24.15,32.7,33.32,32.7ZM12.51,64.23a1.67,1.67,0,0,1,1.4-.45l.85.47a1.42,1.42,0,0,1-.87,1.38,1.21,1.21,0,0,1-1.24-.2A1,1,0,0,1,12.51,64.23Z"></path><path class="cls-2" d="M232.47,114.19Q228,97.75,223.54,81.31a6.26,6.26,0,0,0-8.18-4.17q-15.84,5.73-32.07,10.47a6.24,6.24,0,0,0-4.45,7.06c.46,2.57.93,5.14,1.39,7.71A552.18,552.18,0,0,1,89,111.18h0c0-.87,0-1.74,0-2.6a547.86,547.86,0,0,1-72.47-7.12A12.33,12.33,0,0,0,2.11,111.52c-1,6.7,4.26,12.93,11.55,13.49a567,567,0,0,0,75.53.81c0-.87,0-1.74,0-2.61h0a564.48,564.48,0,0,0,93.23-9c.47,2.57.93,5.14,1.4,7.71a6.32,6.32,0,0,0,7,4.92q18.06-1.84,36.1-4.86C230.86,121.34,233.43,117.69,232.47,114.19Zm-185-5.44-1.9.18-2.18.14-2.81.1-3.33,0c-1.18,0-2.42,0-3.71,0s-2.62-.06-4-.13-2.72-.13-4.09-.22l-4.08-.32c-1.36-.11-2.66-.24-4-.42l-1-.14-.94-.15a11.08,11.08,0,0,0-1.41-.17,9.17,9.17,0,0,0-2.62.28,7.2,7.2,0,0,0-2.09,1c-.31.19-.56.42-.84.62l-.66.64A12,12,0,0,0,7,111.18l-.32.41-.21-.08.17-.46a7.94,7.94,0,0,1,.55-1.29c.14-.27.33-.55.51-.87a9.9,9.9,0,0,1,.76-.91,7.09,7.09,0,0,1,2.3-1.67,8.88,8.88,0,0,1,3.27-.77,25.09,25.09,0,0,1,3.71.34c2.54.28,5.26.56,8,.81,5.45.51,10.9,1,15,1.32s6.81.51,6.81.51ZM192,95.78h0A2.39,2.39,0,0,1,193.68,93q10.8-3.06,21.45-6.55a2.4,2.4,0,0,1,3.08,1.62c0,.21.1.42.16.62a2.37,2.37,0,0,1-1.67,2.84q-10.83,3.23-21.79,6A2.38,2.38,0,0,1,192,95.78ZM194,105.84h0a2.41,2.41,0,0,1,1.89-2.79q11.13-2.49,22.16-5.45a2.41,2.41,0,0,1,3,1.65c0,.21.11.41.16.62a2.4,2.4,0,0,1-1.85,2.89q-11.22,2.67-22.51,4.88A2.39,2.39,0,0,1,194,105.84Zm28,8.1q-11.59,2.13-23.22,3.77a2.41,2.41,0,0,1-2.76-1.81,2.45,2.45,0,0,1,2.08-2.82q11.46-2,22.87-4.36a2.42,2.42,0,0,1,2.91,1.67l.16.62A2.44,2.44,0,0,1,222.07,113.94Z"></path><rect class="cls-2" y="145.03" width="4.28" height="1.74"></rect><path class="cls-2" d="M14.8,138.35a5.81,5.81,0,1,0,0,11.61,5.81,5.81,0,1,0,0-11.61Zm0,9.85c-2.3,0-3.71-1.74-3.71-4s1.41-4,3.71-4,3.66,1.76,3.66,4S17,148.2,14.8,148.2Z"></path><polygon class="cls-2" points="33.52 140.29 35.48 140.29 35.48 146.13 28.9 138.58 24.91 138.58 24.91 140.29 26.87 140.29 26.87 148.04 24.91 148.04 24.91 149.75 30.82 149.75 30.82 148.04 28.9 148.04 28.9 141.53 36.34 149.86 37.47 149.85 37.47 140.29 39.35 140.29 39.35 138.58 33.52 138.58 33.52 140.29"></polygon><polygon class="cls-2" points="50.9 142.57 52.79 142.57 52.79 140.29 55.69 140.29 55.69 148.04 53.73 148.04 53.73 149.75 59.8 149.75 59.8 148.04 57.85 148.04 57.85 140.29 60.72 140.29 60.72 142.57 62.6 142.57 62.6 138.58 50.9 138.58 50.9 142.57"></polygon><polygon class="cls-2" points="74.56 140.29 76.51 140.29 76.51 143.25 70.76 143.25 70.76 140.29 72.72 140.29 72.72 138.58 66.64 138.58 66.64 140.29 68.6 140.29 68.6 148.04 66.64 148.04 66.64 149.75 72.72 149.75 72.72 148.04 70.76 148.04 70.76 144.87 76.51 144.87 76.51 148.04 74.56 148.04 74.56 149.75 80.63 149.75 80.63 148.04 78.67 148.04 78.67 140.29 80.63 140.29 80.63 138.58 74.56 138.58 74.56 140.29"></polygon><polygon class="cls-2" points="84.7 140.29 86.64 140.29 86.64 148.04 84.7 148.04 84.7 149.75 95.98 149.75 95.98 145.87 94.09 145.87 94.09 148.04 88.75 148.04 88.75 144.93 90.9 144.93 90.9 146.33 92.52 146.33 92.52 141.98 90.9 141.98 90.9 143.38 88.75 143.38 88.75 140.29 94.09 140.29 94.09 142.46 95.98 142.46 95.98 138.58 84.7 138.58 84.7 140.29"></polygon><polygon class="cls-2" points="108.42 140.29 110.38 140.29 110.38 148.04 108.42 148.04 108.42 149.75 114.59 149.75 114.59 148.04 112.49 148.04 112.49 145.09 114.53 145.09 114.53 146.49 116.14 146.49 116.14 142.15 114.53 142.15 114.53 143.55 112.49 143.55 112.49 140.29 117.43 140.29 117.43 142.57 119.33 142.57 119.33 138.58 108.42 138.58 108.42 140.29"></polygon><polygon class="cls-2" points="132.02 148.04 127.49 148.04 127.49 140.29 129.44 140.29 129.44 138.58 123.39 138.58 123.39 140.29 125.34 140.29 125.34 148.04 123.39 148.04 123.39 149.75 134.05 149.75 134.05 145.47 132.02 145.47 132.02 148.04"></polygon><polygon class="cls-2" points="138.17 140.29 140.13 140.29 140.13 148.04 138.17 148.04 138.17 149.75 144.26 149.75 144.26 148.04 142.29 148.04 142.29 140.29 144.26 140.29 144.26 138.58 138.17 138.58 138.17 140.29"></polygon><path class="cls-2" d="M154.78,138.58h-6.46v1.71h2V148h-2v1.71h6.2V148h-2.13v-2.25h2.41c2.67,0,4.39-1.45,4.39-3.66S157.42,138.58,154.78,138.58Zm-.1,5.49-2.29,0v-3.76h2.24c1.21,0,2.43.42,2.43,1.81C157.06,143.69,155.84,144.07,154.68,144.07Z"></path><path class="cls-2" d="M176.86,143.22c-2.15-.59-3-1.09-3-1.89s.84-1.27,2-1.27a4.16,4.16,0,0,1,3.65,2.41l1.22-.06v-3.83h-1.89v1.22a4.61,4.61,0,0,0-3.5-1.45c-1.92,0-3.68,1.19-3.68,3.08,0,1.73,1.15,2.87,3.82,3.58s3.59,1.27,3.59,2.09-.72,1.15-1.7,1.15a6.07,6.07,0,0,1-4.47-2.51l-1.29.09v3.9h1.89v-1.48a6,6,0,0,0,4,1.71c2.18,0,3.81-1.16,3.81-3.08S179.41,143.94,176.86,143.22Z"></path><polygon class="cls-2" points="185.52 140.29 187.47 140.29 187.47 148.04 185.52 148.04 185.52 149.75 191.61 149.75 191.61 148.04 189.64 148.04 189.64 140.29 191.61 140.29 191.61 138.58 185.52 138.58 185.52 140.29"></polygon><path class="cls-2" d="M201.18,138.58h-5.52v1.71h2V148h-2v1.71h5.52c3.26,0,6.53-1.71,6.53-5.59S204.44,138.58,201.18,138.58ZM201,148h-1.18v-7.75H201c2.1,0,4.51.76,4.51,3.87S203.06,148,201,148Z"></path><polygon class="cls-2" points="211.9 140.29 213.84 140.29 213.84 148.04 211.9 148.04 211.9 149.75 223.18 149.75 223.18 145.87 221.29 145.87 221.29 148.04 215.95 148.04 215.95 144.93 218.1 144.93 218.1 146.33 219.71 146.33 219.71 141.98 218.1 141.98 218.1 143.38 215.95 143.38 215.95 140.29 221.29 140.29 221.29 142.46 223.18 142.46 223.18 138.58 211.9 138.58 211.9 140.29"></polygon><rect class="cls-2" x="227.69" y="145.03" width="4.28" height="1.74"></rect><path class="cls-2" d="M197,54.87a1.75,1.75,0,0,0-1.45-1.71,1.78,1.78,0,0,0-1.85,1.38c-1.85,4.75-6.4,13.47-9.7,13.07-1.45-.33-1.78-2.38-1.78-4.22a40.78,40.78,0,0,1,2.11-10,1.64,1.64,0,0,0-1.52-2.11,1.72,1.72,0,0,0-1.65,1.12,42,42,0,0,0-1.41,5.09,17.26,17.26,0,0,1-5.12,2.1,14,14,0,0,1-.07-1.71C174.6,52,170.45,46,165.1,46c-4.29,0-8.12,2.71-8.12,6.87a9.24,9.24,0,0,0,1.65,5,8.73,8.73,0,0,0-2,2.68l0,0A59.14,59.14,0,0,1,149,65.76c0-7.39,0-9.1-.13-12.6a1.65,1.65,0,0,0-3.3,0c-.07,2.18-6.54,12.07-8.25,12.07-.2,0-.27-.39-.27-1,0-2.7,1.52-10.16,3.1-13.33a1.44,1.44,0,0,0,.14-.52,1.77,1.77,0,0,0-1.59-1.65,1.74,1.74,0,0,0-1.65,1.12c-1.38,4.29-3.17,10.82-3.17,14.19,0,2.37.93,4.68,3,4.68,3,0,6.34-4.68,8.78-8.91v2.44c0,1.92,0,3.77-.07,5.61-7.72,5-14.58,9.84-14.58,17,0,4.89,4.55,7.33,8.91,7.33,6.4,0,8.18-8.58,8.77-18.74.07-1.19.07-2.38.14-3.63.53-.38,3.87-2.58,6.54-4.42,0,.11,0,.22,0,.33,0,5.08,2.9,8.58,7.85,8.58a10.73,10.73,0,0,0,9.57-6.34A13.17,13.17,0,0,0,174.47,63a22.45,22.45,0,0,0,4.62-1.37,17,17,0,0,0-.13,1.83c0,3.83,1.58,7.46,5.41,7.46,2.64,0,5.41-2.18,7.33-4.69,0,.53-.07,1.13-.07,1.79a42.8,42.8,0,0,0,.46,5.8,1.74,1.74,0,0,0,1.65,1.32,1.6,1.6,0,0,0,1.59-1.84A37.6,37.6,0,0,1,195,68.4a24.84,24.84,0,0,1,.26-3.89C196.25,58.57,197,55.14,197,54.87ZM145.43,73.22c-.39,6.93-1.84,14.52-5.08,15.57-1.85.53-6-.39-6-4.29,0-4.42,4.62-8.31,11.15-12.6A8.35,8.35,0,0,0,145.43,73.22Zm24.42-6.73a7.16,7.16,0,0,1-6.8,4.42c-3,0-4.35-2.11-4.35-5.21a7.69,7.69,0,0,1,2.11-5.48A13,13,0,0,0,171,63.58,12.58,12.58,0,0,1,169.85,66.49Zm-1-6.14c-4-.2-8.58-3.83-8.58-7.39,0-2.31,2.44-3.7,4.69-3.7,3.43,0,5.81,3.7,6.33,8.91a18.72,18.72,0,0,1,.07,2A13,13,0,0,1,168.86,60.35Z"></path><path class="cls-2" d="M133,10.14h0L135,9c1.32-.73,3.28-1.73,5.83-2.83a51.14,51.14,0,0,1,9.46-2.89,39.89,39.89,0,0,1,12.39-.45l1.8.3c.48.06,1.09.25,1.63.36s1.12.31,1.68.48a16.72,16.72,0,0,1,1.68.59A31.78,31.78,0,0,1,176,7.89a27.18,27.18,0,0,1,6.89,6.73l-1,.29a16,16,0,0,0-7.82,5.71,11.85,11.85,0,0,0-2.27,9.46,11.16,11.16,0,0,0,6.2,7.49,8.45,8.45,0,0,0,4.93.69,9.42,9.42,0,0,0,1.24-.32,9.56,9.56,0,0,0,1.12-.47,8.65,8.65,0,0,0,2-1.46A13.28,13.28,0,0,0,191,27.23a18.11,18.11,0,0,0-.3-4.71c-.09-.39-.15-.76-.28-1.15l-.33-1.1a18.45,18.45,0,0,0-.76-2.07c.51,0,1,0,1.55.09a27.63,27.63,0,0,1,4,.76l1,.29.93.3,1,.37.95.39a39.35,39.35,0,0,1,17.84,14.82c.67,1,1.3,2.05,1.83,3,.28.46.55,1.07.82,1.61l.37.77.33.79a41,41,0,0,1,3,12.13,44.55,44.55,0,0,1-.23,9.85,48.17,48.17,0,0,1-1.34,6.31l-.72,2.2v0a.22.22,0,0,0,.42.15l.91-2.13a40.59,40.59,0,0,0,1.93-6.29,42.73,42.73,0,0,0,1-10.17A41.46,41.46,0,0,0,200.28,16.8a32.12,32.12,0,0,0-8.9-2.62A24.26,24.26,0,0,0,187,14,30.26,30.26,0,0,0,177.79,5,32.94,32.94,0,0,0,163,.11,39.78,39.78,0,0,0,149.8,1.36,47.76,47.76,0,0,0,140.28,5a55.22,55.22,0,0,0-5.65,3.37l-1.89,1.36a.22.22,0,0,0-.06.29A.22.22,0,0,0,133,10.14Zm52.13,8.37c.17.36.35.71.49,1.08a16.11,16.11,0,0,1,.63,1.84l.31,1.1,0,.14,0,.07c.05.16,0-.15,0-.1l0,.22.09.44a14.38,14.38,0,0,1,.13,3.65,9.55,9.55,0,0,1-2.46,5.94,4.84,4.84,0,0,1-.85.63s0,0-.09.07l-.28.1-.54.21-.14,0-.27.07a4.25,4.25,0,0,1-2.42-.42,6.86,6.86,0,0,1-2.35-1.85L177,31.1c-.11-.23-.26-.44-.37-.67a6.35,6.35,0,0,1-.28-.67,3.9,3.9,0,0,1-.17-.59,7.42,7.42,0,0,1,1.44-6,11.8,11.8,0,0,1,5.63-4.2A14.79,14.79,0,0,1,185.11,18.51Z"></path><path class="cls-1" d="M3.82,31.58A.16.16,0,0,0,4,31.51l.88-1.69a19.53,19.53,0,0,1,1-1.91c.46-.71.93-1.53,1.5-2.38s1.23-1.77,2-2.65l1.21-1.35a17.07,17.07,0,0,1,1.38-1.3A10.72,10.72,0,0,1,13.59,19c.54-.38,1.06-.8,1.64-1.15l1.78-1c.61-.3,1.26-.51,1.89-.77a13.23,13.23,0,0,1,2-.58c.33-.09.66-.18,1-.25l1-.13A21.82,21.82,0,0,1,26.78,15a24.35,24.35,0,0,1,3.66.57c.57.15,1.14.23,1.66.42l1.52.52c1,.3,1.83.76,2.61,1.07a16.94,16.94,0,0,1,2,1l1.67.9a.18.18,0,0,0,.2,0,.17.17,0,0,0,0-.23l0,0-.35-.38c-.25-.24-.58-.62-1-1.05a12.41,12.41,0,0,0-1.77-1.48,16.31,16.31,0,0,0-2.53-1.66l-1.55-.82A14,14,0,0,0,31,13.07a19.48,19.48,0,0,0-4-1,20.32,20.32,0,0,0-4.56-.1L21.25,12c-.39.06-.78.16-1.17.25a15.25,15.25,0,0,0-2.31.66c-.74.31-1.51.58-2.21.94s-1.37.79-2,1.19a18.34,18.34,0,0,0-1.82,1.41A13.77,13.77,0,0,0,10.09,18c-.25.26-.49.52-.74.77a5.08,5.08,0,0,0-.67.8L7.52,21.23a24.66,24.66,0,0,0-1.76,3.14,29,29,0,0,0-1.1,2.84,13.21,13.21,0,0,0-.57,2.19c-.26,1.23-.35,2-.35,2v.06A.15.15,0,0,0,3.82,31.58Z"></path><path class="cls-1" d="M115.8,78.63l-2.15,1.44c-.66.47-1.54,1-2.52,1.55s-2.11,1.2-3.36,1.86-2.63,1.29-4.09,2-3,1.33-4.67,2l-2.51.95c-.85.32-1.73.59-2.6.89-1.74.62-3.56,1.11-5.35,1.66s-3.61,1-5.42,1.43-3.57.81-5.3,1.17-3.41.63-5,.87-3.11.45-4.51.58-2.69.28-3.83.34-2.14.15-3,.16l-2.59.07a.17.17,0,0,0-.16.13.16.16,0,0,0,.13.19h0l.68.14c.44.08,1.09.25,1.92.37s1.84.28,3,.38c.59,0,1.22.12,1.88.15s1.35,0,2.07.06a46.43,46.43,0,0,0,4.67-.08c1.65-.1,3.4-.22,5.19-.48s3.65-.48,5.49-.92,3.73-.88,5.6-1.35,3.69-1.15,5.47-1.82,3.5-1.42,5.16-2.15,3.19-1.6,4.65-2.4a43.11,43.11,0,0,0,4-2.51c.6-.42,1.17-.81,1.7-1.21s1-.82,1.47-1.19a26.63,26.63,0,0,0,2.28-2c.61-.59,1-1.1,1.36-1.42l.47-.51,0,0a.18.18,0,0,0,0-.21A.17.17,0,0,0,115.8,78.63Z"></path></g></g></svg>